<?xml version="1.0"?>
<svg width="16" height="16" xmlns="http://www.w3.org/2000/svg" xmlns:svg="http://www.w3.org/2000/svg">
 <g class="layer">
  <title>Layer 1</title>
  <path d="m6.66797,0.96582l2.67407,0l0,0.44995l0.96566,0l0,-0.51294c0.0002,-0.4978 -0.40462,-0.90283 -0.90218,-0.90283l-2.80103,0c-0.49756,0 -0.90234,0.40503 -0.90234,0.90283l0,0.51294l0.96582,0l0,-0.44995z" fill="#FE6083" id="svg_1" transform="rotate(11.0484 8.00492 0.707885)"/>
  <path d="m12.5379,5.24219l-9.06591,0c-0.24841,0 -0.44397,0.21191 -0.42395,0.45959l0.75794,9.37212c0.04223,0.5231 0.47863,0.9261 1.00293,0.9261l6.39199,0c0.5243,0 0.9607,-0.403 1.0029,-0.9263l0.7579,-9.37192c0.0202,-0.24768 -0.1754,-0.45959 -0.4238,-0.45959zm-6.87072,9.75821c-0.01013,0.0006 -0.02026,0.0009 -0.03027,0.0009c-0.25318,0 -0.4657,-0.1971 -0.48145,-0.4532l-0.47497,-7.69397c-0.01636,-0.26624 0.18616,-0.49537 0.45227,-0.51172c0.26526,-0.01612 0.49536,0.18591 0.51172,0.45227l0.47485,7.69392c0.01648,0.2663 -0.18603,0.4953 -0.45215,0.5118zm2.82605,-0.482c0,0.2666 -0.21618,0.4828 -0.48291,0.4828c-0.26672,0 -0.48291,-0.2162 -0.48291,-0.4828l0,-7.69406c0,-0.26672 0.21619,-0.48291 0.48291,-0.48291c0.2666,0 0.48291,0.21619 0.48291,0.48291l0,7.69406zm2.83617,-7.66562l-0.4535,7.69402c-0.015,0.2565 -0.2279,0.4544 -0.4815,0.4544c-0.0096,0 -0.0192,-0.0002 -0.0289,-0.0007c-0.2662,-0.0158 -0.46931,-0.2443 -0.45357,-0.5105l0.45337,-7.6941c0.0156,-0.26624 0.2434,-0.46936 0.5104,-0.45361c0.2662,0.01562 0.4693,0.24426 0.4537,0.51049z" fill="#FE6083" id="svg_2"/>
  <path d="m14.2077,3.75171l-0.3171,-0.95068c-0.0836,-0.25061 -0.3182,-0.41968 -0.5825,-0.41968l-10.60658,0c-0.26416,0 -0.4989,0.16907 -0.5824,0.41968l-0.31713,0.95068c-0.06116,0.18335 0.01843,0.37036 0.16699,0.46362c0.06054,0.03797 0.1322,0.06079 0.21094,0.06079l11.64988,0c0.0788,0 0.1505,-0.02282 0.211,-0.06091c0.1485,-0.09326 0.2281,-0.28027 0.1669,-0.4635z" fill="#FE6083" id="svg_3" transform="rotate(9.78202 8.00486 3.32873)"/>
 </g>
</svg>