<svg width="461" height="456" viewBox="0 0 461 456" fill="none" xmlns="http://www.w3.org/2000/svg">
<g clip-path="url(#clip0)">
<path d="M361.313 451.253C337.47 434.64 332.075 403.679 332.938 375.847C333.046 371.208 332.615 366.353 334.772 362.254C336.93 358.155 342.109 355.35 346.316 357.399C349.769 359.018 351.279 363.009 353.221 366.353C355.81 370.776 359.586 374.444 364.118 376.71C367.031 378.22 370.699 379.191 373.612 377.573C377.604 375.415 378.035 369.805 378.035 365.167C377.927 356.536 377.927 347.906 377.927 339.384C377.927 334.745 377.927 330.106 379.33 325.683C380.732 321.26 383.969 317.269 388.284 315.974C392.708 314.788 398.102 317.269 399.073 321.8C399.505 323.634 399.073 325.683 399.181 327.517C399.289 329.459 400.152 331.509 401.986 332.048C403.82 332.588 405.654 331.293 407.057 329.891C411.804 325.252 415.04 319.211 418.061 313.277C421.082 307.344 423.995 301.195 428.31 296.125C432.626 291.055 438.667 287.063 445.249 286.632C451.83 286.308 458.95 290.299 460.568 296.88C462.295 303.353 458.411 310.041 454.311 315.219C448.161 322.986 440.933 329.999 432.842 335.716C431.439 336.795 429.821 337.874 429.281 339.6C428.31 342.728 431.223 345.749 434.244 346.72C437.696 347.906 441.472 347.475 445.033 347.906C448.593 348.338 452.585 349.956 453.879 353.3C455.821 358.047 451.83 363.009 447.946 366.245C440.178 372.718 431.331 377.896 421.837 381.348C418.493 382.643 414.824 383.722 412.127 386.095C409.43 388.468 407.704 392.676 409.43 395.912C411.048 399.148 415.364 400.227 418.924 399.58C422.484 398.932 425.613 396.991 429.066 395.696C435.431 393.323 443.63 393.754 447.622 399.256C450.319 402.816 450.535 407.886 449.132 412.201C447.73 416.517 445.033 420.184 442.12 423.637C431.978 435.611 418.924 445.212 404.252 450.282C389.579 455.245 375.877 456.539 361.313 451.253Z" fill="#CBF7E3"/>
<path d="M368.433 433.777C372.533 419.753 378.251 404.758 384.832 389.223C386.45 385.34 388.176 381.564 389.687 377.788C391.305 374.013 392.923 370.345 394.757 366.785C398.318 359.665 402.31 353.084 406.193 347.043C410.185 340.894 414.177 335.284 417.845 329.998C421.621 324.712 425.181 319.858 428.742 315.651C435.647 307.128 442.012 300.871 446.651 296.772C448.917 294.722 450.751 293.212 452.045 292.133C452.693 291.594 453.124 291.27 453.448 290.947C453.771 290.731 453.987 290.515 453.987 290.623C453.987 290.623 453.879 290.731 453.556 291.054C453.232 291.378 452.801 291.81 452.153 292.241C450.966 293.32 449.132 294.938 446.867 296.988C442.336 301.195 436.078 307.452 429.281 315.974C425.829 320.289 422.269 325.144 418.493 330.322C414.716 335.608 410.833 341.218 406.841 347.367C402.957 353.516 398.965 359.988 395.405 367.108C393.679 370.668 392.06 374.336 390.442 378.112C388.824 381.888 387.205 385.663 385.587 389.547C379.006 404.974 373.288 419.969 369.188 433.993" fill="#43D190"/>
<path d="M395.081 366.785C394.973 366.785 394.865 366.138 394.65 364.843C394.434 363.549 394.11 361.715 393.787 359.449C393.139 354.81 392.492 348.446 391.737 341.434C390.981 334.422 390.226 328.057 389.471 323.526C389.147 321.26 388.824 319.426 388.608 318.132C388.392 316.837 388.284 316.19 388.392 316.082C388.5 316.082 388.608 316.73 388.932 318.024C389.255 319.319 389.687 321.153 390.118 323.418C390.981 327.949 391.845 334.314 392.6 341.434C393.247 348.338 393.894 354.703 394.434 359.449C394.65 361.607 394.865 363.441 394.973 364.951C395.081 366.03 395.081 366.785 395.081 366.785Z" fill="#43D190"/>
<path d="M454.419 355.673C454.419 355.781 453.556 355.781 452.045 355.997C450.535 356.105 448.269 356.321 445.572 356.644C440.178 357.184 432.626 358.262 424.426 359.881C416.227 361.391 408.891 363.117 403.604 364.519C400.907 365.167 398.857 365.814 397.347 366.245C395.836 366.677 395.081 366.893 395.081 366.785C395.081 366.677 395.836 366.461 397.347 365.922C398.749 365.382 400.907 364.735 403.496 363.98C408.783 362.47 416.119 360.636 424.318 359.018C432.518 357.507 440.07 356.536 445.572 356.105C448.269 355.889 450.535 355.781 452.045 355.781C453.556 355.566 454.419 355.566 454.419 355.673Z" fill="#43D190"/>
<path d="M369.189 432.698C369.189 432.698 368.973 432.483 368.757 431.943C368.433 431.404 368.11 430.649 367.786 429.786C366.923 427.952 365.736 425.147 364.334 421.803C361.421 415.006 357.86 405.513 353.869 394.941C349.985 384.369 346.424 374.876 343.727 367.972C342.433 364.627 341.246 361.93 340.491 359.881C340.167 359.018 339.843 358.263 339.627 357.723C339.412 357.184 339.304 356.968 339.412 356.968C339.412 356.968 339.627 357.184 339.843 357.723C340.167 358.263 340.491 359.018 340.814 359.881C341.677 361.715 342.864 364.519 344.267 367.864C347.18 374.66 350.74 384.153 354.732 394.725C358.616 405.297 362.176 414.791 364.873 421.695C366.168 425.039 367.354 427.736 368.11 429.786C368.433 430.649 368.757 431.404 368.973 431.943C369.081 432.375 369.189 432.698 369.189 432.698Z" fill="#43D190"/>
<path d="M448.054 407.239C448.054 407.239 447.838 407.347 447.298 407.563C446.651 407.778 445.896 407.994 445.033 408.318C442.875 408.965 440.07 409.936 436.618 411.015C429.497 413.28 419.679 416.624 408.783 420.292C397.994 423.96 388.069 427.196 380.948 429.354C377.388 430.433 374.475 431.296 372.425 431.835C371.454 432.051 370.699 432.267 370.052 432.482C369.512 432.59 369.188 432.698 369.188 432.59C369.188 432.59 369.404 432.482 369.944 432.267C370.591 432.051 371.346 431.835 372.209 431.512C374.367 430.864 377.172 429.893 380.624 428.815C387.745 426.549 397.563 423.205 408.459 419.537C419.248 415.869 429.174 412.633 436.294 410.475C439.854 409.397 442.767 408.534 444.817 407.994C445.788 407.778 446.543 407.563 447.191 407.347C447.73 407.347 448.054 407.239 448.054 407.239Z" fill="#43D190"/>
<path d="M84.4607 102.402L84.7103 104.764C84.7103 104.764 96.6778 98.86 104.334 102.184C104.576 102.602 105.133 102.892 105.678 102.968L108.713 103.11C109.359 103.072 109.986 102.71 110.163 102.051C110.163 102.051 117.28 98.1663 124.949 101.706L127.826 102.83L120.466 73.7676L84.8434 69.0927L84.4607 102.402Z" fill="#CBF7E3"/>
<path d="M82.3288 99.2872L82.688 103.48C82.688 103.48 94.4188 95.4289 107.147 102.232L102.825 82.3892C102.825 82.3892 83.0465 95.0294 82.3288 99.2872Z" fill="#CBF7E3"/>
<path d="M78.2612 69.2707C78.2612 69.2707 92.2368 57.1942 104.157 72.1505L107.147 102.231C107.147 102.231 92.9807 89.4629 81.088 100.226L78.2612 69.2707Z" fill="#E9FAF7"/>
<path d="M107.147 102.231C107.147 102.231 119.264 93.4004 128.927 101.359L124.698 74.0544L104.437 73.2146L107.147 102.231Z" fill="#CBF7E3"/>
<path d="M104.163 72.2584C104.163 72.2584 107.89 62.3087 117.204 62.6155L123.172 63.0145L127.953 90.5025C127.953 90.5025 113.425 89.7515 107.04 102.238L104.163 72.2584Z" fill="#E9FAF7"/>
<path d="M107.147 102.232C107.147 102.232 107.014 101.807 106.969 101.053C106.917 100.192 106.745 99.1216 106.56 97.8358C106.285 95.0425 105.843 91.2864 105.497 87.3085C105.037 83.2294 104.71 79.5745 104.434 76.7812C104.249 75.4954 104.185 74.4186 104.133 73.5571C104.088 72.8033 104.062 72.3726 104.062 72.3726C104.062 72.3726 104.196 72.7968 104.348 73.5442C104.501 74.2915 104.673 75.3619 104.865 76.7554C105.242 79.4346 105.683 83.1907 106.143 87.2698C106.604 91.3489 106.937 95.1115 107.105 97.9113C107.189 99.3112 107.253 100.388 107.298 101.142C107.122 101.801 107.147 102.232 107.147 102.232Z" fill="#CBF7E3"/>
<path d="M120.326 67.832C120.333 67.9397 119.351 67.7824 117.843 67.8727C116.335 67.963 114.308 68.4086 112.206 69.3991C110.104 70.3896 108.566 71.7786 107.553 72.9199C106.541 74.0613 106.048 74.8473 106.048 74.8473C106.048 74.8473 106.143 74.6255 106.332 74.1818C106.528 73.8459 106.819 73.2881 107.325 72.7174C108.223 71.4749 109.869 70.0794 111.965 68.9813C114.067 67.9908 116.202 67.5387 117.716 67.5561C118.47 67.5109 119.122 67.5799 119.56 67.6618C120.105 67.7372 120.326 67.832 120.326 67.832Z" fill="#CBF7E3"/>
<path d="M121.267 70.9096C121.274 71.0173 120.291 70.86 118.784 70.9503C117.276 71.0406 115.249 71.4862 113.147 72.4767C111.045 73.4672 109.507 74.8562 108.494 75.9975C107.482 77.1389 106.988 77.925 106.988 77.925C106.988 77.925 107.083 77.7031 107.273 77.2595C107.469 76.9235 107.76 76.3658 108.266 75.7951C109.164 74.5525 110.81 73.1571 112.906 72.0589C115.008 71.0684 117.142 70.6163 118.657 70.6337C119.411 70.5886 120.063 70.6575 120.5 70.7394C121.045 70.8149 121.267 70.9096 121.267 70.9096Z" fill="#CBF7E3"/>
<path d="M121.689 74.3427C121.695 74.4504 120.713 74.2931 119.206 74.3834C117.698 74.4737 115.671 74.9193 113.569 75.9098C111.466 76.9003 109.928 78.2893 108.916 79.4307C107.904 80.572 107.41 81.3581 107.41 81.3581C107.41 81.3581 107.505 81.1362 107.695 80.6926C107.891 80.3566 108.182 79.7989 108.688 79.2282C109.586 77.9856 111.232 76.5902 113.328 75.492C115.43 74.5015 117.564 74.0494 119.079 74.0668C119.832 74.0217 120.485 74.0906 120.922 74.1725C121.467 74.248 121.683 74.2351 121.689 74.3427Z" fill="#CBF7E3"/>
<path d="M122.522 77.4267C122.529 77.5344 121.547 77.3771 120.039 77.4674C118.531 77.5577 116.504 78.0033 114.402 78.9938C112.3 79.9843 110.762 81.3733 109.749 82.5146C108.737 83.656 108.244 84.442 108.244 84.442C108.244 84.442 108.338 84.2202 108.528 83.7766C108.724 83.4406 109.015 82.8828 109.521 82.3122C110.419 81.0696 112.065 79.6742 114.161 78.576C116.263 77.5855 118.398 77.1334 119.912 77.1508C120.666 77.1057 121.318 77.1746 121.755 77.2565C122.3 77.3319 122.522 77.4267 122.522 77.4267Z" fill="#CBF7E3"/>
<path d="M123.476 80.7199C123.483 80.8276 122.5 80.6703 120.993 80.7606C119.485 80.8509 117.458 81.2965 115.356 82.287C113.254 83.2775 111.716 84.6665 110.703 85.8079C109.691 86.9492 109.197 87.7353 109.197 87.7353C109.197 87.7353 109.292 87.5134 109.482 87.0698C109.678 86.7338 109.969 86.1761 110.475 85.6054C111.373 84.3628 113.019 82.9674 115.115 81.8692C117.217 80.8787 119.351 80.4266 120.866 80.444C121.62 80.3989 122.272 80.4678 122.709 80.5497C123.254 80.6252 123.476 80.7199 123.476 80.7199Z" fill="#CBF7E3"/>
<path d="M124.671 84.4308C124.677 84.5385 123.695 84.3811 121.979 84.592C121.117 84.6436 120.154 84.8094 119.198 85.0828C118.134 85.3627 117.076 85.7502 115.917 86.2519C114.759 86.7536 113.714 87.3566 112.885 87.9466C112.055 88.5366 111.232 89.2343 110.726 89.805C109.606 90.9528 109.119 91.8465 109.012 91.853C109.012 91.853 109.106 91.6312 109.296 91.1875C109.391 90.9657 109.593 90.7374 109.796 90.5092C109.998 90.2809 110.194 89.9449 110.498 89.6025C110.998 88.9242 111.827 88.3341 112.65 87.6364C113.587 87.04 114.625 86.3293 115.784 85.8276C116.943 85.326 118.108 84.9319 119.172 84.6521C120.236 84.3722 121.205 84.3141 122.067 84.2625C122.498 84.2367 122.821 84.2174 123.15 84.3057C123.473 84.2864 123.803 84.3747 124.018 84.3618C124.341 84.3424 124.671 84.4308 124.671 84.4308Z" fill="#CBF7E3"/>
<path d="M124.959 87.4396C124.966 87.5473 123.876 87.3964 122.267 87.6009C121.405 87.6525 120.449 87.9259 119.493 88.1993C118.429 88.4792 117.378 88.9744 116.219 89.4761C115.066 90.0855 114.129 90.682 113.192 91.2785C112.37 91.9762 111.54 92.5662 111.034 93.1369C109.914 94.2847 109.427 95.1784 109.319 95.1849C109.319 95.1849 109.414 94.9631 109.604 94.5194C109.699 94.2976 109.901 94.0693 110.103 93.841C110.306 93.6128 110.502 93.2768 110.806 92.9344C111.306 92.2561 112.128 91.5583 112.951 90.8606C113.882 90.1565 114.819 89.56 115.971 88.9506C117.124 88.3412 118.289 87.9472 119.353 87.6673C120.417 87.3875 121.38 87.2217 122.241 87.1701C122.672 87.1443 122.995 87.125 123.318 87.1056C123.641 87.0863 123.971 87.1746 124.186 87.1617C124.738 87.3448 124.953 87.3319 124.959 87.4396Z" fill="#CBF7E3"/>
<path d="M102.375 94.7361C102.274 94.8502 101.684 94.021 100.213 92.9203C98.8562 91.9209 96.7326 90.7512 94.2234 90.3611C91.7142 89.9711 89.3579 90.3283 87.7683 90.8558C86.1786 91.3833 85.2352 91.8721 85.2352 91.8721C85.2352 91.8721 85.4377 91.6439 85.8556 91.4027C86.2734 91.1615 86.9003 90.7998 87.7489 90.5328C89.3321 89.8976 91.7897 89.4262 94.413 89.9175C97.0364 90.4088 99.1599 91.5785 100.523 92.6856C101.202 93.1853 101.665 93.6979 102.014 94.1093C102.255 94.5272 102.375 94.7361 102.375 94.7361Z" fill="#CBF7E3"/>
<path d="M101.928 90.8725C101.826 90.9867 101.236 90.1574 99.7653 89.0568C98.4085 88.0573 96.2849 86.8877 93.7757 86.4976C91.2665 86.1075 88.9101 86.4648 87.3205 86.9923C85.7309 87.5198 84.7874 88.0086 84.7874 88.0086C84.7874 88.0086 84.9899 87.7803 85.4078 87.5392C85.8257 87.298 86.4525 86.9362 87.3012 86.6693C88.8843 86.0341 91.3419 85.5627 93.9653 86.054C96.5886 86.5453 98.7122 87.7149 100.075 88.822C100.754 89.3218 101.217 89.8344 101.566 90.2458C101.807 90.6636 101.928 90.8725 101.928 90.8725Z" fill="#CBF7E3"/>
<path d="M101.48 87.0088C101.379 87.1229 100.789 86.2937 99.3178 85.193C97.9609 84.1936 95.8374 83.0239 93.3282 82.6338C90.819 82.2438 88.4626 82.6011 86.873 83.1285C85.2834 83.656 84.3399 84.1448 84.3399 84.1448C84.3399 84.1448 84.5424 83.9166 84.9603 83.6754C85.3782 83.4342 86.005 83.0725 86.8536 82.8055C88.4368 82.1703 90.8944 81.6989 93.5178 82.1902C96.1411 82.6815 98.2647 83.8512 99.628 84.9583C100.306 85.458 100.769 85.9706 101.118 86.382C101.359 86.7999 101.48 87.0088 101.48 87.0088Z" fill="#CBF7E3"/>
<path d="M101.033 83.145C100.931 83.2591 100.341 82.4299 98.8703 81.3292C97.5134 80.3298 95.3899 79.1601 92.8807 78.7701C90.3715 78.38 88.0151 78.7373 86.4255 79.2648C84.8359 79.7923 83.8924 80.2811 83.8924 80.2811C83.8924 80.2811 84.0949 80.0528 84.5128 79.8116C84.9307 79.5705 85.5575 79.2087 86.4061 78.9417C87.9893 78.3065 90.4469 77.8351 93.0702 78.3264C95.6936 78.8177 97.8172 79.9874 99.1804 81.0945C99.8589 81.5942 100.322 82.1069 100.671 82.5182C100.912 82.9361 101.033 83.145 101.033 83.145Z" fill="#CBF7E3"/>
<path d="M100.484 79.3952C100.382 79.5094 99.7924 78.6802 98.3214 77.5795C96.9646 76.58 94.841 75.4104 92.3318 75.0203C89.8226 74.6302 87.4663 74.9875 85.8767 75.515C84.287 76.0425 83.3436 76.5313 83.3436 76.5313C83.3436 76.5313 83.5461 76.303 83.964 76.0619C84.3818 75.8207 85.0087 75.4589 85.8573 75.192C87.4405 74.5568 89.8981 74.0854 92.5214 74.5767C95.1448 75.068 97.2683 76.2376 98.6316 77.3448C99.31 77.8445 99.773 78.3571 100.122 78.7685C100.357 79.0786 100.585 79.2811 100.484 79.3952Z" fill="#CBF7E3"/>
<path d="M100.036 75.5315C99.9347 75.6456 99.3446 74.8164 97.8737 73.7157C96.5169 72.7163 94.3933 71.5466 91.8841 71.1565C89.3749 70.7665 87.0185 71.1238 85.4289 71.6513C83.8393 72.1787 82.8958 72.6675 82.8958 72.6675C82.8958 72.6675 83.0983 72.4393 83.5162 72.1981C83.9341 71.9569 84.5609 71.5952 85.4095 71.3282C86.9927 70.693 89.4503 70.2216 92.0737 70.7129C94.697 71.2042 96.8206 72.3739 98.1839 73.481C98.8623 73.9807 99.3253 74.4933 99.6742 74.9047C99.9089 75.2149 100.03 75.4238 100.036 75.5315Z" fill="#CBF7E3"/>
<path d="M384.294 189.438L382.844 191.715C382.844 191.715 373.445 179.148 363.729 178.575C363.244 178.895 362.555 178.942 361.962 178.661L358.668 177.162C357.986 176.82 357.55 176.124 357.627 175.257C357.627 175.257 352.267 167.465 342.34 167.008L338.697 166.58L361.759 140.172L401.356 154.269L384.294 189.438Z" fill="#CBF7E3"/>
<path d="M388.165 187.267L385.574 191.377C385.574 191.377 377.589 176.772 360.674 177.11L375.716 158.661C375.743 158.811 389.782 182.479 388.165 187.267Z" fill="#CBF7E3"/>
<path d="M408.407 158.113C408.407 158.113 400.286 138.028 379.729 147.395L360.701 177.261C360.701 177.261 382.297 171.504 388.968 189.137L408.407 158.113Z" fill="#E9FAF7"/>
<path d="M360.763 177.172C360.763 177.172 352.827 161.55 338.522 164.751L357.511 138.536L379.141 148.432L360.763 177.172Z" fill="#CBF7E3"/>
<path d="M379.818 147.457C379.818 147.457 379.43 136.287 368.739 130.309L361.415 126.669L341.506 152.508C341.506 152.508 360.832 160.804 360.701 177.261L379.818 147.457Z" fill="#E9FAF7"/>
<path d="M360.763 177.172C360.763 177.172 361.07 176.729 361.563 176.02C362.116 175.222 362.855 174.159 363.627 172.857C365.446 170.048 367.818 166.442 370.348 162.42C373.028 158.371 375.312 154.703 377.069 151.983C377.93 150.743 378.58 149.618 379.134 148.82C379.626 148.112 379.845 147.607 379.845 147.607C379.845 147.607 379.448 147.988 378.956 148.697C378.464 149.406 377.726 150.47 376.714 151.737C374.869 154.396 372.496 158.002 369.755 162.14C367.163 166.25 364.818 170.007 363.123 172.638C362.288 174.029 361.639 175.154 361.147 175.862C360.92 176.756 360.763 177.172 360.763 177.172Z" fill="#CBF7E3"/>
<path d="M365.254 134.193C365.192 134.282 366.263 134.631 367.743 135.527C369.222 136.423 371.137 138.015 372.833 140.112C374.468 142.298 375.414 144.53 375.8 146.244C376.187 147.957 376.315 149.096 376.377 149.008C376.377 149.008 376.411 148.769 376.391 148.23C376.372 147.691 376.325 147.002 376.162 146.101C375.837 144.299 374.953 141.978 373.23 139.731C371.595 137.545 369.53 135.98 367.9 135.111C367.13 134.708 366.448 134.365 365.97 134.297C365.581 134.289 365.254 134.193 365.254 134.193Z" fill="#CBF7E3"/>
<path d="M362.657 136.987C362.596 137.076 363.667 137.425 365.146 138.321C366.626 139.217 368.541 140.809 370.237 142.906C371.872 145.092 372.817 147.324 373.204 149.037C373.591 150.751 373.719 151.89 373.78 151.802C373.78 151.802 373.815 151.563 373.795 151.024C373.775 150.485 373.728 149.796 373.566 148.895C373.241 147.093 372.357 144.772 370.633 142.525C368.999 140.339 366.933 138.774 365.304 137.905C364.533 137.502 363.851 137.159 363.374 137.091C362.896 137.022 362.657 136.987 362.657 136.987Z" fill="#CBF7E3"/>
<path d="M360.381 140.266C360.319 140.354 361.39 140.704 362.87 141.6C364.349 142.496 366.264 144.088 367.961 146.185C369.595 148.371 370.541 150.603 370.928 152.316C371.314 154.029 371.442 155.169 371.504 155.08C371.504 155.08 371.538 154.841 371.519 154.302C371.499 153.763 371.452 153.074 371.289 152.173C370.964 150.372 370.08 148.051 368.357 145.803C366.722 143.618 364.657 142.052 363.027 141.184C362.257 140.78 361.575 140.438 361.097 140.369C360.708 140.362 360.381 140.266 360.381 140.266Z" fill="#CBF7E3"/>
<path d="M357.873 143.121C357.812 143.21 358.882 143.559 360.362 144.455C361.841 145.351 363.757 146.943 365.453 149.04C367.088 151.226 368.033 153.458 368.42 155.172C368.806 156.885 368.935 158.024 368.996 157.936C368.996 157.936 369.031 157.697 369.011 157.158C368.991 156.619 368.944 155.93 368.782 155.029C368.456 153.227 367.572 150.906 365.849 148.659C364.214 146.473 362.149 144.908 360.519 144.039C359.749 143.636 359.067 143.293 358.589 143.225C358.112 143.156 357.873 143.121 357.873 143.121Z" fill="#CBF7E3"/>
<path d="M355.154 146.092C355.092 146.181 356.163 146.53 357.642 147.426C359.122 148.322 361.037 149.915 362.733 152.012C364.368 154.197 365.314 156.43 365.7 158.143C366.087 159.856 366.215 160.995 366.277 160.907C366.277 160.907 366.311 160.668 366.291 160.129C366.272 159.59 366.225 158.901 366.062 158C365.737 156.198 364.853 153.877 363.13 151.63C361.495 149.444 359.43 147.879 357.8 147.01C357.029 146.607 356.348 146.265 355.87 146.196C355.392 146.127 355.154 146.092 355.154 146.092Z" fill="#CBF7E3"/>
<path d="M351.861 149.322C351.799 149.41 352.959 149.821 354.615 150.84C355.475 151.305 356.299 152.009 357.301 152.836C358.242 153.752 359.182 154.667 360.088 155.822C360.994 156.976 361.75 158.158 362.328 159.216C362.845 160.363 363.335 161.36 363.587 162.322C364.151 164.158 364.217 165.386 364.367 165.359C364.367 165.359 364.463 165.032 364.443 164.493C364.478 164.254 364.335 163.892 364.342 163.504C364.35 163.115 364.268 162.664 364.037 162.241C363.786 161.278 363.357 160.193 362.84 159.046C362.235 157.838 361.479 156.656 360.573 155.502C359.667 154.347 358.638 153.37 357.636 152.543C356.634 151.716 355.659 151.04 354.8 150.574C354.357 150.267 353.941 150.109 353.613 150.013C353.197 149.856 352.932 149.671 352.693 149.637C352.25 149.329 351.922 149.233 351.861 149.322Z" fill="#CBF7E3"/>
<path d="M349.981 152.219C349.919 152.308 351.079 152.719 352.674 153.826C353.471 154.38 354.296 155.084 355.298 155.911C356.238 156.826 357.117 157.831 358.023 158.985C358.929 160.139 359.623 161.409 360.202 162.468C360.719 163.615 361.148 164.7 361.46 165.574C362.024 167.41 362.091 168.638 362.241 168.611C362.241 168.611 362.337 168.284 362.317 167.745C362.352 167.506 362.209 167.144 362.216 166.755C362.223 166.366 362.142 165.916 361.972 165.404C361.721 164.442 361.293 163.356 360.837 162.12C360.231 160.912 359.537 159.642 358.631 158.488C357.725 157.333 356.758 156.268 355.817 155.352C354.815 154.525 353.902 153.76 353.043 153.294C352.6 152.987 352.184 152.829 351.918 152.645C351.502 152.487 351.236 152.303 350.997 152.268C350.308 152.315 349.981 152.219 349.981 152.219Z" fill="#CBF7E3"/>
<path d="M369.66 171.924C369.687 172.074 370.834 171.557 372.786 171.205C374.738 170.853 377.522 170.816 380.407 171.768C383.292 172.72 385.596 174.32 387.007 175.694C388.417 177.067 389.085 178.187 389.146 178.098C389.146 178.098 389.092 177.798 388.772 177.313C388.452 176.828 388.016 176.132 387.342 175.401C385.992 173.939 383.723 172.1 380.688 171.175C377.653 170.25 374.807 170.375 372.794 170.816C371.831 171.067 371.019 171.291 370.507 171.461C369.934 171.719 369.572 171.862 369.66 171.924Z" fill="#CBF7E3"/>
<path d="M372.156 168.14C372.183 168.291 373.33 167.774 375.282 167.421C377.233 167.069 380.017 167.032 382.902 167.985C385.787 168.937 388.091 170.537 389.502 171.91C390.913 173.284 391.58 174.403 391.641 174.315C391.641 174.315 391.587 174.014 391.267 173.53C390.947 173.045 390.511 172.348 389.837 171.617C388.488 170.155 386.218 168.317 383.183 167.391C380.148 166.466 377.302 166.592 375.289 167.033C374.327 167.284 373.514 167.508 373.002 167.678C372.429 167.936 372.156 168.14 372.156 168.14Z" fill="#CBF7E3"/>
<path d="M374.651 164.357C374.678 164.507 375.825 163.99 377.777 163.638C379.729 163.286 382.513 163.249 385.398 164.201C388.283 165.154 390.587 166.753 391.997 168.127C393.408 169.5 394.075 170.62 394.137 170.531C394.137 170.531 394.083 170.231 393.763 169.746C393.442 169.261 393.007 168.565 392.332 167.834C390.983 166.372 388.713 164.533 385.678 163.608C382.643 162.683 379.798 162.808 377.784 163.249C376.822 163.5 376.01 163.724 375.498 163.894C374.924 164.153 374.713 164.268 374.651 164.357Z" fill="#CBF7E3"/>
<path d="M377.297 160.547C377.324 160.697 378.471 160.18 380.422 159.828C382.374 159.476 385.158 159.439 388.043 160.391C390.928 161.343 393.232 162.943 394.643 164.316C396.054 165.69 396.721 166.81 396.782 166.721C396.782 166.721 396.728 166.421 396.408 165.936C396.088 165.451 395.652 164.754 394.978 164.023C393.629 162.561 391.359 160.723 388.324 159.798C385.289 158.872 382.443 158.998 380.43 159.439C379.467 159.69 378.655 159.914 378.143 160.084C377.508 160.431 377.297 160.547 377.297 160.547Z" fill="#CBF7E3"/>
<path d="M379.792 156.763C379.819 156.913 380.966 156.396 382.918 156.044C384.87 155.692 387.654 155.655 390.539 156.607C393.424 157.56 395.728 159.16 397.139 160.533C398.549 161.906 399.216 163.026 399.278 162.938C399.278 162.938 399.224 162.637 398.904 162.152C398.584 161.668 398.148 160.971 397.473 160.24C396.124 158.778 393.854 156.94 390.819 156.014C387.784 155.089 384.939 155.215 382.925 155.655C381.963 155.907 381.151 156.131 380.639 156.3C380.004 156.648 379.792 156.763 379.792 156.763Z" fill="#CBF7E3"/>
<path d="M382.376 153.041C382.403 153.192 383.55 152.675 385.502 152.323C387.454 151.97 390.238 151.933 393.123 152.886C396.008 153.838 398.312 155.438 399.722 156.811C401.133 158.185 401.8 159.304 401.862 159.216C401.862 159.216 401.808 158.916 401.488 158.431C401.167 157.946 400.732 157.249 400.057 156.518C398.708 155.056 396.438 153.218 393.403 152.292C390.368 151.367 387.523 151.493 385.509 151.934C384.547 152.185 383.735 152.409 383.223 152.579C382.649 152.837 382.287 152.98 382.376 153.041Z" fill="#CBF7E3"/>
<path d="M450.211 455.676C450.211 455.784 349.661 456 225.699 456C101.737 456 1.18677 455.892 1.18677 455.676C1.18677 455.46 101.737 455.353 225.699 455.353C349.769 455.46 450.211 455.568 450.211 455.676Z" fill="#263238"/>
<path d="M365.736 258.476H318.481V314.68H365.736V258.476Z" fill="#CBF7E3"/>
<path d="M320.1 254.808H106.376V318.24H320.1V254.808Z" fill="#E8505B"/>
<path d="M367.138 260.094H314.274V254.808H367.138C368.649 254.808 369.836 255.994 369.836 257.505C369.836 258.907 368.649 260.094 367.138 260.094Z" fill="#E8505B"/>
<path d="M367.138 318.24H314.274V312.846H367.138C368.649 312.846 369.836 314.033 369.836 315.543C369.836 316.945 368.649 318.24 367.138 318.24Z" fill="#E8505B"/>
<g opacity="0.4">
<path opacity="0.4" d="M303.27 254.808H278.024V318.24H303.27V254.808Z" fill="#333333"/>
</g>
<g opacity="0.4">
<path opacity="0.4" d="M150.502 254.808H125.256V318.24H150.502V254.808Z" fill="#333333"/>
</g>
<path d="M365.736 267.753C365.736 267.861 355.487 268.077 342.864 268.077C330.241 268.077 319.992 267.969 319.992 267.753C319.992 267.537 330.241 267.429 342.864 267.429C355.487 267.429 365.736 267.537 365.736 267.753Z" fill="#43D190"/>
<path d="M365.736 276.167C365.736 276.275 355.487 276.491 342.864 276.491C330.241 276.491 319.992 276.383 319.992 276.167C319.992 276.06 330.241 275.844 342.864 275.844C355.487 275.844 365.736 276.06 365.736 276.167Z" fill="#43D190"/>
<path d="M365.736 286.524C365.736 286.632 355.487 286.848 342.864 286.848C330.241 286.848 319.992 286.74 319.992 286.524C319.992 286.308 330.241 286.2 342.864 286.2C355.487 286.308 365.736 286.416 365.736 286.524Z" fill="#43D190"/>
<path d="M365.736 296.88C365.736 296.988 355.487 297.204 342.864 297.204C330.241 297.204 319.992 297.096 319.992 296.88C319.992 296.772 330.241 296.556 342.864 296.556C355.487 296.664 365.736 296.772 365.736 296.88Z" fill="#43D190"/>
<path d="M365.736 307.344C365.736 307.452 355.487 307.668 342.864 307.668C330.241 307.668 319.992 307.56 319.992 307.344C319.992 307.128 330.241 307.021 342.864 307.021C355.487 307.021 365.736 307.128 365.736 307.344Z" fill="#43D190"/>
<g opacity="0.2">
<path opacity="0.2" d="M264.43 280.806H168.303V292.241H264.43V280.806Z" fill="#333333"/>
</g>
<path d="M365.304 319.426H317.295V353.731H365.304V319.426Z" fill="#CBF7E3"/>
<path d="M317.726 318.24H113.389V355.026H317.726V318.24Z" fill="#4F4F4F"/>
<path d="M316.324 320.721H367.894C368.541 320.721 369.188 320.182 369.188 319.426C369.188 318.779 368.649 318.132 367.894 318.132H316.324V320.721Z" fill="#4F4F4F"/>
<path d="M316.324 354.918H367.894C368.541 354.918 369.188 354.379 369.188 353.624C369.188 352.976 368.649 352.329 367.894 352.329H316.324V354.918Z" fill="#4F4F4F"/>
<path d="M365.304 325.899C365.304 326.007 354.623 326.223 341.569 326.223C328.407 326.223 317.834 326.115 317.834 325.899C317.834 325.683 328.515 325.575 341.569 325.575C354.623 325.683 365.304 325.791 365.304 325.899Z" fill="#43D190"/>
<path d="M365.304 332.372C365.304 332.48 354.623 332.695 341.569 332.695C328.407 332.695 317.834 332.588 317.834 332.372C317.834 332.264 328.515 332.048 341.569 332.048C354.623 332.156 365.304 332.264 365.304 332.372Z" fill="#43D190"/>
<path d="M365.304 338.952C365.304 339.06 354.623 339.276 341.569 339.276C328.407 339.276 317.834 339.168 317.834 338.952C317.834 338.844 328.515 338.629 341.569 338.629C354.623 338.629 365.304 338.737 365.304 338.952Z" fill="#43D190"/>
<path d="M365.304 345.425C365.304 345.533 354.623 345.749 341.569 345.749C328.407 345.749 317.834 345.641 317.834 345.425C317.834 345.317 328.515 345.101 341.569 345.101C354.623 345.101 365.304 345.209 365.304 345.425Z" fill="#43D190"/>
<path d="M286.115 331.293H145.215V340.894H286.115V331.293Z" fill="#263238"/>
<path d="M372.533 358.155H323.552V451.037H372.533V358.155Z" fill="#E9FAF7"/>
<path d="M323.552 354.918H93.4297V455.568H323.552V354.918Z" fill="#E8505B"/>
<path d="M376.417 455.676H317.295V449.096H376.417C378.251 449.096 379.653 450.606 379.653 452.332C379.653 454.166 378.143 455.676 376.417 455.676Z" fill="#E8505B"/>
<path d="M376.417 361.499H317.295V354.918H376.417C378.251 354.918 379.653 356.429 379.653 358.155C379.653 359.988 378.143 361.499 376.417 361.499Z" fill="#E8505B"/>
<g opacity="0.4">
<path opacity="0.4" d="M274.032 354.918L225.699 455.676H266.48L312.44 354.918H274.032Z" fill="white"/>
</g>
<g opacity="0.4">
<path opacity="0.4" d="M197.648 354.918L149.315 455.676H190.204L236.056 354.918H197.648Z" fill="white"/>
</g>
<path d="M372.533 370.668C372.533 370.776 361.528 370.992 348.042 370.992C334.556 370.992 323.552 370.884 323.552 370.668C323.552 370.561 334.556 370.345 348.042 370.345C361.528 370.345 372.533 370.453 372.533 370.668Z" fill="#CBF7E3"/>
<path d="M372.533 382.535C372.533 382.643 361.528 382.859 348.042 382.859C334.556 382.859 323.552 382.751 323.552 382.535C323.552 382.319 334.556 382.211 348.042 382.211C361.528 382.319 372.533 382.427 372.533 382.535Z" fill="#CBF7E3"/>
<path d="M372.533 394.509C372.533 394.617 361.528 394.833 348.042 394.833C334.556 394.833 323.552 394.725 323.552 394.509C323.552 394.402 334.556 394.186 348.042 394.186C361.528 394.186 372.533 394.294 372.533 394.509Z" fill="#CBF7E3"/>
<path d="M372.533 406.376C372.533 406.484 361.528 406.7 348.042 406.7C334.556 406.7 323.552 406.592 323.552 406.376C323.552 406.16 334.556 406.052 348.042 406.052C361.528 406.052 372.533 406.268 372.533 406.376Z" fill="#CBF7E3"/>
<path d="M372.533 418.35C372.533 418.458 361.528 418.674 348.042 418.674C334.556 418.674 323.552 418.566 323.552 418.35C323.552 418.243 334.556 418.027 348.042 418.027C361.528 418.027 372.533 418.135 372.533 418.35Z" fill="#CBF7E3"/>
<path d="M372.533 430.217C372.533 430.325 361.528 430.541 348.042 430.541C334.556 430.541 323.552 430.433 323.552 430.217C323.552 430.001 334.556 429.893 348.042 429.893C361.528 429.893 372.533 430.001 372.533 430.217Z" fill="#CBF7E3"/>
<path d="M372.533 442.084C372.533 442.192 361.528 442.407 348.042 442.407C334.556 442.407 323.552 442.299 323.552 442.084C323.552 441.976 334.556 441.76 348.042 441.76C361.528 441.868 372.533 441.976 372.533 442.084Z" fill="#CBF7E3"/>
<path d="M343.403 84.3605L328.407 60.3037C328.083 59.7643 327.328 59.7643 327.005 60.3037L312.224 85.7629L343.403 84.3605Z" fill="#E8505B"/>
<g opacity="0.3">
<path opacity="0.3" d="M343.403 84.3605L328.407 60.3037C328.083 59.7643 327.328 59.7643 327.005 60.3037L312.224 85.7629L343.403 84.3605Z" fill="#333333"/>
</g>
<path d="M328.407 61.4902L342.433 84.2525L338.872 83.7131L315.892 80.1531L324.415 62.1375L328.407 61.4902Z" fill="#CBF7E3"/>
<path d="M329.81 106.368L343.296 84.3605L308.232 77.8878C307.046 77.672 305.967 78.2114 305.319 79.1823L285.576 112.625C284.929 113.703 285.576 114.998 286.763 115.214L319.668 121.039L329.81 106.368Z" fill="#E8505B"/>
<path d="M320.531 62.7849L339.951 83.8211L311.685 78.5351L320.531 62.7849Z" fill="#CBF7E3"/>
<path d="M311.685 78.5351C311.685 78.5351 311.685 78.4273 311.792 78.2115C311.9 77.9958 312.008 77.6721 312.224 77.3485C312.656 76.5933 313.195 75.5146 313.95 74.1121C315.461 71.3073 317.618 67.3158 320.208 62.6771L320.316 62.3535L320.531 62.5692C324.199 66.5607 328.515 71.1994 333.154 76.2697C335.528 78.8588 337.793 81.34 339.951 83.6054L339.519 83.929C335.096 77.6721 331.212 72.2782 328.515 68.2867C327.22 66.3449 326.141 64.8346 325.386 63.7559C325.063 63.2165 324.739 62.8928 324.523 62.5692C324.307 62.2456 324.199 62.1377 324.307 62.1377C324.307 62.1377 324.415 62.2456 324.631 62.5692C324.847 62.8928 325.17 63.2165 325.494 63.7559C326.249 64.8346 327.436 66.3449 328.839 68.1789C331.644 72.0625 335.528 77.4564 340.059 83.7133L339.627 84.0369C337.469 81.7715 335.204 79.2903 332.83 76.7012C328.191 71.631 323.876 66.9922 320.208 63.0007H320.639C317.942 67.6395 315.784 71.5231 314.166 74.3279C313.411 75.6224 312.763 76.7012 312.332 77.4564C312.116 77.78 312.008 78.1036 311.792 78.3194C311.792 78.5351 311.792 78.5351 311.685 78.5351Z" fill="#263238"/>
<g opacity="0.3">
<path opacity="0.3" d="M312.116 87.7046C311.792 88.1361 300.356 107.338 300.356 107.338L319.021 110.79L331.428 90.9409L312.116 87.7046Z" fill="white"/>
</g>
<path d="M171.324 414.035L181.573 400.659L182.113 400.011L199.59 413.064L183.407 430.864L184.055 448.88C193.117 451.253 194.412 455.784 194.412 455.784H175.64L158.594 422.773L171.324 414.035Z" fill="#4F4F4F"/>
<path d="M158.594 422.773L175.64 455.676H194.412C193.98 454.597 193.225 453.734 192.254 452.871L176.934 452.008L161.183 420.939L158.594 422.773Z" fill="#CBF7E3"/>
<path d="M183.947 440.465C183.839 440.681 182.76 440.034 181.25 440.034C179.847 440.034 178.768 440.681 178.552 440.465C178.337 440.358 179.416 439.171 181.25 439.171C183.084 439.279 184.163 440.358 183.947 440.465Z" fill="#263238"/>
<path d="M183.623 436.043C183.407 436.15 182.652 435.072 181.142 434.748C179.631 434.424 178.445 435.18 178.337 434.964C178.229 434.856 178.445 434.532 178.984 434.316C179.524 433.993 180.387 433.777 181.25 433.993C182.221 434.209 182.868 434.748 183.3 435.179C183.623 435.611 183.731 435.935 183.623 436.043Z" fill="#263238"/>
<path d="M183.731 430.325C183.515 430.433 182.868 429.354 181.573 428.923C180.279 428.491 179.092 428.923 178.984 428.707C178.984 428.599 179.2 428.383 179.739 428.167C180.279 427.952 181.034 427.844 181.897 428.167C182.76 428.491 183.3 429.03 183.623 429.462C183.839 429.893 183.839 430.217 183.731 430.325Z" fill="#263238"/>
<path d="M188.802 425.794C188.586 425.902 188.047 424.823 186.86 424.068C185.673 423.313 184.486 423.205 184.486 422.989C184.379 422.773 185.889 422.45 187.291 423.421C188.802 424.284 189.018 425.794 188.802 425.794Z" fill="#263238"/>
<path d="M191.283 422.018C191.175 422.126 190.528 421.371 189.665 420.077C189.125 419.321 188.586 418.566 188.047 417.811C187.723 417.38 187.399 416.948 187.183 416.301C187.076 415.977 187.076 415.546 187.291 415.114C187.507 414.683 188.047 414.467 188.478 414.575C189.341 414.683 189.773 415.114 190.204 415.438C190.636 415.869 191.067 416.301 191.391 416.732C192.038 417.703 192.254 418.674 192.362 419.429C192.578 421.048 192.038 422.018 191.93 422.018C191.823 422.018 192.146 421.048 191.823 419.537C191.715 418.782 191.391 417.919 190.744 417.164C190.42 416.732 190.096 416.409 189.665 416.085C189.233 415.762 188.802 415.438 188.37 415.33C188.154 415.33 188.047 415.33 188.047 415.546C187.939 415.654 187.939 415.869 188.047 416.085C188.154 416.517 188.478 416.948 188.802 417.38C189.341 418.135 189.773 418.998 190.204 419.753C190.959 421.048 191.391 421.911 191.283 422.018Z" fill="#263238"/>
<path d="M191.93 422.558C191.822 422.558 191.93 421.587 192.901 420.4C193.872 419.321 196.03 418.243 198.511 419.429C198.727 419.537 198.835 419.861 198.835 420.077C198.835 420.292 198.727 420.508 198.619 420.724C198.404 421.048 198.188 421.155 197.972 421.263C197.541 421.587 197.109 421.803 196.677 422.018C195.814 422.45 194.951 422.666 194.196 422.666C192.686 422.774 191.823 422.558 191.823 422.45C191.823 422.342 192.686 422.342 194.088 422.126C194.735 422.018 195.491 421.695 196.354 421.371C196.785 421.155 197.109 420.94 197.541 420.616C197.756 420.508 197.972 420.292 198.08 420.184C198.188 419.969 198.188 420.077 198.08 419.969C197.972 419.861 197.756 419.861 197.541 419.753C197.325 419.645 197.109 419.645 196.893 419.645C196.462 419.645 196.03 419.645 195.599 419.753C194.735 419.969 194.088 420.292 193.549 420.832C192.362 421.695 192.038 422.558 191.93 422.558Z" fill="#263238"/>
<path d="M173.59 422.126C173.59 423.313 172.619 424.392 171.324 424.392C170.137 424.392 169.059 423.421 169.059 422.126C169.059 420.94 170.03 419.861 171.324 419.861C172.619 419.969 173.59 420.94 173.59 422.126Z" fill="#CBF7E3"/>
<g opacity="0.3">
<path opacity="0.3" d="M198.08 414.683L194.412 418.674L179.308 403.679L181.358 400.874L198.08 414.683Z" fill="#333333"/>
</g>
<path d="M244.903 420.832L242.961 443.702C242.961 443.702 265.509 451.361 265.617 455.676L221.168 455.461L222.678 419.753L244.903 420.832Z" fill="#4F4F4F"/>
<path d="M229.367 441.113C228.504 441.328 227.857 442.191 227.965 443.162C228.073 444.133 229.044 444.673 229.907 444.565C230.77 444.349 231.633 443.27 231.309 442.407C231.093 441.544 229.907 440.789 229.044 441.221" fill="#CBF7E3"/>
<path d="M221.168 455.353L221.276 451.793L263.351 452.764C263.351 452.764 265.617 454.598 265.617 455.568L221.168 455.353Z" fill="#CBF7E3"/>
<path d="M243.716 443.486C243.716 443.702 242.637 443.702 241.558 444.349C240.48 444.996 239.832 445.859 239.616 445.752C239.401 445.752 239.832 444.457 241.127 443.702C242.422 442.947 243.716 443.27 243.716 443.486Z" fill="#263238"/>
<path d="M248.247 445.644C248.247 445.859 247.276 446.183 246.521 447.046C245.766 447.909 245.442 448.88 245.226 448.88C245.011 448.88 244.903 447.585 245.874 446.507C246.953 445.428 248.247 445.428 248.247 445.644Z" fill="#263238"/>
<path d="M250.621 451.361C250.405 451.361 250.189 450.282 250.837 449.096C251.484 447.909 252.455 447.478 252.563 447.693C252.671 447.909 252.023 448.448 251.484 449.419C250.944 450.39 250.837 451.361 250.621 451.361Z" fill="#263238"/>
<path d="M243.5 438.2C243.392 438.416 242.421 438.092 241.235 438.092C240.048 438.092 239.077 438.416 238.969 438.308C238.861 438.092 239.832 437.337 241.235 437.337C242.637 437.337 243.608 438.092 243.5 438.2Z" fill="#263238"/>
<path d="M243.824 433.561C243.824 433.669 242.961 433.777 241.558 433.453C240.911 433.346 240.048 433.022 239.293 432.59C238.861 432.375 238.43 432.159 237.998 431.835C237.782 431.727 237.567 431.512 237.351 431.296C237.135 431.08 237.027 430.433 237.351 430.109C237.567 429.786 237.998 429.678 238.322 429.678C238.645 429.678 238.861 429.786 239.185 429.786C239.724 429.893 240.156 430.109 240.587 430.325C241.45 430.757 242.098 431.296 242.529 431.727C243.5 432.698 243.824 433.561 243.716 433.561C243.608 433.669 243.177 432.914 242.098 432.051C241.558 431.62 240.911 431.188 240.156 430.864C239.724 430.649 239.293 430.541 238.861 430.433C238.43 430.325 237.998 430.217 237.89 430.433C237.89 430.541 237.782 430.541 237.89 430.649C237.998 430.757 238.214 430.864 238.322 431.08C238.753 431.404 239.077 431.62 239.508 431.835C240.264 432.267 241.019 432.59 241.666 432.806C243.069 433.346 243.824 433.453 243.824 433.561Z" fill="#263238"/>
<path d="M243.5 433.885C243.393 433.885 243.069 433.13 243.069 431.727C243.069 431.08 243.177 430.217 243.5 429.354C243.608 428.923 243.824 428.491 244.148 428.059C244.471 427.628 244.795 427.089 245.658 426.981C246.09 426.981 246.413 427.304 246.521 427.628C246.629 427.952 246.629 428.167 246.737 428.491C246.845 429.03 246.737 429.57 246.629 430.001C246.413 430.972 245.982 431.727 245.55 432.267C244.579 433.346 243.716 433.561 243.716 433.561C243.608 433.453 244.471 433.022 245.119 431.943C245.442 431.404 245.766 430.756 245.874 429.893C245.982 429.462 245.982 429.03 245.874 428.599C245.874 428.167 245.658 427.736 245.442 427.736C245.227 427.736 244.795 428.06 244.579 428.383C244.363 428.815 244.148 429.138 243.932 429.57C243.608 430.325 243.5 431.08 243.393 431.727C243.5 433.022 243.716 433.885 243.5 433.885Z" fill="#263238"/>
<path d="M334.988 113.595C335.42 112.301 335.312 110.898 334.881 109.712C333.046 105.397 328.731 95.6877 327.221 96.0113C325.818 96.2271 324.847 98.924 326.358 101.837L321.287 97.5216C320.208 96.6586 318.698 97.5216 318.913 98.8161C319.021 99.3555 319.237 100.003 319.561 100.758C321.179 104.102 325.494 107.231 325.494 107.231H316.648C316.648 107.231 315.029 109.496 318.05 111.114C318.698 111.438 319.453 111.654 320.208 111.761L324.739 112.193C324.739 112.193 316.432 121.363 316.216 122.226C315.569 124.167 315.461 126.433 315.461 126.433L299.602 144.125L303.809 170.986L332.507 121.363L334.988 113.595Z" fill="#FFBE9D"/>
<path d="M332.615 109.496C332.507 109.496 332.291 109.172 331.644 108.633C330.997 108.202 330.026 107.662 328.839 107.446C327.652 107.231 326.573 107.231 325.71 107.231C324.847 107.231 324.416 107.231 324.416 107.123C324.416 107.015 324.955 106.907 325.71 106.799C326.573 106.691 327.652 106.583 328.947 106.799C330.241 107.015 331.32 107.662 331.86 108.202C332.507 108.957 332.723 109.496 332.615 109.496Z" fill="#EC9B71"/>
<path d="M332.831 106.799C332.723 106.907 331.105 105.828 329.271 104.318C327.329 102.808 325.926 101.513 326.034 101.405C326.142 101.297 327.76 102.376 329.594 103.886C331.428 105.397 332.939 106.691 332.831 106.799Z" fill="#EC9B71"/>
<path d="M254.613 239.057C254.828 239.057 255.691 291.918 256.015 315.759C256.123 323.31 254.181 330.646 250.405 337.118L198.835 427.844L169.166 403.14L217.068 322.123L199.375 236.684L234.33 206.586L254.613 239.057Z" fill="#263238"/>
<path d="M279.642 228.27C279.534 231.29 251.592 427.304 251.592 427.304L217.068 424.823L229.799 226.975L279.642 228.27Z" fill="#263238"/>
<path d="M250.729 241.97C250.729 241.97 250.729 242.186 250.837 242.51C250.837 242.833 250.945 243.373 250.945 244.02C251.052 245.422 251.268 247.364 251.484 249.845C251.916 254.916 252.455 262.251 253.21 271.205C253.857 280.267 254.721 291.055 255.584 302.921C255.799 305.942 256.015 308.962 256.231 312.091C256.339 313.709 256.447 315.219 256.447 316.838C256.447 318.456 256.231 320.074 256.015 321.692C255.476 324.928 254.505 328.165 252.994 331.185C252.239 332.696 251.376 334.206 250.621 335.716C249.758 337.226 249.003 338.737 248.139 340.247C234.654 364.412 222.355 386.203 213.508 402.061C209.084 409.936 205.416 416.301 202.935 420.724C201.64 422.882 200.669 424.608 200.022 425.794C199.698 426.334 199.483 426.765 199.267 427.089C199.051 427.412 198.943 427.52 198.943 427.52C198.943 427.52 199.051 427.304 199.159 427.089C199.375 426.765 199.59 426.334 199.914 425.794C200.561 424.608 201.532 422.882 202.719 420.616C205.201 416.193 208.761 409.72 213.076 401.845C221.923 385.987 234.114 364.088 247.492 339.923C248.355 338.413 249.218 336.903 249.974 335.392C250.837 333.882 251.7 332.48 252.347 330.969C253.75 327.949 254.721 324.82 255.26 321.584C255.584 319.966 255.692 318.348 255.692 316.838C255.799 315.219 255.584 313.709 255.584 312.091C255.368 308.962 255.152 305.942 255.044 302.921C254.181 290.947 253.426 280.159 252.779 271.097C252.131 262.036 251.592 254.808 251.268 249.63C251.052 247.148 250.945 245.207 250.837 243.804C250.837 243.157 250.729 242.617 250.729 242.294C250.729 242.186 250.729 241.97 250.729 241.97Z" fill="#4F4F4F"/>
<path d="M227.101 334.637C227.101 334.637 226.886 334.637 226.454 334.53C226.023 334.422 225.375 334.206 224.62 333.882C223.11 333.235 221.275 331.833 219.765 329.783C218.255 327.733 217.499 325.576 217.284 323.957C217.176 323.202 217.068 322.447 217.176 322.016C217.176 321.584 217.176 321.26 217.284 321.26C217.392 321.26 217.392 322.231 217.715 323.85C218.039 325.36 218.794 327.517 220.305 329.459C221.707 331.401 223.541 332.696 224.944 333.451C226.238 334.314 227.209 334.53 227.101 334.637Z" fill="#4F4F4F"/>
<path d="M231.093 328.812C231.093 328.92 230.122 329.028 228.612 328.812C227.101 328.596 224.944 328.057 222.894 326.87C220.844 325.683 219.226 324.065 218.363 322.879C217.392 321.584 217.068 320.721 217.176 320.721C217.284 320.721 217.715 321.476 218.686 322.663C219.657 323.849 221.168 325.252 223.217 326.438C225.267 327.625 227.209 328.272 228.72 328.488C230.122 328.704 231.093 328.704 231.093 328.812Z" fill="#4F4F4F"/>
<path d="M206.711 244.775C206.711 244.775 206.927 245.099 207.574 245.314C208.113 245.53 209.192 245.638 210.163 245.099C211.242 244.559 212.321 243.696 213.616 242.725C214.802 241.754 216.205 240.568 217.5 239.381C220.197 236.9 222.355 234.311 223.865 232.477C225.375 230.643 226.238 229.348 226.238 229.456C226.238 229.456 226.131 229.78 225.699 230.427C225.375 230.967 224.836 231.83 224.081 232.8C222.678 234.742 220.52 237.331 217.823 239.92C216.529 241.215 215.126 242.294 213.831 243.265C212.537 244.235 211.458 245.099 210.271 245.638C209.084 246.177 208.006 245.962 207.358 245.638C206.819 245.206 206.711 244.775 206.711 244.775Z" fill="#4F4F4F"/>
<path d="M225.915 243.265C226.023 243.265 225.483 244.451 224.512 246.285C223.541 248.119 222.031 250.6 219.549 252.65C217.068 254.7 214.155 255.563 211.997 255.563C210.918 255.563 210.055 255.347 209.516 255.239C208.976 255.023 208.653 254.915 208.653 254.915C208.653 254.808 209.84 255.347 211.889 255.239C213.939 255.131 216.636 254.268 219.01 252.326C221.383 250.385 222.894 247.903 223.973 246.177C225.267 244.343 225.915 243.157 225.915 243.265Z" fill="#4F4F4F"/>
<path d="M279.642 228.27C279.642 228.27 252.994 240.675 243.392 236.468C233.79 232.153 227.533 222.336 220.628 224.602C213.724 226.867 203.151 228.917 199.59 238.734C199.59 238.734 197.325 236.684 197.325 232.585C197.325 228.701 200.561 223.523 200.561 223.523L196.246 178.969L196.462 104.102C196.462 104.102 203.906 92.9907 223.973 93.7458L251.7 97.7373C251.7 97.7373 265.833 102.052 269.825 109.28C273.816 116.508 272.09 168.074 272.09 168.074C272.09 168.074 280.829 218.129 280.829 222.013C280.937 225.788 279.642 228.27 279.642 228.27Z" fill="#E8505B"/>
<path d="M295.394 143.154L283.958 153.402L269.825 109.28L257.957 135.818L262.704 178.969C263.459 185.874 268.53 191.591 275.219 193.209C280.505 194.504 286.008 193.101 290.107 189.541L302.191 179.185C303.917 177.675 304.78 175.409 304.348 173.144L299.817 144.772C299.601 142.615 297.012 141.752 295.394 143.154Z" fill="#E8505B"/>
<path d="M208.761 131.179C208.761 132.15 203.474 180.372 203.474 180.372L226.023 229.133C223.757 233.771 219.657 237.871 215.018 241.97C215.018 241.97 209.3 236.684 208.869 225.465C208.869 225.465 183.299 195.367 180.602 187.492C178.013 179.617 185.241 125.57 185.241 125.57L208.761 131.179Z" fill="#FFBE9D"/>
<path d="M266.049 139.594C266.049 139.594 265.941 139.918 265.617 140.565C265.293 141.212 264.754 142.075 264.215 143.154C263.567 144.233 262.92 145.527 261.949 146.93C261.409 147.577 260.87 148.224 260.007 148.764C259.252 149.303 258.281 149.519 257.202 149.627C255.26 149.735 253.426 148.979 252.023 148.008C250.621 147.038 249.65 145.851 249.003 144.772C248.247 143.801 247.816 142.83 247.492 142.291C247.168 141.644 246.953 141.32 247.061 141.32C247.168 141.212 247.924 142.615 249.434 144.556C250.189 145.527 251.16 146.606 252.455 147.577C253.75 148.44 255.476 149.195 257.31 149.087C258.173 149.087 259.036 148.764 259.791 148.332C260.546 147.901 261.086 147.253 261.625 146.714C262.596 145.419 263.351 144.125 263.999 143.046C264.646 141.967 265.186 141.104 265.617 140.565C265.725 139.918 266.049 139.594 266.049 139.594Z" fill="#263238"/>
<path d="M282.663 179.617C282.663 179.617 282.447 179.293 282.232 178.646C282.016 177.998 281.692 177.028 281.368 175.841C280.721 173.468 280.29 170.015 280.505 166.24C280.721 162.464 281.584 159.12 282.339 156.746C282.771 155.56 283.202 154.697 283.526 154.05C283.85 153.402 284.066 153.079 284.066 153.079C284.173 153.079 283.526 154.481 282.771 156.854C282.016 159.228 281.261 162.464 281.045 166.24C280.829 169.908 281.261 173.36 281.8 175.733C282.232 178.106 282.771 179.509 282.663 179.617Z" fill="#263238"/>
<path d="M288.705 170.771C288.597 170.771 288.057 169.908 287.302 168.505C286.547 166.995 285.684 164.837 285.037 162.356C284.389 159.875 284.066 157.61 283.958 155.883C283.85 154.265 283.958 153.187 284.066 153.187C284.174 153.187 284.174 154.265 284.389 155.883C284.605 157.502 284.929 159.767 285.576 162.248C286.223 164.729 287.087 166.779 287.734 168.289C288.273 169.8 288.705 170.663 288.705 170.771Z" fill="#263238"/>
<path d="M265.293 148.656C265.293 148.656 265.401 148.764 265.509 149.087C265.617 149.411 265.833 149.842 266.049 150.49C266.48 151.784 266.912 153.726 266.804 156.099C266.696 158.473 265.833 161.385 263.675 163.866C262.596 165.053 261.194 166.132 259.575 166.779C257.957 167.426 256.015 167.642 254.181 167.211C252.347 166.887 250.621 165.916 249.434 164.622C248.247 163.327 247.492 161.709 247.168 160.199C246.737 158.688 246.629 157.178 246.521 155.776C246.413 154.373 246.305 153.079 246.197 151.892C245.982 149.627 245.874 147.685 245.766 146.282C245.766 145.635 245.658 145.204 245.658 144.772C245.658 144.448 245.658 144.233 245.658 144.233C245.658 144.233 245.766 144.448 245.766 144.772C245.766 145.204 245.874 145.635 245.982 146.282C246.09 147.685 246.305 149.627 246.521 151.892C246.629 153.079 246.737 154.373 246.845 155.776C246.953 157.178 247.168 158.688 247.492 160.091C247.924 161.601 248.571 163.111 249.65 164.298C250.729 165.485 252.347 166.348 254.073 166.671C255.799 166.995 257.633 166.887 259.144 166.24C260.654 165.593 262.057 164.622 263.028 163.543C265.078 161.277 266.049 158.473 266.156 156.099C266.372 153.726 265.941 151.892 265.617 150.597C265.509 149.303 265.185 148.656 265.293 148.656Z" fill="#263238"/>
<g opacity="0.2">
<g opacity="0.2">
<path opacity="0.2" d="M210.703 196.014C211.35 191.699 211.674 189.865 213.292 185.766C214.802 181.666 216.852 177.567 216.96 173.252C216.96 170.447 216.205 167.75 215.557 165.161C212.968 155.668 210.271 146.282 207.682 136.789C207.358 144.125 207.142 151.46 206.819 158.796C206.711 160.63 206.711 162.464 207.682 163.974C208.868 165.916 211.242 166.671 212.537 168.505C213.508 169.908 213.831 171.742 213.292 173.36C212.752 174.978 211.242 175.409 209.624 175.733C208.545 176.057 208.437 176.057 207.358 176.165C206.171 176.38 204.553 176.057 204.121 177.135C202.827 179.724 204.229 181.235 204.769 182.421C207.034 188.031 210.703 196.014 210.703 196.014Z" fill="#333333"/>
</g>
</g>
<path d="M201.101 100.219C201.101 100.219 177.905 111.977 174.668 174.654C174.453 178.969 178.337 182.314 182.544 181.558C192.038 179.725 206.495 176.92 206.387 176.596C206.279 176.057 211.782 121.47 211.782 121.47L201.101 100.219Z" fill="#E8505B"/>
<path d="M211.35 120.5C211.35 120.5 211.35 120.823 211.35 121.363C211.35 121.902 211.35 122.765 211.35 123.736C211.35 125.786 211.134 128.806 210.918 132.582C210.703 136.25 210.271 140.673 209.732 145.635C209.408 148.116 209.192 150.705 208.869 153.294C208.761 154.589 208.545 155.991 208.329 157.394C208.221 158.796 207.79 160.199 207.574 161.493C207.466 162.14 207.466 162.896 207.574 163.543C207.682 164.19 208.113 164.729 208.545 165.269C209.408 166.24 210.703 166.779 211.782 167.75C212.86 168.721 213.292 170.123 213.508 171.418C213.616 172.065 213.616 172.712 213.616 173.36C213.508 174.007 213.292 174.654 212.753 175.194C212.213 175.733 211.458 175.841 210.918 175.949C210.379 176.057 209.732 176.165 209.192 176.272C208.006 176.488 206.927 176.704 205.848 176.92C203.69 177.351 201.748 177.783 199.914 178.106C196.354 178.861 193.333 179.509 191.283 179.94C190.744 180.048 190.312 180.156 189.881 180.264C189.665 180.264 189.557 180.372 189.341 180.372H189.233C189.233 180.372 189.125 180.156 189.233 180.264H189.341C189.449 180.264 189.449 180.264 189.557 180.264C190.096 180.156 190.42 180.156 190.42 180.156C190.42 180.156 190.096 180.264 189.665 180.372C189.557 180.372 189.557 180.372 189.449 180.372H189.341C189.341 180.48 189.341 180.264 189.341 180.264H189.449C189.665 180.264 189.773 180.156 189.988 180.156C190.42 180.048 190.852 179.94 191.283 179.832C193.333 179.401 196.246 178.646 199.914 177.891C201.748 177.459 203.69 177.028 205.848 176.596C206.927 176.38 208.006 176.165 209.192 175.949C209.732 175.841 210.379 175.733 210.918 175.625C211.566 175.517 212.105 175.409 212.429 174.978C213.184 174.223 213.184 172.82 213.076 171.634C212.86 170.447 212.429 169.152 211.458 168.289C210.595 167.426 209.192 166.887 208.221 165.808C207.682 165.269 207.358 164.622 207.142 163.866C206.927 163.111 207.035 162.356 207.142 161.601C207.358 160.199 207.79 158.796 207.898 157.502C208.113 156.099 208.221 154.805 208.437 153.402C208.761 150.705 209.084 148.224 209.3 145.743C209.84 140.888 210.271 136.465 210.595 132.69C210.918 129.022 211.026 126.001 211.242 123.844C211.35 122.873 211.35 122.01 211.35 121.47C211.35 120.715 211.35 120.5 211.35 120.5Z" fill="#263238"/>
<path d="M201.748 158.904C201.748 158.904 201.748 159.228 201.64 159.659C201.532 159.875 201.532 160.199 201.316 160.522C201.209 160.846 201.101 161.17 200.777 161.601C200.345 162.356 199.806 163.219 199.051 164.082C198.296 164.945 197.325 165.808 196.138 166.456C194.951 167.103 193.764 167.642 192.686 167.966C191.607 168.29 190.528 168.397 189.665 168.397C189.233 168.397 188.802 168.397 188.478 168.397C188.154 168.397 187.831 168.29 187.615 168.29C187.183 168.182 186.86 168.074 186.86 168.074C186.86 167.966 187.938 168.182 189.665 168.074C190.528 168.074 191.499 167.858 192.578 167.534C193.656 167.211 194.735 166.671 195.922 166.024C197.001 165.377 197.972 164.514 198.727 163.759C199.482 162.896 200.13 162.14 200.561 161.385C201.424 159.875 201.64 158.796 201.748 158.904Z" fill="#263238"/>
<g opacity="0.2">
<g opacity="0.2">
<path opacity="0.2" d="M226.778 214.785C237.566 221.15 250.836 222.66 263.243 220.826C265.293 220.502 267.343 220.071 269.177 219.1C271.011 218.129 272.522 216.403 272.845 214.353C273.169 212.304 272.198 210.038 270.148 209.283C268.206 208.636 266.048 209.715 264.214 210.685C252.563 216.511 238.753 217.913 226.13 214.569" fill="#333333"/>
</g>
</g>
<path d="M277.161 215.756C277.161 215.756 277.053 215.864 276.729 216.079C276.406 216.295 275.974 216.619 275.327 217.05C274.032 217.805 272.198 218.776 269.717 219.747C264.754 221.581 257.31 222.66 249.326 221.581C241.342 220.502 234.438 218.021 229.475 216.295C226.993 215.324 225.052 214.569 223.649 214.03C223.002 213.814 222.462 213.598 222.139 213.383C221.815 213.275 221.599 213.167 221.599 213.167C221.599 213.167 221.815 213.167 222.139 213.275C222.57 213.382 223.11 213.598 223.757 213.814C225.267 214.353 227.209 215.001 229.583 215.972C234.546 217.698 241.45 220.071 249.326 221.15C257.202 222.228 264.538 221.258 269.501 219.532C271.982 218.669 273.924 217.805 275.219 217.05C276.406 216.187 277.053 215.648 277.161 215.756Z" fill="#263238"/>
<g opacity="0.2">
<g opacity="0.2">
<path opacity="0.2" d="M276.514 193.425C279.75 190.189 279.75 184.363 279.103 179.832C278.456 175.302 276.729 170.986 276.082 166.348C275.543 162.033 275.974 157.61 275.758 153.294C275.543 148.979 274.679 144.341 271.767 141.104C270.04 158.58 271.659 176.38 276.514 193.425Z" fill="#333333"/>
</g>
</g>
<g opacity="0.2">
<g opacity="0.2">
<path opacity="0.2" d="M245.874 145.959C245.334 148.871 245.874 151.892 245.658 154.805C245.442 157.717 245.226 160.738 245.658 163.651C246.089 166.563 247.276 169.476 249.542 171.418C251.7 173.36 255.044 174.223 257.741 173.036C260.438 171.849 262.165 168.721 261.841 165.808C259.899 166.779 257.741 167.211 255.583 166.995C253.426 166.779 251.376 165.808 249.865 164.298C247.708 161.925 246.952 158.688 246.737 155.56C246.521 152.324 246.089 149.087 245.874 145.959Z" fill="#333333"/>
</g>
</g>
<path d="M209.84 137.868C209.84 137.868 209.408 137.976 208.653 138.084C207.898 138.192 206.819 138.407 205.416 138.515C202.719 138.839 198.835 139.162 194.736 138.515C190.528 137.868 186.968 136.142 184.918 134.308C183.839 133.445 183.084 132.582 182.652 131.935C182.221 131.287 182.005 130.964 182.005 130.964C182.113 130.856 182.976 132.366 185.134 134.092C187.183 135.818 190.744 137.436 194.736 138.084C198.835 138.731 202.611 138.407 205.308 138.192C206.603 138.084 207.682 137.976 208.545 137.976C209.408 137.868 209.84 137.868 209.84 137.868Z" fill="#E9FAF7"/>
<path d="M208.329 146.174C208.329 146.174 207.898 146.39 207.142 146.606C206.819 146.714 206.279 146.822 205.74 146.93C205.201 147.037 204.553 147.145 203.906 147.253C202.503 147.469 200.885 147.577 199.051 147.577C197.217 147.577 195.167 147.361 193.117 146.93C191.067 146.498 189.125 145.851 187.399 145.096C185.673 144.34 184.27 143.585 183.084 142.722C182.436 142.399 182.005 141.967 181.573 141.644C181.142 141.32 180.71 140.996 180.494 140.78C179.955 140.241 179.631 139.917 179.631 139.917C179.739 139.81 181.034 140.996 183.407 142.399C184.594 143.154 186.105 143.909 187.723 144.556C189.449 145.203 191.283 145.851 193.333 146.282C195.383 146.714 197.433 146.93 199.267 147.037C201.101 147.037 202.719 147.037 204.122 146.822C206.603 146.606 208.329 146.066 208.329 146.174Z" fill="#E9FAF7"/>
<path d="M245.011 144.772C245.011 144.88 237.135 144.88 227.533 144.556C217.931 144.34 210.055 144.017 210.055 143.801C210.055 143.693 217.931 143.693 227.533 144.017C237.135 144.34 245.011 144.664 245.011 144.772Z" fill="#E9FAF7"/>
<path d="M246.089 153.51C246.089 153.51 245.55 153.726 244.687 153.942C243.716 154.158 242.421 154.481 240.695 154.805C237.351 155.452 232.496 156.099 227.209 156.207C221.923 156.207 217.176 155.776 213.723 155.128C211.997 154.805 210.703 154.589 209.732 154.265C208.761 154.05 208.329 153.834 208.329 153.834C208.329 153.834 208.869 153.834 209.84 154.05C210.81 154.265 212.213 154.481 213.831 154.697C217.284 155.236 222.031 155.668 227.209 155.56C232.496 155.452 237.135 154.913 240.587 154.373C242.313 154.05 243.608 153.834 244.579 153.618C245.55 153.618 246.089 153.51 246.089 153.51Z" fill="#E9FAF7"/>
<path d="M266.372 151.892C266.372 151.892 266.264 152.216 266.049 152.647C265.725 153.187 265.293 153.834 264.43 154.481C262.92 155.776 260.007 156.854 256.986 156.531C253.857 156.207 251.376 154.913 249.65 153.942C247.924 152.971 246.953 152.216 246.953 152.108C246.953 152 248.032 152.647 249.866 153.51C251.592 154.373 254.073 155.56 257.094 155.884C260.007 156.207 262.704 155.236 264.322 154.05C265.725 153.079 266.264 151.892 266.372 151.892Z" fill="#E9FAF7"/>
<path d="M271.227 145.311C271.227 145.419 270.04 145.851 268.422 146.174C266.804 146.498 265.509 146.606 265.509 146.498C265.509 146.39 266.696 145.959 268.314 145.635C269.932 145.311 271.227 145.204 271.227 145.311Z" fill="#E9FAF7"/>
<path d="M281.692 145.635C281.8 145.743 279.642 147.037 276.729 148.116C273.816 149.195 271.335 149.626 271.335 149.411C271.335 149.195 273.708 148.548 276.621 147.577C279.319 146.606 281.584 145.527 281.692 145.635Z" fill="#E9FAF7"/>
<path d="M278.24 135.279C278.24 135.495 276.729 135.71 274.895 136.25C273.061 136.789 271.659 137.328 271.551 137.113C271.443 137.005 272.845 136.25 274.787 135.71C276.621 135.171 278.132 135.171 278.24 135.279Z" fill="#E9FAF7"/>
<path d="M272.306 131.395C272.306 131.395 272.306 131.611 272.306 132.043C272.306 132.474 272.198 133.121 272.198 133.876C272.09 134.632 271.982 135.603 271.982 136.789C271.874 137.868 271.766 139.162 271.766 140.565C271.551 143.37 271.551 146.714 271.443 150.49C271.443 154.265 271.551 158.365 271.874 162.572C272.198 166.887 272.63 170.986 273.061 174.654C273.601 178.322 274.032 181.666 274.571 184.471C274.787 185.874 275.111 187.06 275.327 188.247C275.542 189.326 275.758 190.297 275.974 191.052C276.082 191.807 276.298 192.346 276.406 192.778C276.513 193.209 276.513 193.425 276.513 193.425C276.513 193.425 276.406 193.209 276.298 192.778C276.19 192.346 275.974 191.699 275.758 191.052C275.542 190.297 275.327 189.326 275.111 188.247C274.895 187.168 274.571 185.874 274.248 184.471C273.601 181.666 273.061 178.322 272.522 174.654C271.982 170.986 271.551 166.887 271.335 162.572C271.119 158.257 271.011 154.158 271.011 150.382C271.119 146.606 271.227 143.262 271.443 140.457C271.551 139.055 271.659 137.76 271.766 136.681C271.874 135.602 271.982 134.632 272.09 133.769C272.198 133.013 272.306 132.474 272.306 131.935C272.306 131.611 272.306 131.395 272.306 131.395Z" fill="#263238"/>
<g opacity="0.2">
<g opacity="0.2">
<path opacity="0.2" d="M248.787 144.017C252.023 146.067 256.339 146.39 259.791 144.772C260.223 144.556 260.654 144.34 261.086 144.34C261.517 144.233 262.057 144.448 262.272 144.772C262.596 145.311 262.272 145.959 261.949 146.498C260.33 148.548 257.418 149.303 254.936 148.656C252.455 148.008 250.297 146.174 249.002 144.017" fill="#333333"/>
</g>
</g>
<path d="M228.504 51.8892C227.965 49.408 227.317 46.9268 227.317 44.3377C227.209 41.7487 227.641 39.1596 229.043 37.002C230.446 34.8445 232.712 33.2263 235.301 33.2263C236.919 33.2263 238.43 33.7657 239.94 33.4421C241.774 33.1184 243.069 31.8239 244.687 30.7451C247.061 29.2348 249.974 28.4797 252.779 28.6954C254.289 28.8033 255.799 29.127 256.986 30.0979C258.173 30.9609 259.036 32.4712 258.82 33.9815C260.654 33.6578 262.488 33.4421 264.322 33.6578C266.157 33.8736 267.991 34.6287 269.069 36.0311C270.256 37.4336 270.472 39.699 269.393 41.1014C271.011 40.562 272.953 41.5329 273.601 43.1511C274.248 44.7693 273.709 46.7111 272.522 47.8977C271.335 49.0844 268.746 49.9474 267.02 49.8395C265.293 49.7316 263.351 49.6238 261.841 48.7607" fill="#263238"/>
<path d="M234.546 109.065C241.99 110.791 249.326 105.505 250.081 97.8453C250.513 93.7459 250.837 90.2938 250.944 89.7544C250.944 89.7544 261.302 89.9702 263.136 79.9375C264.97 69.9049 267.343 46.4954 267.343 46.4954C256.555 39.4833 242.853 38.836 231.525 44.7693L229.799 45.6323L224.728 95.2562C224.081 101.729 228.288 107.554 234.546 109.065Z" fill="#FFBE9D"/>
<path d="M251.052 89.6466C251.052 89.6466 244.579 88.9994 238.645 83.6055C238.645 83.6055 240.479 91.3727 250.621 92.2357L251.052 89.6466Z" fill="#EC9B71"/>
<path d="M229.259 56.3123C229.151 56.2044 222.678 53.0759 221.707 59.9801C220.736 66.8843 227.857 66.4528 227.857 66.2371C227.965 66.0213 229.259 56.3123 229.259 56.3123Z" fill="#FFBE9D"/>
<path d="M226.131 63.3244C226.131 63.3244 226.023 63.4323 225.807 63.4323C225.591 63.5402 225.267 63.5402 224.944 63.3244C224.297 63.0008 223.757 61.7063 223.973 60.4117C224.081 59.7645 224.297 59.2251 224.512 58.6857C224.836 58.2542 225.16 57.9305 225.591 57.9305C225.915 57.9305 226.238 58.1463 226.238 58.362C226.346 58.5778 226.238 58.6857 226.238 58.6857C226.238 58.6857 226.454 58.5778 226.346 58.2542C226.346 58.1463 226.238 57.9305 226.131 57.8227C226.023 57.7148 225.699 57.6069 225.483 57.499C224.944 57.499 224.404 57.9305 224.081 58.362C223.757 58.9014 223.433 59.5487 223.433 60.196C223.326 61.5984 223.757 63.0008 224.728 63.4323C225.16 63.6481 225.591 63.5402 225.807 63.4323C226.131 63.5402 226.131 63.3244 226.131 63.3244Z" fill="#EC9B71"/>
<path d="M262.273 61.922C262.165 62.6771 261.41 63.2165 260.654 63.1086C259.899 63.0008 259.252 62.3535 259.36 61.5984C259.468 60.8432 260.223 60.3038 260.978 60.4117C261.841 60.5196 262.381 61.1668 262.273 61.922Z" fill="#263238"/>
<path d="M263.028 60.3038C262.812 60.4117 261.841 59.4408 260.331 59.225C258.82 58.9014 257.526 59.5486 257.418 59.3329C257.31 59.225 257.633 58.9014 258.173 58.6856C258.712 58.362 259.575 58.2541 260.546 58.362C261.517 58.5777 262.273 59.0093 262.704 59.4408C263.028 59.8723 263.136 60.3038 263.028 60.3038Z" fill="#263238"/>
<path d="M247.384 59.225C247.276 59.9801 246.521 60.5195 245.766 60.4116C245.011 60.3037 244.363 59.6565 244.471 58.9013C244.579 58.1462 245.334 57.6068 246.09 57.7147C246.845 57.8226 247.492 58.4698 247.384 59.225Z" fill="#263238"/>
<path d="M247.708 57.9305C247.492 58.0384 246.521 57.0675 245.011 56.8517C243.5 56.5281 242.206 57.1754 242.098 56.9596C241.99 56.8517 242.314 56.5281 242.853 56.3123C243.392 55.9887 244.256 55.8808 245.227 55.9887C246.198 56.2045 246.953 56.636 247.384 57.0675C247.708 57.499 247.816 57.9305 247.708 57.9305Z" fill="#263238"/>
<path d="M251.376 70.4444C251.376 70.3365 252.347 70.3365 253.965 70.4444C254.397 70.4444 254.72 70.4444 254.828 70.2286C254.936 70.0129 254.828 69.4735 254.72 69.042C254.505 68.0711 254.289 66.9923 254.073 65.8056C253.21 61.2748 252.671 57.499 252.779 57.499C252.994 57.499 253.857 61.1669 254.72 65.6978C254.936 66.7765 255.152 67.8553 255.26 68.9341C255.368 69.3656 255.476 70.0129 255.152 70.5523C255.044 70.8759 254.72 70.9838 254.397 70.9838C254.181 70.9838 253.857 70.9838 253.749 70.9838C252.347 70.6601 251.376 70.4444 251.376 70.4444Z" fill="#263238"/>
<path d="M246.629 70.6602C246.845 70.6602 246.629 72.3862 247.816 73.7886C249.002 75.191 250.837 75.4068 250.837 75.6225C250.837 75.7304 250.405 75.8383 249.65 75.7304C248.895 75.6225 247.816 75.191 247.168 74.328C246.413 73.465 246.197 72.3862 246.305 71.7389C246.197 70.9838 246.521 70.6602 246.629 70.6602Z" fill="#263238"/>
<path d="M262.92 57.4989C262.596 57.8225 261.625 57.2832 260.331 56.9595C259.036 56.6359 257.957 56.7438 257.741 56.4201C257.633 56.2044 257.849 55.8807 258.389 55.665C258.928 55.4492 259.791 55.2335 260.654 55.4492C261.517 55.665 262.273 56.0965 262.596 56.528C262.92 56.9595 263.028 57.391 262.92 57.4989Z" fill="#263238"/>
<path d="M246.737 51.997C246.521 52.1048 246.197 51.997 245.658 51.7812C245.119 51.5655 244.579 51.3497 243.824 51.2418C243.069 51.1339 242.421 51.0261 241.882 51.0261C241.343 51.0261 240.911 51.0261 240.803 50.7024C240.695 50.4867 240.911 50.0552 241.558 49.7315C242.206 49.4079 243.177 49.1921 244.255 49.4079C245.334 49.6236 246.09 50.2709 246.521 50.8103C246.845 51.4576 246.953 51.8891 246.737 51.997Z" fill="#263238"/>
<path d="M267.343 49.7317C267.343 49.7317 260.223 50.8104 252.779 46.3874C247.924 43.4747 242.098 41.8566 240.803 42.7196C239.401 43.6905 238.753 48.7608 233.683 49.9474C233.683 49.9474 233.251 59.8722 229.367 59.2249C225.483 58.5776 229.044 43.3669 229.044 43.3669L239.077 39.3754L249.758 38.1887L259.683 38.9439L268.638 42.396L267.343 49.7317Z" fill="#263238"/>
<path d="M47.6859 331.077C39.055 317.916 40.3496 299.253 50.5989 287.387C53.7276 283.719 58.2588 280.482 63.1137 280.914C68.0765 281.346 72.0683 285.553 73.5788 290.299C75.0892 295.046 74.5497 300.224 73.6867 305.079C72.392 311.983 70.3422 318.995 65.5951 324.065C60.8481 329.135 53.8355 334.421 47.6859 331.077Z" fill="#E8505B"/>
<path d="M52.4329 394.186C49.1963 386.634 51.5698 377.141 57.9351 371.963C59.8771 370.345 62.4664 369.158 64.9478 369.805C67.4292 370.453 69.1554 373.042 69.479 375.631C69.8027 378.22 69.0475 380.809 68.1844 383.29C66.8897 386.742 65.1635 390.194 62.2506 392.352C59.4455 394.402 55.3459 396.559 52.4329 394.186Z" fill="#E8505B"/>
<path d="M31.8266 389.763C34.2001 378.112 28.0506 365.275 17.4777 359.773C14.241 358.047 10.1414 357.076 6.90475 358.694C3.56026 360.42 1.94196 364.519 2.15773 368.295C2.37351 372.071 4.20758 375.523 6.25743 378.759C9.06248 383.29 12.5149 387.605 17.2619 389.871C22.0089 392.028 28.3742 393.754 31.8266 389.763Z" fill="#E8505B"/>
<path d="M33.229 358.262C37.3287 344.993 30.424 328.92 18.7722 321.368C15.2119 318.995 10.5728 317.377 6.58101 318.887C2.48131 320.505 0.107806 325.036 -8.1107e-05 329.459C-0.107968 333.882 1.61822 338.089 3.56018 342.081C6.25735 347.582 9.81761 353.084 15.1041 356.321C20.2826 359.449 28.9136 362.577 33.229 358.262Z" fill="#E8505B"/>
<path d="M41.5363 423.097C41.5363 423.097 41.4284 422.881 41.4284 422.45C41.3205 422.018 41.2126 421.371 41.1048 420.616C40.9969 420.184 40.9969 419.753 40.889 419.321C40.7811 418.782 40.6732 418.35 40.5653 417.703C40.3496 416.624 40.1338 415.33 39.7022 413.927C39.4865 413.172 39.3786 412.525 39.1628 411.77C38.947 411.015 38.7313 410.26 38.5155 409.397C38.0839 407.778 37.4366 406.052 36.7893 404.218C35.3868 400.658 33.7685 396.775 31.7186 392.891C29.5609 389.008 27.2953 385.448 25.1375 382.319C23.9508 380.809 22.8719 379.299 21.793 378.004C21.2536 377.357 20.7142 376.71 20.1747 376.17C19.6353 375.631 19.0959 374.984 18.6643 374.552C17.6933 373.473 16.7224 372.61 15.9672 371.747C15.5356 371.316 15.2119 370.992 14.7804 370.668C14.4567 370.345 14.0252 370.021 13.8094 369.805C13.27 369.266 12.7305 368.834 12.4069 368.511C12.0832 368.187 11.9753 368.079 11.9753 368.079C11.9753 368.079 12.1911 368.187 12.5148 368.511C12.9463 368.834 13.3779 369.158 14.0252 369.698C14.3488 369.913 14.6725 370.237 15.1041 370.561C15.4277 370.884 15.8593 371.316 16.2908 371.639C17.1539 372.394 18.1249 373.257 19.0959 374.336C19.6353 374.876 20.1747 375.415 20.7142 375.954C21.2536 376.602 21.793 377.141 22.3325 377.788C23.5192 379.083 24.5981 380.593 25.7848 382.103C28.0505 385.232 30.3161 388.792 32.4738 392.675C34.5237 396.559 36.2499 400.551 37.5445 404.111C38.1918 405.944 38.8391 407.671 39.1628 409.289C39.3786 410.152 39.5943 410.907 39.8101 411.662C40.0259 412.417 40.1338 413.172 40.3496 413.927C40.6732 415.33 40.889 416.624 41.1048 417.811C41.2126 418.35 41.3205 418.89 41.3205 419.429C41.3205 419.969 41.4284 420.4 41.4284 420.724C41.5363 421.479 41.5363 422.126 41.6442 422.558C41.5363 422.773 41.5363 423.097 41.5363 423.097Z" fill="#263238"/>
<path d="M41.2127 425.47C41.2127 425.47 41.2127 425.362 41.2127 425.255C41.2127 425.039 41.2127 424.823 41.3206 424.499C41.4285 423.744 41.4285 422.773 41.6442 421.587C41.7521 420.939 41.7521 420.184 41.86 419.429C41.9679 418.674 41.9679 417.811 41.9679 416.84C42.0758 415.006 42.1837 412.956 42.1837 410.691C42.1837 409.504 42.1837 408.318 42.1837 407.131C42.1837 405.837 42.0758 404.542 41.9679 403.247C41.86 400.551 41.5364 397.638 41.2127 394.725C40.3496 388.684 39.055 382.211 37.113 375.415C35.0632 368.727 32.5818 362.47 29.9925 357.076C28.59 354.379 27.4032 351.79 26.0007 349.416C25.3534 348.23 24.706 347.151 24.0587 346.072C23.4114 344.993 22.7641 344.023 22.1168 343.052C20.93 341.11 19.6354 339.492 18.5565 337.981C18.0171 337.226 17.5855 336.579 17.0461 335.932C16.6145 335.284 16.0751 334.745 15.7514 334.313C14.9962 333.343 14.3489 332.587 13.9174 331.94C13.7016 331.724 13.5937 331.509 13.4858 331.293C13.3779 331.185 13.3779 331.077 13.3779 331.077C13.3779 331.077 13.4858 331.185 13.5937 331.293C13.7016 331.401 13.9174 331.617 14.1331 331.832C14.5647 332.372 15.212 333.127 16.0751 334.098C16.5066 334.637 16.9382 335.177 17.4776 335.716C18.0171 336.363 18.4486 337.01 18.988 337.766C20.0669 339.276 21.3615 340.894 22.5483 342.836C23.1956 343.807 23.8429 344.778 24.4903 345.856C25.1376 346.935 25.7849 348.014 26.5401 349.201C27.9426 351.466 29.2373 354.163 30.6398 356.86C33.2291 362.362 35.8184 368.619 37.7603 375.307C39.7023 382.103 40.9969 388.684 41.7521 394.725C42.0758 397.746 42.3995 400.658 42.5073 403.355C42.5073 404.758 42.6152 406.052 42.7231 407.239C42.7231 408.533 42.7231 409.72 42.7231 410.799C42.7231 413.064 42.5073 415.222 42.5073 416.948C42.3995 417.811 42.3995 418.674 42.2916 419.537C42.1837 420.292 42.0758 421.047 42.0758 421.695C41.9679 422.881 41.7521 423.96 41.7521 424.607C41.7521 424.931 41.6442 425.147 41.6442 425.362C41.2127 425.362 41.2127 425.47 41.2127 425.47Z" fill="#263238"/>
<path d="M63.5453 296.664C63.5453 296.664 63.5453 296.772 63.4374 296.88C63.3295 297.096 63.2216 297.311 63.1137 297.527C62.7901 298.174 62.2506 299.037 61.6033 300.116C61.2796 300.656 60.956 301.303 60.5244 302.058C60.2008 302.813 59.7692 303.568 59.3377 304.323C58.9061 305.186 58.4746 306.049 58.043 307.02C57.6115 307.991 57.18 308.962 56.7484 310.041C56.3169 311.12 55.7774 312.198 55.3459 313.385C54.9143 314.572 54.3749 315.758 53.9434 317.053C53.7276 317.7 53.4039 318.348 53.1881 318.995C52.9724 319.642 52.7566 320.397 52.5408 321.044C52.1093 322.447 51.5698 323.849 51.1383 325.252C49.3042 331.185 47.578 337.658 46.1755 344.67C44.773 351.682 43.802 358.37 43.0468 364.411C42.3995 370.56 41.9679 376.062 41.86 380.701C41.7521 383.074 41.7522 385.124 41.7522 386.958C41.7522 388.792 41.7522 390.41 41.7522 391.704C41.7522 392.999 41.7522 393.97 41.7522 394.725C41.7522 395.049 41.7522 395.264 41.7522 395.48C41.7522 395.696 41.7522 395.696 41.7522 395.696C41.7522 395.696 41.7522 395.588 41.7522 395.48C41.7522 395.264 41.7522 395.049 41.7522 394.725C41.7522 393.97 41.6443 392.999 41.6443 391.704C41.5364 390.41 41.5364 388.792 41.5364 386.958C41.5364 385.124 41.5364 382.966 41.6443 380.701C41.7521 376.062 42.1837 370.453 42.7231 364.304C43.4783 358.154 44.4493 351.466 45.8518 344.454C47.3623 337.442 49.0884 330.969 50.9225 325.036C51.462 323.526 51.8935 322.123 52.4329 320.721C52.6487 320.074 52.8645 319.318 53.1881 318.671C53.4039 318.024 53.7276 317.377 53.9434 316.729C54.4828 315.435 54.9143 314.248 55.4538 313.062C55.9932 311.875 56.4247 310.796 56.9642 309.717C57.5036 308.639 57.9352 307.668 58.3667 306.697C58.7983 305.726 59.3377 304.863 59.7692 304.108C60.2008 303.245 60.6323 302.489 60.956 301.842C61.3875 301.195 61.7112 300.548 62.0349 300.008C62.6822 298.93 63.2216 298.066 63.5453 297.419C63.761 297.203 63.8689 296.988 63.9768 296.772C63.5453 296.772 63.5453 296.664 63.5453 296.664Z" fill="#263238"/>
<path d="M60.6323 377.249C60.6323 377.249 60.3086 377.788 59.7692 378.867C59.1219 379.838 58.2588 381.348 57.2878 383.182C56.3168 385.016 55.1301 387.282 54.0512 389.871C52.9723 392.46 51.8935 395.265 50.9225 398.393C49.9515 401.522 49.3042 404.434 48.7648 407.239C48.2253 409.936 47.9017 412.525 47.6859 414.575C47.4701 416.624 47.3622 418.35 47.2543 419.537C47.1465 420.724 47.1465 421.371 47.1465 421.371C47.1465 421.371 47.0386 420.724 47.0386 419.537C47.0386 418.35 47.0386 416.624 47.2543 414.467C47.3622 412.309 47.6859 409.828 48.2253 407.023C48.7648 404.218 49.4121 401.198 50.3831 398.177C51.354 395.049 52.4329 392.244 53.6197 389.655C54.8064 387.066 55.8853 384.8 56.9642 382.967C58.043 381.133 58.9061 379.622 59.6613 378.651C60.2008 377.788 60.6323 377.249 60.6323 377.249Z" fill="#263238"/>
<path d="M24.7061 417.164H62.3585L57.8273 455.676H29.3452L24.7061 417.164Z" fill="#4F4F4F"/>
<path d="M26.1084 451.469L29.2371 455.676H57.8271L61.0637 451.577L26.1084 451.469Z" fill="#263238"/>
<path d="M60.8481 428.491C60.8481 428.599 53.0803 428.814 43.3705 428.814C33.7686 428.814 25.8928 428.707 25.8928 428.491C25.8928 428.383 33.6607 428.167 43.3705 428.167C53.0803 428.167 60.8481 428.275 60.8481 428.491Z" fill="#E9FAF7"/>
<path d="M60.8481 431.08C60.8481 431.188 53.0803 431.404 43.3705 431.404C33.7686 431.404 25.8928 431.296 25.8928 431.08C25.8928 430.864 33.6607 430.756 43.3705 430.756C53.0803 430.756 60.8481 430.864 60.8481 431.08Z" fill="#E9FAF7"/>
<path d="M60.4165 433.561C60.4165 433.669 52.8645 433.885 43.5862 433.885C34.3079 433.885 26.7559 433.777 26.7559 433.561C26.7559 433.345 34.3079 433.238 43.5862 433.238C52.8645 433.238 60.4165 433.345 60.4165 433.561Z" fill="#E9FAF7"/>
<path d="M431.115 427.412C434.352 425.794 438.128 425.578 441.688 426.118C443.63 426.441 445.572 426.981 446.975 428.491C448.269 429.893 448.485 432.483 447.083 433.777C446.219 434.532 444.925 434.64 443.738 434.64C440.933 434.64 437.804 434.101 435.539 435.827C434.244 436.798 433.381 438.416 431.871 438.847C430.36 439.279 428.634 438.416 427.879 437.121C427.124 435.719 427.016 434.101 427.447 432.59C427.447 432.482 427.879 429.138 431.115 427.412Z" fill="#E8505B"/>
<path d="M423.671 413.172C425.613 415.977 429.497 415.006 431.223 413.388C432.949 411.662 433.704 409.181 434.46 406.808C435.97 401.414 437.588 395.696 436.402 390.086C436.078 388.468 435.431 386.742 434.244 385.556C433.057 384.369 431.331 383.614 429.605 384.045C427.663 384.585 426.476 386.419 425.613 388.253C423.024 393.539 421.729 399.472 421.729 405.297C421.837 407.994 422.161 410.907 423.671 413.172Z" fill="#E8505B"/>
<path d="M418.277 417.164C420.434 414.575 420.866 410.907 419.895 407.671C418.924 404.434 416.766 401.737 414.285 399.58C411.372 396.991 407.92 394.941 404.251 393.646C402.849 393.107 401.231 392.783 399.72 392.891C398.21 392.999 396.699 393.862 395.944 395.157C394.865 397.206 395.944 399.58 397.023 401.629C398.965 405.081 401.123 408.534 403.604 411.662C405.546 414.251 407.812 416.732 410.833 417.811C413.853 418.998 416.982 418.782 418.6 416.732" fill="#E8505B"/>
<path d="M423.563 455.676C423.563 455.676 423.671 455.245 423.779 454.382C423.887 453.411 423.995 452.332 424.103 450.93C424.318 449.419 424.534 447.693 424.858 445.752C425.289 443.81 425.937 441.76 426.692 439.71C427.555 437.661 428.526 435.719 429.821 434.209C431.007 432.698 432.41 431.62 433.705 430.972C434.999 430.325 436.186 430.109 437.049 429.894C437.912 429.786 438.344 429.786 438.344 429.678C438.344 429.678 437.912 429.678 437.049 429.678C436.186 429.786 434.999 429.894 433.597 430.541C432.194 431.188 430.684 432.267 429.497 433.777C428.202 435.287 427.124 437.229 426.26 439.387C425.397 441.544 424.75 443.594 424.426 445.536C423.995 447.478 423.887 449.204 423.779 450.714C423.671 452.224 423.671 453.411 423.563 454.274C423.563 455.245 423.563 455.676 423.563 455.676Z" fill="#263238"/>
<path d="M423.779 452.979C423.779 452.979 423.779 452.764 423.779 452.332C423.779 451.901 423.779 451.361 423.779 450.606C423.779 449.096 423.779 447.046 423.887 444.349C423.995 439.063 424.426 433.453 425.397 425.363C426.26 417.811 427.339 409.073 428.526 403.355C428.742 402.061 429.066 400.874 429.281 399.903C429.497 398.932 429.713 397.962 429.929 397.314C430.036 396.667 430.252 396.128 430.36 395.696C430.468 395.265 430.468 395.157 430.468 395.157C430.468 395.157 430.36 395.372 430.252 395.696C430.144 396.128 429.929 396.667 429.713 397.314C429.497 398.069 429.281 398.932 429.066 399.903C428.85 400.874 428.526 402.061 428.202 403.355C427.016 408.534 425.829 415.761 424.966 423.744C424.103 431.727 423.671 439.063 423.671 444.349C423.671 447.046 423.671 449.096 423.779 450.606C423.779 451.253 423.887 451.901 423.887 452.332C423.779 452.764 423.779 452.979 423.779 452.979Z" fill="#263238"/>
<path d="M423.887 438.955C423.887 438.955 423.887 438.308 423.887 437.229C423.779 436.042 423.671 434.424 423.347 432.374C423.024 430.325 422.484 427.951 421.729 425.362C421.405 424.176 420.65 421.371 418.816 417.056C416.335 411.338 413.098 406.592 410.185 403.679C409.538 402.924 408.783 402.384 408.135 401.845C407.812 401.629 407.596 401.306 407.272 401.09C406.949 400.874 406.733 400.766 406.517 400.55C405.546 399.903 405.007 399.58 405.007 399.58C404.899 399.687 407.164 400.982 409.862 404.003C412.667 406.915 415.795 411.662 418.277 417.379C419.571 420.508 420.542 423.205 421.19 425.578C421.945 428.167 422.484 430.541 422.808 432.482C423.132 434.532 423.347 436.15 423.563 437.229C423.779 438.308 423.779 438.955 423.887 438.955Z" fill="#263238"/>
<path d="M42.3371 238.751L44.3869 241.448C44.3869 241.448 54.744 224.835 66.7195 223.109C67.4747 223.432 68.2299 223.432 68.8772 223.001L72.7611 220.735C73.6242 220.196 74.0558 219.225 73.84 218.362C73.84 218.362 79.6659 208.114 91.965 206.495L96.4962 205.632L65.4248 177.26L17.1995 196.894L42.3371 238.751Z" fill="#E8505B"/>
<path d="M37.2663 236.486L40.9344 241.34C40.9344 241.34 49.3496 222.354 70.2796 220.951L49.6733 199.591C49.6733 199.699 34.7849 230.66 37.2663 236.486Z" fill="#CBF7E3"/>
<path d="M9 202.396C9 202.396 16.9836 176.613 43.5238 185.999L70.2797 221.059C70.2797 221.059 42.8764 216.097 36.4032 238.751L9 202.396Z" fill="#E9FAF7"/>
<path d="M70.2798 221.059C70.2798 221.059 78.5871 200.778 96.6042 203.259L70.2798 172.622L44.387 187.185L70.2798 221.059Z" fill="#CBF7E3"/>
<path d="M43.5237 185.999C43.5237 185.999 40.5029 170.68 52.3704 163.991L60.1383 160L87.2178 190.422C87.2178 190.422 68.4456 200.67 70.2796 221.167L43.5237 185.999Z" fill="#E9FAF7"/>
<path d="M70.2797 221.059C70.2797 221.059 69.8482 220.627 69.2008 219.764C68.4456 218.794 67.4747 217.607 66.2879 216.097C63.8065 212.86 60.462 208.545 56.7939 203.799C53.1257 199.052 49.7812 194.737 47.2999 191.5C46.1131 189.99 45.1421 188.696 44.3869 187.833C43.7396 186.97 43.308 186.43 43.4159 186.43C43.4159 186.43 43.8475 186.862 44.6027 187.725C45.3579 188.588 46.3289 189.774 47.6235 191.285C50.1049 194.305 53.5573 198.62 57.3333 203.475C61.0015 208.329 64.346 212.645 66.7195 215.881C67.7983 217.391 68.7693 218.686 69.5245 219.657C69.9561 220.52 70.3876 221.059 70.2797 221.059Z" fill="#263238"/>
<path d="M60.6777 168.954C60.6777 169.062 59.3831 169.278 57.549 170.356C55.715 171.435 53.4493 173.377 51.5074 175.966C49.5654 178.555 48.4866 181.36 47.9471 183.41C47.5156 185.459 47.5156 186.754 47.4077 186.754C47.4077 186.754 47.2998 186.43 47.2998 185.783C47.2998 185.136 47.2998 184.273 47.5156 183.194C47.9471 181.036 49.026 178.231 50.968 175.535C52.9099 172.838 55.2834 170.896 57.2254 169.925C58.1964 169.385 59.0595 169.17 59.5989 168.954C60.3541 168.954 60.6777 168.846 60.6777 168.954Z" fill="#263238"/>
<path d="M74.0557 181.791C74.0557 181.899 72.8689 182.439 71.0348 183.733C70.1718 184.38 69.0929 185.243 68.1219 186.214C67.1509 187.293 66.072 188.48 65.209 189.882C64.3459 191.285 63.6985 192.795 63.1591 194.089C62.7276 195.492 62.4039 196.679 62.1881 197.865C61.8645 200.023 61.8645 201.425 61.7566 201.425C61.7566 201.425 61.6487 201.101 61.6487 200.454C61.6487 200.131 61.6487 199.807 61.6487 199.268C61.6487 198.836 61.6487 198.297 61.7566 197.757C61.8645 196.679 62.1881 195.384 62.6197 193.874C63.1591 192.471 63.8064 190.961 64.6695 189.559C65.5326 188.156 66.6115 186.862 67.6904 185.783C68.7692 184.704 69.8481 183.949 70.7112 183.302C71.1427 182.978 71.5743 182.762 72.0058 182.546C72.4374 182.331 72.761 182.115 72.9768 182.007C73.732 181.791 74.0557 181.683 74.0557 181.791Z" fill="#263238"/>
<path d="M78.3712 185.459C78.3712 185.567 77.0766 186.214 75.1346 187.617C74.1636 188.264 73.0848 189.235 72.0059 190.422C70.927 191.608 69.8482 192.903 68.7693 194.413C67.7983 195.923 66.9352 197.434 66.2879 198.944C65.7485 200.454 65.209 201.749 64.9933 202.935C64.4538 205.309 64.5617 206.819 64.4538 206.819C64.4538 206.819 64.3459 206.495 64.3459 205.74C64.3459 205.417 64.3459 204.985 64.3459 204.554C64.3459 204.122 64.4538 203.475 64.5617 202.935C64.7775 201.749 65.209 200.346 65.7485 198.836C66.3958 197.326 67.151 195.815 68.2299 194.197C69.3087 192.687 70.3876 191.285 71.5744 190.098C72.7611 189.019 73.84 188.048 74.811 187.401C75.3504 187.077 75.7819 186.754 76.2135 186.538C76.645 186.322 76.9687 186.106 77.2924 185.999C77.9397 185.459 78.3712 185.351 78.3712 185.459Z" fill="#263238"/>
<path d="M81.0683 188.911C81.0683 189.019 79.7737 189.667 77.8317 191.069C76.8607 191.824 75.8898 192.795 74.703 193.982C73.6241 195.168 72.5453 196.571 71.5743 198.081C70.6033 199.699 69.8481 201.209 69.2008 202.72C68.6613 204.23 68.2298 205.525 68.014 206.711C67.4746 209.085 67.5825 210.595 67.4746 210.595C67.4746 210.595 67.3667 210.271 67.3667 209.516C67.3667 209.192 67.3667 208.761 67.3667 208.222C67.3667 207.682 67.4746 207.143 67.5825 206.603C67.7982 205.417 68.1219 204.014 68.6613 202.504C69.2008 200.994 70.0639 199.376 71.0349 197.757C72.0058 196.139 73.0847 194.737 74.2714 193.55C75.4582 192.363 76.4292 191.393 77.508 190.745C78.0475 190.422 78.479 190.098 78.9106 189.882C79.3421 189.667 79.6658 189.451 79.9894 189.343C80.7447 189.019 81.0683 188.803 81.0683 188.911Z" fill="#263238"/>
<path d="M58.7358 215.341C58.7358 215.449 57.2254 214.91 54.744 214.694C52.2626 214.478 48.8103 214.694 45.25 216.097C41.7976 217.499 39.1005 219.872 37.4822 221.706C35.8639 223.54 35.2165 224.943 35.1086 224.943C35.1086 224.943 35.2165 224.511 35.5402 223.972C35.8639 223.324 36.4033 222.461 37.1585 221.49C38.6689 219.549 41.3661 217.067 44.9263 215.557C48.4866 214.047 52.1548 213.939 54.6361 214.263C55.9308 214.37 56.9018 214.694 57.5491 214.91C58.3043 215.234 58.7358 215.341 58.7358 215.341Z" fill="#263238"/>
<path d="M55.1755 210.918C55.1755 211.026 53.6651 210.487 51.1837 210.271C48.7023 210.055 45.25 210.271 41.6897 211.673C38.2373 213.076 35.5401 215.449 33.9218 217.283C32.3035 219.117 31.6562 220.519 31.5483 220.519C31.5483 220.519 31.6562 220.088 31.9799 219.549C32.3035 218.901 32.843 218.038 33.5982 217.067C35.1086 215.126 37.8058 212.644 41.366 211.134C44.9263 209.624 48.5944 209.516 51.0758 209.84C52.3705 209.947 53.3415 210.271 53.9888 210.487C54.744 210.81 55.1755 210.918 55.1755 210.918Z" fill="#263238"/>
<path d="M51.6152 206.495C51.6152 206.603 50.1048 206.064 47.6234 205.848C45.142 205.632 41.6897 205.848 38.1294 207.251C34.677 208.653 31.9798 211.026 30.3615 212.86C28.7432 214.694 28.0959 216.097 27.988 216.097C27.988 216.097 28.0959 215.665 28.4196 215.126C28.7432 214.478 29.2827 213.615 30.0379 212.644C31.5483 210.703 34.2455 208.221 37.8057 206.711C41.366 205.201 45.0341 205.093 47.5155 205.417C48.8102 205.525 49.7812 205.848 50.4285 206.064C51.1837 206.28 51.6152 206.495 51.6152 206.495Z" fill="#263238"/>
<path d="M48.0549 202.072C48.0549 202.18 46.5445 201.641 44.0631 201.425C41.5817 201.209 38.1294 201.425 34.5691 202.827C31.1167 204.23 28.4195 206.603 26.8012 208.437C25.1829 210.271 24.5356 211.673 24.4277 211.673C24.4277 211.673 24.5356 211.242 24.8593 210.703C25.1829 210.055 25.7224 209.192 26.4776 208.221C27.988 206.28 30.6852 203.798 34.2454 202.288C37.8057 200.778 41.4738 200.67 43.9552 200.994C45.2499 201.101 46.2209 201.425 46.8682 201.641C47.7313 201.857 48.0549 202.072 48.0549 202.072Z" fill="#263238"/>
<path d="M44.4949 197.649C44.4949 197.757 42.9845 197.218 40.5031 197.002C38.0217 196.786 34.5693 197.002 31.009 198.405C27.5567 199.807 24.8595 202.18 23.2412 204.014C21.6229 205.848 20.9756 207.251 20.8677 207.251C20.8677 207.251 20.9756 206.819 21.2992 206.28C21.6229 205.632 22.1623 204.769 22.9175 203.799C24.4279 201.857 27.1251 199.376 30.6854 197.865C34.2456 196.355 37.9138 196.247 40.3952 196.571C41.6898 196.679 42.6608 197.002 43.3081 197.218C44.1712 197.434 44.4949 197.649 44.4949 197.649Z" fill="#263238"/>
<path d="M40.9346 193.226C40.9346 193.334 39.4242 192.795 36.9428 192.579C34.4614 192.363 31.009 192.579 27.4487 193.982C23.9964 195.384 21.2992 197.757 19.6809 199.591C18.0626 201.425 17.4153 202.828 17.3074 202.828C17.3074 202.828 17.4153 202.396 17.7389 201.857C18.0626 201.209 18.602 200.346 19.3572 199.375C20.8676 197.434 23.5648 194.952 27.1251 193.442C30.6853 191.932 34.3535 191.824 36.8349 192.148C38.1295 192.255 39.1005 192.579 39.7478 192.795C40.6109 193.011 40.9346 193.226 40.9346 193.226Z" fill="#263238"/>
<path d="M50.7522 187.833L58.1964 196.031C58.1964 196.031 60.462 184.704 70.6034 180.389L62.8355 172.082C62.7276 171.975 52.4784 175.535 50.7522 187.833Z" fill="#CBF7E3"/>
</g>
<defs>
<clipPath id="clip0">
<rect width="461" height="456" fill="white"/>
</clipPath>
</defs>
</svg>
