<svg width="328" height="297" viewBox="0 0 328 297" fill="none" xmlns="http://www.w3.org/2000/svg">
<path d="M328 222.331C328 222.404 257.288 222.55 170.044 222.55C82.8011 222.55 12.0889 222.477 12.0889 222.331C12.0889 222.258 82.8011 222.113 170.044 222.113C257.288 222.113 328 222.258 328 222.331Z" fill="#CBF7E3"/>
<path d="M278.698 167.04C278.917 166.821 280.592 167.987 282.703 170.391C283.796 171.556 284.961 173.086 286.053 174.907C287.218 176.728 288.311 178.768 289.33 181.026C290.277 183.285 291.005 185.543 291.515 187.583C292.025 189.622 292.316 191.516 292.462 193.119C292.753 196.324 292.462 198.291 292.171 198.291C291.369 198.364 290.714 190.642 286.927 182.046C283.286 173.377 278.115 167.55 278.698 167.04Z" fill="#CBF7E3"/>
<path d="M294.719 204.629C294.355 204.702 293.481 200.477 292.608 193.483C291.734 186.563 291.005 176.947 290.787 166.311C290.496 155.675 290.641 146.059 290.86 139.066C291.078 132.073 291.37 127.775 291.734 127.775C292.098 127.775 292.389 132.073 292.68 139.066C292.899 145.987 293.117 155.602 293.409 166.238C293.7 176.801 294.137 186.417 294.501 193.338C294.792 200.331 295.084 204.629 294.719 204.629Z" fill="#CBF7E3"/>
<path d="M310.231 144.238C310.595 144.457 309.212 147.371 307.464 152.324C305.643 157.278 303.458 164.126 301.274 171.847C299.162 179.569 297.487 186.635 296.467 191.735C295.448 196.834 295.084 200.112 294.647 200.112C294.355 200.112 294.064 196.761 294.647 191.516C295.229 186.198 296.613 178.986 298.798 171.192C300.982 163.397 303.458 156.477 305.716 151.669C307.973 146.788 309.94 144.02 310.231 144.238Z" fill="#CBF7E3"/>
<path d="M274.766 195.814V204.265C274.766 214.245 282.849 222.331 292.826 222.331C302.803 222.331 310.886 214.245 310.886 204.265V195.814H274.766Z" fill="#CBF7E3"/>
<path d="M311.178 202.953C311.178 203.099 303.021 203.245 292.972 203.245C282.922 203.245 274.766 203.099 274.766 202.953C274.766 202.808 282.922 202.662 292.972 202.662C303.021 202.735 311.178 202.808 311.178 202.953Z" fill="#E9FAF7"/>
<path d="M311.178 205.285C311.178 205.43 303.021 205.576 292.972 205.576C282.922 205.576 274.766 205.43 274.766 205.285C274.766 205.139 282.922 204.993 292.972 204.993C303.021 205.066 311.178 205.139 311.178 205.285Z" fill="#E9FAF7"/>
<path d="M302.004 7.04639H246.471V65H302.004V7.04639Z" fill="#CBF7E3"/>
<path d="M298.255 7.04639H242.721V65H298.255V7.04639Z" fill="#CBF7E3"/>
<path d="M290.757 14.8398H250.161V57.2064H290.757V14.8398Z" fill="#E9FAF7"/>
<path d="M250.161 57.4995C250.161 57.5581 249.809 57.9683 249.165 58.6714C248.521 59.3746 247.583 60.2536 246.588 61.3084C245.592 62.3045 244.654 63.2421 243.952 63.8281C243.249 64.4727 242.839 64.8243 242.78 64.8243C242.721 64.7657 243.131 64.3555 243.776 63.6523C244.42 62.9491 245.357 62.0701 246.353 61.0154C247.349 60.0192 248.345 59.0816 248.989 58.4371C249.692 57.7925 250.161 57.4409 250.161 57.4995Z" fill="#CBF7E3"/>
<path d="M290.815 57.3823C290.874 57.3823 291.284 57.7339 291.987 58.3785C292.69 59.0231 293.568 59.9606 294.623 60.9568C295.619 61.953 296.556 62.8906 297.142 63.5937C297.786 64.2969 298.138 64.7071 298.138 64.7657C298.079 64.8243 297.669 64.4141 296.966 63.7695C296.263 63.125 295.384 62.1874 294.33 61.1912C293.334 60.195 292.397 59.1989 291.752 58.5543C291.167 57.8511 290.757 57.3823 290.815 57.3823Z" fill="#CBF7E3"/>
<path d="M290.698 14.9571C290.698 14.8985 291.049 14.4883 291.694 13.7851C292.338 13.082 293.276 12.203 294.271 11.1482C295.267 10.152 296.204 9.21448 296.907 8.62849C297.61 7.98391 298.02 7.63232 298.079 7.63232C298.138 7.69092 297.728 8.10111 297.083 8.80429C296.439 9.50747 295.502 10.3864 294.506 11.4412C293.51 12.4374 292.514 13.3749 291.87 14.0195C291.167 14.6055 290.698 14.9571 290.698 14.9571Z" fill="#CBF7E3"/>
<path d="M250.102 15.0742C250.044 15.0742 249.634 14.7226 248.931 14.0781C248.228 13.4335 247.349 12.4959 246.295 11.4997C245.299 10.5036 244.362 9.566 243.776 8.86282C243.132 8.15964 242.78 7.74945 242.78 7.69085C242.839 7.63226 243.249 8.04244 243.952 8.68702C244.655 9.3316 245.533 10.2692 246.588 11.2653C247.584 12.2615 248.521 13.2577 249.165 13.9023C249.751 14.6054 250.102 15.0156 250.102 15.0742Z" fill="#CBF7E3"/>
<path d="M290.698 57.2064C290.698 57.2064 290.698 57.1478 290.698 57.0306C290.698 56.9134 290.698 56.679 290.698 56.4446C290.698 55.9172 290.698 55.1554 290.698 54.1593C290.698 52.1669 290.698 49.237 290.639 45.5453C290.639 38.1033 290.581 27.5557 290.581 14.8985L290.698 15.0157C278.865 15.0157 264.981 15.0157 250.219 15.0157L250.395 14.8399C250.395 30.3684 250.395 44.9593 250.395 57.2064L250.278 57.0892C262.404 57.0892 272.538 57.1478 279.626 57.1478C283.141 57.1478 285.953 57.1478 287.886 57.2064C288.823 57.2064 289.585 57.2064 290.053 57.2064C290.288 57.2064 290.463 57.2064 290.639 57.2064H290.698C290.698 57.2064 290.639 57.2064 290.522 57.2064C290.405 57.2064 290.229 57.2064 289.995 57.2064C289.526 57.2064 288.765 57.2064 287.827 57.2064C285.953 57.2064 283.141 57.2064 279.626 57.265C272.538 57.265 262.404 57.3236 250.219 57.3236H250.102V57.2064C250.102 44.9593 250.102 30.3684 250.102 14.8399V14.6641H250.278C265.099 14.6641 278.982 14.6641 290.756 14.6641H290.873V14.7813C290.873 27.4971 290.815 38.1033 290.815 45.4867C290.815 49.1784 290.815 52.1083 290.756 54.1007C290.756 55.0968 290.756 55.8586 290.756 56.386C290.756 56.6204 290.756 56.7962 290.756 56.972C290.698 57.1478 290.698 57.2064 290.698 57.2064Z" fill="#CBF7E3"/>
<path d="M260.881 32.5366C260.881 32.5366 260.002 43.0257 271.367 43.0257C271.367 37.4003 266.798 33.0054 260.881 32.5366Z" fill="#CBF7E3"/>
<path d="M281.677 32.5365C281.677 32.5365 271.191 31.6575 271.191 43.0256C276.815 43.0256 281.208 38.3963 281.677 32.5365Z" fill="#CBF7E3"/>
<path d="M270.898 26.7939C270.898 26.7939 262.345 34.4703 271.367 43.0257C275.584 38.5722 275.174 31.599 270.898 26.7939Z" fill="#CBF7E3"/>
<path d="M86.9999 34.0042H48.2625V74.3928H86.9999V34.0042Z" fill="#CBF7E3"/>
<path d="M84.3986 34.0042H45.6611V74.3928H84.3986V34.0042Z" fill="#E9FAF7"/>
<path d="M84.3982 74.3928H45.6125V34.0042H84.3982V74.3928ZM45.6607 74.3928H84.3982V34.0042H45.6607V74.3928Z" fill="#CBF7E3"/>
<path d="M79.1946 39.4502H50.8643V68.9946H79.1946V39.4502Z" fill="#E9FAF7"/>
<path d="M50.8642 69.1874C50.8642 69.2356 50.6233 69.5248 50.1415 70.0068C49.7079 70.4888 49.0333 71.1153 48.3588 71.8383C47.6361 72.5612 47.0097 73.1878 46.5279 73.6215C46.0461 74.0553 45.757 74.3445 45.7088 74.2963C45.6607 74.2481 45.9498 73.9589 46.3834 73.4769C46.817 72.995 47.4915 72.3684 48.1661 71.6455C48.8888 70.9225 49.5151 70.296 49.9969 69.8622C50.5269 69.3802 50.816 69.1393 50.8642 69.1874Z" fill="#CBF7E3"/>
<path d="M79.1945 69.0913C79.2427 69.0913 79.5318 69.3323 80.0136 69.8143C80.4954 70.248 81.1218 70.9228 81.8445 71.5975C82.5672 72.3205 83.1935 72.947 83.6272 73.429C84.0608 73.911 84.3499 74.2001 84.3017 74.2483C84.2535 74.2965 83.9644 74.0073 83.4826 73.5736C83.0008 73.1398 82.3745 72.4651 81.6518 71.7903C80.929 71.0674 80.3027 70.4408 79.8691 69.9588C79.3872 69.4287 79.1463 69.0913 79.1945 69.0913Z" fill="#CBF7E3"/>
<path d="M79.0981 39.4986C79.0981 39.4504 79.339 39.1612 79.8209 38.6792C80.2545 38.1973 80.929 37.5707 81.6036 36.8478C82.3263 36.1248 82.9526 35.4983 83.4344 35.0645C83.9162 34.6307 84.2053 34.3416 84.2535 34.3898C84.3017 34.438 84.0126 34.7271 83.579 35.2091C83.1453 35.6911 82.4708 36.3176 81.7963 37.0406C81.0736 37.7635 80.4472 38.3901 79.9654 38.8238C79.4354 39.2576 79.0981 39.5468 79.0981 39.4986Z" fill="#CBF7E3"/>
<path d="M50.7679 39.5949C50.7197 39.5949 50.4307 39.3539 49.9489 38.8719C49.467 38.4382 48.8407 37.7634 48.118 37.0887C47.3953 36.3657 46.7689 35.7392 46.3353 35.2572C45.9017 34.7752 45.6126 34.4861 45.6608 34.4379C45.7089 34.3897 45.998 34.6788 46.4798 35.1126C46.9616 35.5464 47.588 36.2211 48.3107 36.8959C49.0334 37.6188 49.6598 38.2454 50.0934 38.7273C50.527 39.2575 50.8161 39.5467 50.7679 39.5949Z" fill="#CBF7E3"/>
<path d="M79.0983 68.9466C79.0983 68.9466 79.0983 68.8984 79.0983 68.802C79.0983 68.7056 79.0983 68.561 79.0983 68.3682C79.0983 67.9826 79.0983 67.4525 79.0983 66.7777C79.0983 65.38 79.0983 63.3558 79.0501 60.7532C79.0501 55.5962 79.0019 48.2221 79.0019 39.4022L79.0983 39.4986C70.8593 39.4986 61.175 39.4986 50.8643 39.4986L51.0088 39.354C51.0088 50.1982 51.0088 60.3194 51.0088 68.8984L50.9124 68.802C59.3923 68.802 66.4267 68.8502 71.3893 68.8502C73.8465 68.8502 75.822 68.8502 77.1228 68.8984C77.7974 68.8984 78.2792 68.8984 78.6646 68.8984C78.8092 68.8984 78.9537 68.8984 79.0501 68.8984C79.0501 68.9466 79.0983 68.9466 79.0983 68.9466C79.0983 68.9466 79.0501 68.9466 78.9537 68.9466C78.8574 68.9466 78.7128 68.9466 78.5683 68.9466C78.231 68.9466 77.701 68.9466 77.0747 68.9466C75.7256 68.9466 73.7984 68.9466 71.3411 68.9948C66.3785 68.9948 59.2959 69.043 50.8161 69.043H50.7197V68.9466C50.7197 60.4158 50.7197 50.2464 50.7197 39.4022V39.2576H50.8643C61.175 39.2576 70.8593 39.2576 79.0983 39.2576H79.1946V39.354C79.1946 48.2221 79.1464 55.5962 79.1464 60.8014C79.1464 63.3558 79.1464 65.38 79.0983 66.7777C79.0983 67.4525 79.0983 67.9826 79.0983 68.3682C79.0983 68.561 79.0983 68.6574 79.0983 68.7538C79.0983 68.9466 79.0983 68.9466 79.0983 68.9466Z" fill="#CBF7E3"/>
<path d="M69.7513 49.4751H60.3079V58.9216H69.7513V49.4751Z" fill="#CBF7E3"/>
<path d="M160.213 297C245.358 297 314.382 284.345 314.382 268.735C314.382 253.125 245.358 240.47 160.213 240.47C75.0681 240.47 6.04443 253.125 6.04443 268.735C6.04443 284.345 75.0681 297 160.213 297Z" fill="#CBF7E3"/>
<path d="M219.055 268.735C219.055 268.735 219.055 268.516 218.764 268.225C218.472 267.934 217.963 267.642 217.234 267.351C215.778 266.768 213.448 266.258 210.462 265.748C204.49 264.801 195.751 264 184.973 263.49C174.195 262.98 161.305 262.834 146.959 263.126C139.822 263.271 132.321 263.636 124.529 264.218C120.67 264.51 116.737 264.874 112.732 265.457C110.765 265.748 108.726 266.04 106.76 266.477C105.741 266.695 104.794 266.914 103.847 267.278C103.337 267.424 102.9 267.642 102.464 267.861C102.027 268.079 101.59 268.444 101.59 268.808C101.59 269.172 102.099 269.536 102.464 269.755C102.9 269.973 103.41 270.192 103.847 270.338C104.794 270.629 105.813 270.92 106.76 271.139C108.726 271.576 110.765 271.867 112.732 272.159C116.737 272.669 120.67 273.106 124.529 273.397C132.321 273.98 139.822 274.271 146.959 274.49C161.233 274.854 174.122 274.636 184.973 274.126C195.751 273.616 204.49 272.887 210.462 271.867C213.448 271.357 215.778 270.848 217.234 270.265C217.963 269.973 218.545 269.682 218.764 269.391C219.128 268.953 219.055 268.735 219.055 268.735C219.055 268.735 219.128 268.953 218.837 269.318C218.545 269.609 218.035 269.973 217.307 270.265C215.851 270.848 213.52 271.43 210.535 271.94C204.563 272.96 195.824 273.761 185.046 274.271C174.268 274.781 161.378 275 147.032 274.708C139.895 274.563 132.394 274.271 124.602 273.689C120.742 273.397 116.737 273.033 112.805 272.45C110.838 272.159 108.799 271.867 106.833 271.43C105.813 271.212 104.867 270.993 103.847 270.629C103.337 270.483 102.9 270.265 102.391 270.046C102.172 269.901 101.954 269.755 101.735 269.609C101.517 269.391 101.298 269.172 101.298 268.808C101.298 268.444 101.517 268.225 101.735 268.006C101.954 267.788 102.172 267.642 102.391 267.569C102.828 267.351 103.337 267.132 103.847 266.987C104.867 266.622 105.813 266.404 106.833 266.185C108.799 265.748 110.838 265.457 112.805 265.165C116.81 264.655 120.742 264.218 124.602 263.927C132.394 263.344 139.895 263.053 147.032 262.907C161.305 262.616 174.268 262.834 185.046 263.344C195.824 263.854 204.563 264.728 210.535 265.675C213.52 266.185 215.851 266.695 217.307 267.351C218.035 267.642 218.618 267.934 218.837 268.298C219.128 268.516 219.055 268.735 219.055 268.735Z" fill="#E9FAF7"/>
<path d="M254.156 268.735C254.156 268.735 254.229 268.371 253.865 267.788C253.501 267.205 252.773 266.55 251.608 265.967C249.35 264.801 245.709 263.636 240.975 262.689C231.435 260.722 217.453 259.046 200.048 258.026C182.716 257.006 161.961 256.569 138.949 257.225C127.442 257.589 115.426 258.172 102.973 259.41C96.7834 259.993 90.4477 260.795 84.0392 261.887C80.8349 262.47 77.7035 263.126 74.4992 264C72.8971 264.437 71.3678 264.947 69.9113 265.602C69.1831 265.967 68.4548 266.331 67.7994 266.768C67.144 267.205 66.5614 267.861 66.5614 268.589C66.5614 269.318 67.144 269.973 67.7994 270.41C68.4548 270.92 69.1831 271.285 69.9113 271.576C71.3678 272.232 72.9699 272.742 74.4992 273.179C77.6307 274.053 80.8349 274.708 84.0392 275.291C90.3749 276.384 96.7106 277.185 102.973 277.768C115.426 279.006 127.515 279.589 139.021 279.953C162.034 280.609 182.716 280.172 200.121 279.152C217.453 278.132 231.508 276.53 241.048 274.49C245.782 273.47 249.423 272.377 251.68 271.212C252.846 270.629 253.574 269.973 253.938 269.391C254.156 269.099 254.084 268.735 254.156 268.735C254.156 268.735 254.156 268.808 254.156 268.953C254.156 269.099 254.084 269.391 253.865 269.682C253.501 270.265 252.773 270.92 251.608 271.503C249.35 272.742 245.709 273.834 240.975 274.854C231.435 276.894 217.453 278.569 200.048 279.589C182.643 280.609 161.961 281.119 138.949 280.463C127.442 280.099 115.354 279.516 102.901 278.278C96.6378 277.695 90.3021 276.894 83.9664 275.801C80.7621 275.218 77.5578 274.563 74.4264 273.689C72.8243 273.252 71.295 272.742 69.7657 272.013C69.0374 271.649 68.2363 271.285 67.5809 270.775C67.2168 270.556 66.9255 270.192 66.6342 269.901C66.3429 269.536 66.1973 269.099 66.1973 268.662C66.1973 268.225 66.4157 267.715 66.707 267.424C66.9983 267.059 67.2896 266.768 67.6537 266.55C68.3092 266.04 69.1102 265.675 69.8385 265.311C71.3678 264.655 72.9699 264.146 74.4992 263.636C77.6307 262.761 80.8349 262.106 84.0392 261.523C90.4477 260.43 96.7834 259.629 102.973 259.046C115.426 257.808 127.515 257.225 139.021 256.861C162.034 256.205 182.789 256.642 200.121 257.735C217.453 258.755 231.508 260.43 241.048 262.47C245.782 263.49 249.423 264.655 251.68 265.821C252.846 266.404 253.574 267.059 253.938 267.642C254.084 267.934 254.156 268.152 254.229 268.371C254.156 268.662 254.156 268.735 254.156 268.735Z" fill="#E9FAF7"/>
<path d="M297.632 268.735C297.632 268.735 297.705 268.225 297.268 267.351C296.904 266.477 295.885 265.384 294.355 264.291C291.224 262.179 285.908 260.212 278.989 258.463C265.08 254.967 244.471 252.053 218.909 250.305C193.348 248.556 162.762 247.755 128.899 248.92C111.931 249.503 94.1617 250.596 75.8828 252.709C66.707 253.801 57.4583 255.112 48.1368 257.079C43.4761 258.099 38.8153 259.192 34.2274 260.795C31.9699 261.596 29.7123 262.47 27.6004 263.636C26.5809 264.218 25.5613 264.874 24.6874 265.748C23.8136 266.55 23.1581 267.642 23.0853 268.808C23.0853 269.973 23.8136 270.993 24.6146 271.867C25.4885 272.669 26.508 273.397 27.5276 273.98C29.6395 275.146 31.897 276.02 34.1546 276.821C38.7425 278.351 43.4033 279.516 48.064 280.536C57.3855 282.503 66.707 283.814 75.81 284.907C94.1617 287.02 111.931 288.112 128.826 288.695C162.689 289.861 193.275 289.059 218.837 287.311C244.398 285.49 265.007 282.649 278.917 279.152C285.835 277.404 291.151 275.437 294.283 273.324C295.885 272.305 296.831 271.212 297.195 270.265C297.705 269.245 297.56 268.735 297.632 268.735C297.632 268.735 297.632 268.881 297.632 269.099C297.632 269.245 297.632 269.391 297.56 269.536C297.56 269.682 297.414 269.901 297.341 270.119C296.977 270.993 295.957 272.159 294.428 273.179C291.297 275.291 285.981 277.331 279.062 279.079C265.153 282.649 244.544 285.563 218.982 287.384C193.421 289.205 162.835 290.007 128.899 288.841C111.931 288.258 94.1617 287.165 75.81 285.053C66.6342 283.96 57.3127 282.649 47.9912 280.682C43.3304 279.662 38.6697 278.569 34.0818 276.967C31.8242 276.165 29.4938 275.291 27.3819 274.053C26.2896 273.47 25.27 272.742 24.3961 271.94C23.5223 271.066 22.7212 269.973 22.7212 268.589C22.7212 267.278 23.5223 266.112 24.3961 265.311C25.27 264.437 26.3624 263.781 27.3819 263.199C29.4938 262.033 31.8242 261.086 34.0818 260.285C38.6697 258.682 43.3304 257.589 47.9912 256.569C57.3127 254.603 66.6342 253.291 75.81 252.199C94.1617 250.086 111.931 248.993 128.899 248.41C162.762 247.245 193.348 248.046 218.982 249.867C244.544 251.689 265.226 254.603 279.135 258.172C286.053 259.993 291.37 261.96 294.501 264.073C296.103 265.093 297.05 266.258 297.414 267.132C297.487 267.351 297.56 267.569 297.632 267.715C297.705 267.861 297.705 268.007 297.705 268.152C297.632 268.589 297.632 268.735 297.632 268.735Z" fill="#E9FAF7"/>
<path opacity="0.3" d="M166.549 251.397C154.606 250.596 142.59 249.867 130.647 250.304C118.704 250.814 106.615 252.636 96.0552 256.861C91.9042 258.536 87.6076 260.867 86.8794 264.364C86.0783 268.152 89.8651 271.649 94.3802 273.47C103.629 277.112 115.062 275.218 124.675 272.159C134.288 269.099 143.609 264.874 154.023 264C162.689 263.271 171.355 265.02 179.512 267.278C187.668 269.536 195.606 272.304 204.053 273.834C212.501 275.364 221.75 275.583 229.615 272.814C233.839 271.357 237.771 268.589 237.989 265.092C238.135 262.616 236.387 260.285 233.911 258.609C231.435 257.006 228.304 255.987 225.245 255.185C205.291 249.867 183.517 250.523 162.398 251.251" fill="#BDBDBD"/>
<path d="M18.206 267.496C16.531 268.735 14.8561 269.973 13.1811 271.139C12.6713 271.503 12.0887 272.013 12.2344 272.596C12.3072 273.397 13.3268 273.616 14.1278 273.688C19.5168 273.98 23.2308 273.397 27.9644 270.92C28.4014 270.702 29.785 269.973 30.3676 269.463C30.7317 269.172 32.3339 268.006 32.0426 267.642C31.7513 267.278 31.1687 267.205 30.6589 267.278C26.3623 267.351 22.5026 267.424 18.206 267.496Z" fill="#CBF7E3"/>
<path d="M217.016 108.179C216.943 106.357 215.924 104.609 214.321 103.881C212.938 103.225 211.19 103.444 209.806 104.245C208.423 105.046 207.476 106.285 206.675 107.669C204.709 111.238 204.49 115.463 204.053 119.543C203.616 123.622 202.67 127.046 200.485 131.053L215.414 113.278C216.433 111.748 217.162 109.927 217.016 108.179Z" fill="#E8505B"/>
<g opacity="0.2">
<g opacity="0.2">
<path opacity="0.2" d="M217.016 108.179C216.943 106.357 215.924 104.609 214.321 103.881C212.938 103.225 211.19 103.444 209.806 104.245C208.423 105.046 207.476 106.285 206.675 107.669C204.709 111.238 204.49 115.463 204.053 119.543C203.616 123.622 202.67 127.046 200.485 131.053L215.414 113.278C216.433 111.748 217.162 109.927 217.016 108.179Z" fill="#333333"/>
</g>
</g>
<path d="M199.975 98.49C200.849 99.2185 229.906 132.583 229.906 132.583L214.176 145.04L194.222 120.126L199.975 98.49Z" fill="#FFBE9D"/>
<path d="M113.387 109.708C112.586 110.583 89.1367 141.761 89.1367 141.761L103.847 157.715L121.908 130.47L113.387 109.708Z" fill="#FFBE9D"/>
<path d="M113.679 130.397C115.426 131.199 116.373 133.02 117.029 134.768C117.684 136.517 118.121 138.411 119.359 139.868C120.597 141.325 122.855 142.126 124.384 141.033C125.84 140.013 125.913 137.755 125.258 136.152C124.457 134.113 122.855 132.51 120.961 131.417C119.141 130.324 117.029 129.669 114.917 129.159" fill="#E8505B"/>
<g opacity="0.2">
<g opacity="0.2">
<path opacity="0.2" d="M113.679 130.397C115.426 131.199 116.373 133.02 117.029 134.768C117.684 136.517 118.121 138.411 119.359 139.868C120.597 141.325 122.855 142.126 124.384 141.033C125.84 140.013 125.913 137.755 125.258 136.152C124.457 134.113 122.855 132.51 120.961 131.417C119.141 130.324 117.029 129.669 114.917 129.159" fill="#333333"/>
</g>
</g>
<path d="M250.224 193.483C249.933 193.411 249.35 193.265 248.622 193.192L190.071 168.642H131.812L74.4264 191.298C68.6004 193.265 60.2985 204.629 65.0321 218.179C65.1777 218.543 65.3234 218.907 65.469 219.271C69.2559 228.742 79.6697 233.622 89.501 231C97.4388 228.887 108.799 225.755 120.524 222.55H121.835L158.32 212.205C164.073 213.808 176.089 217.086 189.416 220.801C205.656 225.245 223.862 230.271 235.076 233.258C244.908 235.881 255.394 231 259.108 221.53C259.254 221.166 259.4 220.801 259.545 220.437C264.352 206.815 256.05 195.45 250.224 193.483Z" fill="#4F4F4F"/>
<path d="M157.956 212.351C157.956 212.351 158.029 212.351 158.174 212.278C158.32 212.205 158.538 212.205 158.757 212.06C159.339 211.914 160.068 211.695 161.087 211.404C163.126 210.821 166.112 209.947 169.826 208.927L169.68 209.073C168.151 203.536 166.185 196.179 163.854 187.656L164.073 187.801C162.107 187.801 160.14 187.801 158.101 187.801C156.062 187.801 153.95 188.02 151.766 188.093C147.469 188.311 142.954 188.603 138.293 188.821C121.616 189.768 106.615 190.934 95.6911 191.808C90.3021 192.245 85.8598 192.609 82.8012 192.901C81.2719 193.046 80.1067 193.119 79.3056 193.192C78.9415 193.192 78.6502 193.265 78.3589 193.265C78.1405 193.265 78.0676 193.265 78.0676 193.265C78.0676 193.265 78.1405 193.265 78.3589 193.192C78.5774 193.192 78.8687 193.119 79.2328 193.119C80.0339 193.046 81.1991 192.901 82.7284 192.755C85.787 192.464 90.1564 192.026 95.6183 191.517C106.469 190.57 121.544 189.404 138.22 188.384C142.881 188.166 147.396 187.874 151.693 187.656C153.878 187.583 155.989 187.437 158.029 187.364C160.068 187.364 162.107 187.364 164.073 187.364H164.219L164.291 187.51C166.549 196.033 168.515 203.391 169.972 208.927V209.073H169.826C166.112 210.093 163.126 210.894 161.014 211.404C159.995 211.695 159.267 211.841 158.684 211.987C158.465 212.06 158.247 212.06 158.101 212.132C158.029 212.351 157.956 212.351 157.956 212.351Z" fill="#333333"/>
<path d="M138.949 188.384C138.876 188.457 137.274 187.583 135.526 186.126C133.778 184.669 132.54 183.212 132.686 183.139C132.759 183.066 134.142 184.305 135.817 185.762C137.565 187.146 139.021 188.238 138.949 188.384Z" fill="#333333"/>
<path d="M243.306 195.596C243.306 195.596 243.014 195.596 242.505 195.596C241.922 195.596 241.194 195.523 240.174 195.45C238.135 195.304 235.295 195.086 231.727 194.867C224.59 194.357 214.759 193.702 203.908 192.973C193.057 192.318 183.226 191.735 176.089 191.298C172.593 191.079 169.68 190.934 167.641 190.788C166.695 190.715 165.894 190.642 165.384 190.642C164.874 190.569 164.583 190.569 164.583 190.569C164.583 190.569 164.874 190.569 165.384 190.569C165.966 190.569 166.695 190.642 167.714 190.642C169.753 190.715 172.593 190.861 176.162 191.006C183.299 191.371 193.13 191.881 203.981 192.536C214.831 193.265 224.663 193.993 231.799 194.576C235.295 194.867 238.208 195.159 240.247 195.304C241.194 195.377 241.995 195.45 242.505 195.523C243.014 195.523 243.306 195.596 243.306 195.596Z" fill="#333333"/>
<path d="M158.902 194.503C158.83 194.431 159.776 193.556 161.306 193.119C162.835 192.755 164.073 193.046 164.073 193.119C164.073 193.265 162.835 193.192 161.451 193.556C159.995 193.921 158.975 194.576 158.902 194.503Z" fill="#333333"/>
<path d="M160.505 198.146C160.505 198 161.524 197.781 162.908 197.636C164.219 197.49 165.311 197.417 165.311 197.563C165.311 197.709 164.292 197.927 162.908 198.073C161.597 198.291 160.505 198.291 160.505 198.146Z" fill="#333333"/>
<path d="M161.16 202.444C161.16 202.298 162.471 202.298 164 201.788C165.529 201.351 166.622 200.695 166.695 200.841C166.767 200.914 165.748 201.788 164.146 202.298C162.544 202.808 161.16 202.589 161.16 202.444Z" fill="#333333"/>
<path d="M162.616 207.106C162.616 206.96 163.854 206.887 165.311 206.305C166.767 205.795 167.714 205.066 167.86 205.139C167.933 205.212 166.986 206.159 165.529 206.742C163.927 207.325 162.616 207.252 162.616 207.106Z" fill="#333333"/>
<path d="M189.27 186.126C189.343 186.199 188.396 187.364 187.304 188.821C186.211 190.278 185.41 191.589 185.265 191.516C185.119 191.444 185.774 190.06 186.94 188.53C188.032 187.073 189.197 186.053 189.27 186.126Z" fill="#333333"/>
<path d="M164.219 187.583L150.236 185.47C150.236 185.47 148.998 182.192 146.814 182.046C144.629 181.901 142.663 184.232 141.133 184.086C139.531 183.94 120.815 177.676 119.796 186.126L127.588 189.331" fill="#FFBE9D"/>
<path d="M210.025 195.232L168.515 204.119L164.801 189.841L180.167 189.113C180.167 189.113 181.988 186.126 184.172 186.344C186.284 186.563 187.814 189.258 189.416 189.404C190.945 189.55 210.462 186.709 210.025 195.232Z" fill="#FFBE9D"/>
<path d="M131.157 170.026C131.157 170.026 131.011 170.099 130.792 170.172C130.574 170.318 130.21 170.463 129.7 170.682C128.753 171.119 127.37 171.702 125.549 172.503C121.908 174.033 116.665 176.218 110.11 178.841C103.556 181.463 95.764 184.523 87.2435 188.093C82.9469 189.914 78.359 191.589 73.9895 194.139L73.1885 194.649C73.1157 194.722 73.0428 194.722 73.0428 194.722C73.0428 194.649 73.0428 194.649 73.0428 194.649C73.1157 194.722 73.2613 194.722 73.407 194.795C73.9895 194.867 74.645 194.94 75.3004 194.94C76.6112 195.013 77.8492 194.94 79.1601 194.94C81.7817 194.867 84.4034 194.795 87.0979 194.649C97.803 194.066 107.998 193.338 117.247 192.609C126.496 191.881 134.871 191.225 141.862 190.642C148.853 190.059 154.533 189.622 158.466 189.258C160.432 189.112 161.961 188.967 162.981 188.894C163.49 188.821 163.855 188.821 164.146 188.821C164.437 188.821 164.583 188.821 164.583 188.821C164.583 188.821 164.437 188.821 164.219 188.894C163.927 188.894 163.563 188.967 163.053 189.04C162.034 189.112 160.505 189.258 158.538 189.477C154.606 189.841 148.926 190.351 141.934 191.006C134.943 191.589 126.569 192.318 117.32 193.046C108.071 193.775 97.8759 194.576 87.1707 195.086C84.4762 195.232 81.8546 195.377 79.2329 195.377C77.9221 195.377 76.6112 195.45 75.3004 195.377C74.645 195.377 73.9895 195.304 73.3341 195.232C73.1885 195.159 73.0428 195.159 72.8244 195.013C72.7515 194.94 72.6787 194.867 72.6787 194.795C72.6787 194.722 72.7515 194.576 72.7515 194.576C72.8244 194.503 72.8972 194.43 72.97 194.43L73.7711 193.92C78.2133 191.371 82.8013 189.695 87.0979 187.874C95.6911 184.304 103.483 181.245 110.038 178.695C116.592 176.146 121.835 174.033 125.476 172.503C127.297 171.775 128.68 171.119 129.627 170.755C130.064 170.536 130.428 170.391 130.72 170.318C131.011 170.099 131.157 170.026 131.157 170.026Z" fill="white"/>
<path d="M188.542 170.026C188.542 170.026 188.615 170.026 188.833 170.099C189.052 170.172 189.27 170.318 189.634 170.391C190.362 170.682 191.309 171.119 192.62 171.702C195.242 172.795 198.956 174.397 203.544 176.364C212.792 180.225 225.609 185.616 239.737 191.516C243.306 192.973 246.728 194.43 249.933 196.179C250.297 196.397 250.734 196.616 251.098 196.834C251.316 196.98 251.462 197.053 251.68 197.199C251.753 197.271 251.753 197.271 251.826 197.344C251.899 197.417 251.899 197.49 251.899 197.636C251.899 197.781 251.826 197.781 251.753 197.854C251.68 197.927 251.607 197.927 251.535 197.927C250.588 198.218 249.714 198.218 248.84 198.218C247.092 198.291 245.417 198.218 243.742 198.146C237.115 197.854 231.144 197.271 226.119 196.834C221.094 196.397 217.089 195.96 214.321 195.596C212.938 195.45 211.845 195.304 211.117 195.232C210.753 195.159 210.462 195.159 210.316 195.159C210.098 195.159 210.025 195.086 210.025 195.086C210.025 195.086 210.098 195.086 210.316 195.086C210.535 195.086 210.826 195.159 211.19 195.159C211.918 195.232 213.011 195.304 214.394 195.45C217.234 195.742 221.24 196.106 226.265 196.543C231.29 196.98 237.188 197.49 243.815 197.781C245.49 197.854 247.165 197.927 248.913 197.854C249.787 197.781 250.661 197.781 251.462 197.563L251.535 197.49C251.535 197.49 251.607 197.49 251.535 197.49C251.535 197.49 251.535 197.417 251.462 197.417C251.316 197.271 251.098 197.199 250.952 197.053C250.588 196.834 250.151 196.616 249.787 196.397C246.655 194.649 243.16 193.192 239.664 191.735C225.536 185.834 212.719 180.444 203.471 176.51C198.883 174.543 195.169 172.867 192.547 171.775C191.309 171.192 190.29 170.755 189.634 170.463C189.343 170.318 189.052 170.172 188.906 170.099C188.615 170.099 188.542 170.099 188.542 170.026Z" fill="white"/>
<path d="M157.883 86.543C165.092 87.0529 171.137 81.0794 170.7 73.8675C170.554 70.8807 170.409 68.5496 170.409 68.5496C170.409 68.5496 179.876 67.0927 180.021 57.5496C180.167 48.0794 178.492 26.2251 178.492 26.2251C167.496 21.49 154.824 23.0927 145.357 30.3774L143.973 31.4702L146.886 75.3245C147.178 81.298 151.911 86.1059 157.883 86.543Z" fill="#FFBE9D"/>
<path d="M170.408 68.4039C170.408 68.4039 164.437 68.9138 158.028 64.9072C158.028 64.9072 160.941 71.7549 170.408 70.8807V68.4039Z" fill="#EB996E"/>
<path d="M145.066 41.3045C144.92 41.2316 138.512 39.3376 138.73 45.8939C138.949 52.3773 145.43 50.8475 145.43 50.629C145.43 50.4833 145.066 41.3045 145.066 41.3045Z" fill="#FFBE9D"/>
<path d="M143.391 48.298C143.391 48.298 143.245 48.3708 143.099 48.4437C142.881 48.5165 142.59 48.5894 142.226 48.5165C141.497 48.298 140.915 47.2053 140.842 46.0397C140.842 45.4569 140.915 44.8741 141.133 44.437C141.352 43.9271 141.643 43.6357 141.934 43.5629C142.298 43.49 142.517 43.6357 142.59 43.8543C142.662 44 142.662 44.1457 142.662 44.1457C142.662 44.1457 142.808 44 142.735 43.7814C142.735 43.6357 142.59 43.49 142.444 43.4172C142.298 43.2715 142.08 43.2715 141.789 43.2715C141.279 43.3443 140.842 43.7814 140.623 44.2914C140.405 44.8013 140.259 45.4569 140.259 46.1125C140.332 47.4238 141.06 48.5894 142.007 48.8808C142.444 48.9536 142.808 48.8079 143.027 48.6622C143.318 48.4437 143.391 48.298 143.391 48.298Z" fill="#EB996E"/>
<path d="M157.082 40.3576C157.228 40.2119 158.247 40.9404 159.704 40.9404C161.16 40.9404 162.252 40.2119 162.398 40.3576C162.471 40.4305 162.325 40.7219 161.816 41.0861C161.379 41.4504 160.577 41.7418 159.631 41.7418C158.757 41.7418 157.956 41.3775 157.519 41.0861C157.155 40.7219 157.009 40.4305 157.082 40.3576Z" fill="#333333"/>
<path d="M171.428 40.0661C171.574 39.9204 172.594 40.6489 174.05 40.6489C175.507 40.6489 176.599 39.9204 176.745 40.0661C176.817 40.139 176.672 40.4304 176.162 40.7946C175.725 41.1589 174.924 41.4502 173.977 41.4502C173.103 41.4502 172.302 41.086 171.865 40.7946C171.501 40.4304 171.356 40.139 171.428 40.0661Z" fill="#333333"/>
<path d="M167.642 50.7019C167.642 50.6291 168.515 50.4834 170.045 50.2648C170.409 50.192 170.773 50.1192 170.846 49.9006C170.919 49.6092 170.773 49.245 170.627 48.8079C170.263 47.9337 169.899 46.9867 169.535 45.9668C168.006 41.9602 166.913 38.6092 167.059 38.5364C167.205 38.4635 168.588 41.6688 170.118 45.7483C170.482 46.7682 170.846 47.7152 171.137 48.5893C171.283 49.0264 171.501 49.4635 171.356 50.0463C171.283 50.3377 170.991 50.5562 170.773 50.5562C170.554 50.6291 170.336 50.6291 170.118 50.6291C168.515 50.7748 167.642 50.7748 167.642 50.7019Z" fill="#333333"/>
<path d="M163.345 51.7219C163.563 51.7219 163.563 53.3246 164.947 54.4173C166.331 55.51 168.006 55.3643 168.006 55.5829C168.006 55.6557 167.641 55.8742 166.913 55.8742C166.185 55.8742 165.165 55.6557 164.364 55.0001C163.563 54.3444 163.199 53.3974 163.126 52.7418C163.053 52.0862 163.199 51.7219 163.345 51.7219Z" fill="#333333"/>
<path d="M162.689 35.6226C162.544 35.9868 161.087 35.8411 159.412 36.0596C157.664 36.2053 156.281 36.7153 156.062 36.351C155.99 36.2053 156.208 35.8411 156.791 35.404C157.373 35.0398 158.247 34.6755 159.267 34.5298C160.286 34.3841 161.233 34.6027 161.888 34.8212C162.398 35.1126 162.762 35.4769 162.689 35.6226Z" fill="#333333"/>
<path d="M176.089 37.0066C175.798 37.3708 174.851 37.0066 173.613 37.0066C172.375 36.9338 171.355 37.2252 171.137 36.8609C171.064 36.7152 171.21 36.351 171.647 36.0596C172.084 35.7682 172.812 35.4768 173.686 35.5497C174.487 35.5497 175.215 35.841 175.652 36.2053C176.089 36.5695 176.235 36.8609 176.089 37.0066Z" fill="#333333"/>
<path d="M183.08 20.2517C183.153 19.0861 182.716 17.7748 181.769 17.1192C180.822 16.4636 179.293 16.4636 178.565 17.3378C179.002 15.7351 177.691 13.9139 176.089 13.8411C174.56 13.7682 173.249 14.9338 171.719 15.298C170.263 15.7351 168.661 15.3709 167.277 14.7881C165.893 14.2053 164.583 13.4768 163.126 12.8941C160.14 11.8013 156.79 11.947 153.877 13.2583C151.037 14.5695 148.707 17.0464 147.542 20.0331C145.43 19.3775 143.099 20.4702 141.789 22.2186C140.478 23.9669 140.187 26.298 140.405 28.4835C140.551 29.9404 140.988 31.3245 141.497 32.7815C141.497 32.9272 141.497 33 141.497 33.1457C141.57 38.3907 142.153 44.5099 144.41 44.5099C148.27 44.5828 147.396 37.2252 147.396 37.2252C152.13 35.404 150.382 28.2649 151.547 27.1722C152.712 26.0795 155.261 23.6027 165.238 28.702C169.098 30.6689 174.268 30.596 177.108 30.0133C177.181 30.0133 177.254 30.0133 177.327 29.9404H177.4H177.472C178.346 29.7219 179.22 29.3576 180.021 28.8477C180.895 28.2649 181.769 27.5364 182.133 26.5166C182.497 25.4967 182.352 24.2583 181.623 23.5298C182.425 22.5099 183.007 21.4172 183.08 20.2517Z" fill="#333333"/>
<path d="M173.613 7.79468C173.613 7.79468 173.686 7.86753 173.759 8.08607C173.904 8.23176 173.977 8.52315 174.123 8.88739C174.414 9.61587 174.56 10.7814 174.341 12.1655C174.05 13.5496 173.322 15.1523 171.719 16.245C170.117 17.3377 167.933 17.4834 165.894 17.192C163.782 16.9006 161.888 16.1722 160.14 15.8079C158.393 15.4437 156.718 15.3708 155.407 15.6622C154.096 15.9536 153.149 16.6092 152.567 17.1192C151.984 17.6291 151.838 17.9934 151.766 17.9934C151.766 17.9934 151.838 17.9205 151.911 17.702C151.984 17.5563 152.203 17.2649 152.494 16.9735C153.004 16.3907 154.023 15.7351 155.334 15.3708C156.718 15.0066 158.393 15.0066 160.213 15.3708C162.034 15.7351 163.927 16.3907 165.966 16.6821C168.005 16.9735 170.044 16.8278 171.574 15.8079C173.03 14.7881 173.831 13.2583 174.123 12.0198C174.414 10.7086 174.268 9.54302 174.05 8.81455C173.831 8.15892 173.54 7.86753 173.613 7.79468Z" fill="#4F4F4F"/>
<path d="M171.137 9.61597C171.137 9.61597 171.647 10.0531 171.719 11.0729C171.792 11.5829 171.719 12.1656 171.428 12.8213C171.137 13.404 170.627 13.9868 169.972 14.3511C169.316 14.7153 168.588 14.9338 167.932 14.9338C167.277 14.9338 166.694 14.861 166.185 14.7153C165.238 14.4239 164.728 14.0597 164.801 13.9868C164.801 13.914 165.384 14.2054 166.258 14.4239C167.131 14.6425 168.515 14.7153 169.753 13.9868C170.336 13.6226 170.845 13.1127 171.137 12.6027C171.428 12.0928 171.501 11.51 171.501 11.0729C171.428 10.1259 171.064 9.61597 171.137 9.61597Z" fill="#333333"/>
<path d="M204.418 166.02C204.418 166.02 205 170.537 200.485 173.013L190.071 168.642L177.254 169.517L182.279 155.821C182.279 155.821 196.625 157.57 198.664 159.245C200.776 160.775 204.563 163.835 204.418 166.02Z" fill="#E8505B"/>
<g opacity="0.4">
<path opacity="0.4" d="M204.418 166.02C204.418 166.02 205 170.537 200.485 173.013L190.071 168.642L177.254 169.517L182.279 155.821C182.279 155.821 196.625 157.57 198.664 159.245C200.776 160.775 204.563 163.835 204.418 166.02Z" fill="#333333"/>
</g>
<path d="M204.418 166.02C204.418 166.02 205 170.537 200.485 173.013L190.071 168.642L177.254 169.517L182.279 155.821C182.279 155.821 196.625 157.57 198.664 159.245C200.776 160.775 204.563 163.835 204.418 166.02Z" fill="#E8505B"/>
<g opacity="0.4">
<path opacity="0.4" d="M204.418 166.02C204.418 166.02 205 170.537 200.485 173.013L190.071 168.642L177.254 169.517L182.279 155.821C182.279 155.821 196.625 157.57 198.664 159.245C200.776 160.775 204.563 163.835 204.418 166.02Z" fill="#333333"/>
</g>
<path d="M215.195 104.391L214.176 103.517L192.183 86.3245C185.41 79.1126 180.458 76.9272 170.918 75.8345C169.389 75.6159 171.792 75.9801 170.918 75.8345C163.636 78.0927 153.805 78.3113 146.522 76.053C143.1 76.1987 140.332 77.2186 137.419 77.8013C128.316 79.5497 123.51 85.9603 119.941 92.298L102.391 121.801L103.119 122.967C105.595 126.755 109.236 129.596 113.533 131.126L114.698 131.709C118.776 133.748 122.49 136.662 125.039 140.378L132.759 126.828L130.574 148.536L129.045 169.808C139.968 172.795 149.071 174.033 160.796 173.887C176.089 173.96 197.426 155.311 204.272 166.093C204.345 160.556 197.426 152.98 195.46 149.338C189.489 137.974 190.581 133.384 190.144 124.788L200.412 131.053L202.233 127.483C203.762 124.424 206.748 117.649 207.84 112.404C208.059 112.258 209.297 102.424 215.195 104.391Z" fill="#E8505B"/>
<path d="M132.904 104.901C132.904 104.901 132.977 105.192 132.977 105.775C132.977 106.358 133.05 107.159 133.05 108.179C133.05 110.219 133.123 113.06 133.05 116.192C133.05 119.324 132.977 122.166 132.977 124.205C132.977 125.225 132.904 126.026 132.904 126.609C132.904 127.192 132.831 127.483 132.831 127.483C132.831 127.483 132.759 127.192 132.759 126.609C132.759 126.026 132.686 125.225 132.686 124.205C132.686 122.166 132.613 119.324 132.686 116.192C132.686 113.06 132.759 110.219 132.759 108.179C132.759 107.159 132.831 106.358 132.831 105.775C132.831 105.192 132.831 104.901 132.904 104.901Z" fill="#333333"/>
<path d="M191.6 139.285C191.6 139.285 191.528 138.775 191.455 137.901C191.382 136.954 191.236 135.643 191.091 134.113C190.799 130.907 190.508 126.537 190.144 121.656C189.78 116.775 189.489 112.404 189.343 109.199C189.27 107.669 189.197 106.358 189.124 105.411C189.052 104.537 189.052 104.027 189.124 104.027C189.124 104.027 189.197 104.537 189.27 105.411C189.343 106.358 189.489 107.669 189.634 109.199C189.926 112.404 190.217 116.775 190.581 121.656C190.945 126.537 191.236 130.907 191.382 134.113C191.455 135.643 191.528 136.954 191.6 137.901C191.6 138.775 191.6 139.285 191.6 139.285Z" fill="#333333"/>
<g opacity="0.2">
<g opacity="0.2">
<path opacity="0.2" d="M143.755 76.7815C148.416 83.3378 154.533 88.8742 161.451 92.8808C164 94.3378 166.767 95.649 169.68 95.8676C174.705 96.3047 179.512 93.5365 183.444 90.3312C184.973 89.0928 186.503 87.6358 187.158 85.7418C187.813 83.8477 187.304 81.3709 185.556 80.4967C184.318 79.8411 182.789 80.0596 181.551 80.6424C180.313 81.2252 179.22 82.0994 178.128 82.9007C173.103 86.4702 166.549 87.8543 160.504 86.7616C154.46 85.5961 148.853 81.9537 145.503 76.7815" fill="#333333"/>
</g>
</g>
<path d="M174.05 129.086C173.977 129.086 174.05 127.993 173.613 126.027C173.394 125.08 172.957 123.914 172.229 122.676C171.501 121.437 170.481 120.199 169.025 119.179C167.641 118.159 165.821 117.212 163.782 116.848C161.742 116.484 159.412 116.556 157.227 117.431C156.135 117.795 155.043 118.378 154.096 119.106C153.586 119.47 153.149 119.907 152.712 120.272C152.275 120.709 151.838 121.219 151.474 121.729C149.945 123.768 149.071 126.391 149.071 129.086C149.071 131.782 149.945 134.404 151.474 136.444C151.838 136.954 152.275 137.391 152.712 137.901C153.149 138.338 153.586 138.775 154.096 139.066C155.043 139.795 156.135 140.378 157.227 140.742C159.412 141.543 161.742 141.616 163.782 141.325C165.821 140.96 167.641 140.086 169.025 138.993C170.409 137.901 171.501 136.662 172.229 135.497C172.957 134.258 173.394 133.166 173.613 132.146C174.123 130.252 173.977 129.086 174.05 129.086C174.05 129.086 174.05 129.159 174.05 129.305C174.05 129.45 174.05 129.669 174.05 129.888C174.05 130.179 174.05 130.47 173.977 130.835C173.904 131.199 173.904 131.636 173.758 132.146C173.54 133.166 173.103 134.331 172.375 135.57C171.647 136.808 170.627 138.119 169.171 139.212C167.714 140.305 165.893 141.252 163.854 141.616C161.742 141.98 159.412 141.907 157.155 141.106C155.989 140.742 154.897 140.159 153.95 139.358C153.441 138.993 153.004 138.556 152.494 138.119C152.057 137.609 151.62 137.172 151.256 136.662C149.654 134.55 148.78 131.854 148.78 129.086C148.78 126.318 149.726 123.623 151.256 121.51C151.62 121 152.057 120.49 152.494 120.053C153.004 119.616 153.441 119.179 153.95 118.815C154.97 118.086 156.062 117.503 157.155 117.066C159.412 116.192 161.742 116.192 163.854 116.556C165.966 116.921 167.787 117.868 169.171 118.96C170.627 120.053 171.647 121.364 172.375 122.603C173.103 123.841 173.54 125.007 173.758 126.027C173.904 126.537 173.977 126.974 173.977 127.338C174.05 127.702 174.05 128.066 174.05 128.285C174.05 128.503 174.05 128.722 174.05 128.868C174.05 129.013 174.05 129.086 174.05 129.086Z" fill="white"/>
<path d="M161.087 141.689C161.014 141.689 160.869 136.08 160.869 129.086C160.869 122.166 160.941 116.484 161.087 116.484C161.233 116.484 161.306 122.093 161.306 129.086C161.306 136.08 161.233 141.689 161.087 141.689Z" fill="white"/>
<path d="M171.428 136.808C171.428 136.808 171.137 136.589 170.554 136.225C169.972 135.788 169.244 135.205 168.37 134.55C166.476 133.093 163.927 131.126 161.16 128.868C161.087 128.795 161.014 128.722 160.942 128.722H161.16C158.611 131.126 156.281 133.311 154.533 134.841C153.732 135.57 153.077 136.152 152.494 136.662C151.984 137.099 151.766 137.318 151.693 137.318C151.693 137.318 151.911 137.027 152.348 136.589C152.858 136.08 153.513 135.424 154.315 134.695C155.989 133.093 158.247 130.907 160.869 128.503L161.014 128.358L161.16 128.431C161.233 128.503 161.306 128.576 161.378 128.576C164.146 130.834 166.695 132.874 168.515 134.331C169.389 135.06 170.117 135.642 170.627 136.152C171.21 136.517 171.501 136.735 171.428 136.808Z" fill="white"/>
<g opacity="0.2">
<g opacity="0.2">
<path opacity="0.2" d="M150.746 162.742C161.451 164.781 172.957 160.192 179.439 151.523C180.458 150.139 181.478 148.391 181.041 146.715C180.604 144.967 178.638 143.801 176.817 143.874C174.997 143.947 173.322 144.894 171.938 146.132C168.588 149.046 166.695 153.344 163.345 156.258C160.359 158.881 156.354 160.265 152.421 160.046C151.838 159.973 151.183 160.046 150.6 160.119C149.799 160.265 149.217 160.993 149.217 161.576C149.144 162.305 149.727 162.596 150.746 162.742Z" fill="#333333"/>
</g>
</g>
<g opacity="0.2">
<path opacity="0.2" d="M189.416 111.457L190.29 124.715L200.631 130.98L202.743 126.974L189.416 111.457Z" fill="#333333"/>
</g>
<path d="M215.341 104.609C215.341 104.682 214.904 104.391 214.103 104.391C213.302 104.318 212.064 104.609 210.972 105.556C209.879 106.431 209.078 108.033 208.568 109.927C208.059 111.748 207.622 113.861 206.893 116.046C205.583 120.344 204.053 124.133 202.815 126.755C202.233 128.066 201.65 129.159 201.286 129.888C200.922 130.616 200.631 130.98 200.631 130.98C200.631 130.98 200.776 130.543 201.14 129.815C201.505 129.086 202.014 127.993 202.597 126.682C203.762 123.987 205.291 120.272 206.602 115.974C207.258 113.861 207.767 111.748 208.277 109.927C208.787 108.033 209.661 106.431 210.899 105.484C212.064 104.537 213.375 104.318 214.176 104.391C214.613 104.391 214.904 104.537 215.123 104.609C215.268 104.537 215.341 104.609 215.341 104.609Z" fill="#333333"/>
<path d="M125.112 140.305C125.112 140.305 124.821 140.013 124.384 139.43C123.874 138.848 123.219 137.973 122.272 137.099C121.325 136.152 120.087 135.132 118.631 134.185C117.101 133.238 115.354 132.364 113.533 131.417C111.712 130.47 109.965 129.523 108.508 128.503C107.052 127.483 105.814 126.391 104.867 125.444C103.92 124.424 103.338 123.55 102.973 122.821C102.755 122.53 102.682 122.238 102.609 122.02C102.537 121.801 102.464 121.728 102.537 121.728C102.609 121.656 103.265 123.258 105.085 125.225C106.032 126.172 107.27 127.192 108.727 128.212C110.183 129.232 111.931 130.106 113.751 131.053C115.572 132 117.32 132.874 118.849 133.821C120.378 134.768 121.616 135.861 122.563 136.808C123.51 137.755 124.165 138.629 124.602 139.285C124.821 139.576 124.966 139.868 125.112 140.013C125.039 140.159 125.112 140.305 125.112 140.305Z" fill="#333333"/>
<path d="M183.298 144.676C183.298 144.676 183.298 144.821 183.153 145.113C183.08 145.404 182.934 145.768 182.716 146.278C182.279 147.298 181.623 148.682 180.531 150.358C178.419 153.636 174.705 157.788 169.316 160.556C164 163.325 158.393 163.98 154.533 163.762C152.567 163.689 151.037 163.397 149.945 163.179C149.435 163.106 148.998 162.96 148.707 162.887C148.416 162.815 148.27 162.742 148.27 162.742C148.27 162.742 148.416 162.742 148.707 162.815C148.998 162.887 149.435 162.96 149.945 163.033C151.037 163.252 152.567 163.47 154.533 163.47C158.393 163.616 163.854 162.887 169.171 160.192C174.414 157.497 178.201 153.417 180.313 150.212C181.405 148.609 182.133 147.225 182.57 146.205C182.789 145.695 182.934 145.331 183.08 145.04C183.226 144.821 183.298 144.676 183.298 144.676Z" fill="#333333"/>
<g opacity="0.2">
<g opacity="0.2">
<path opacity="0.2" d="M125.767 138.775C126.568 128.212 129.044 117.722 132.904 107.815V126.682L125.767 138.775Z" fill="#333333"/>
</g>
</g>
<path d="M105.595 156.695L151.329 130.179C154.824 128.139 157.009 124.497 157.227 120.49L158.465 92.6621C158.465 91.9337 157.956 91.278 157.154 91.2052C156.499 91.1323 155.844 91.5694 155.625 92.225L149.799 113.132L95.3996 136.152C89.2823 138.775 86.6607 145.987 89.6465 151.887C92.5594 157.861 99.9147 160.046 105.595 156.695Z" fill="#FFBE9D"/>
<path d="M149.799 113.132C149.799 113.132 149.654 113.205 149.29 113.424C148.925 113.569 148.416 113.861 147.76 114.152C146.377 114.808 144.483 115.682 142.08 116.775C137.274 118.96 130.647 121.874 123.219 125.006C115.79 128.139 109.091 130.834 104.139 132.728C101.663 133.675 99.6963 134.477 98.3127 134.987C97.6572 135.205 97.1475 135.424 96.7105 135.569C96.3464 135.715 96.1279 135.788 96.1279 135.715C96.1279 135.715 96.2736 135.642 96.6377 135.497C97.0018 135.351 97.5844 135.132 98.2398 134.841C99.6235 134.258 101.59 133.457 103.993 132.51C108.872 130.543 115.572 127.775 123 124.642C130.428 121.51 137.055 118.596 141.862 116.483C144.265 115.463 146.158 114.589 147.615 114.006C148.27 113.715 148.78 113.497 149.144 113.351C149.581 113.205 149.799 113.132 149.799 113.132Z" fill="#EB996E"/>
<path d="M90.8845 154.364C90.8845 154.364 91.4671 154.291 92.5595 154C93.0692 153.854 93.7247 153.636 94.4529 153.344C95.1811 152.98 95.9094 152.543 96.7105 151.887C97.5115 151.305 98.3854 150.649 99.2593 149.92C100.206 149.192 101.153 148.391 102.099 147.516C104.139 145.841 106.323 143.874 109.091 142.563C111.858 141.179 114.698 140.523 117.32 140.232C119.941 140.013 122.345 140.232 124.311 140.596C126.277 140.96 127.806 141.543 128.826 141.98C129.336 142.199 129.7 142.417 129.991 142.563C130.282 142.709 130.355 142.781 130.355 142.781C130.355 142.781 130.21 142.709 129.918 142.636C129.627 142.563 129.263 142.344 128.753 142.126C127.734 141.762 126.204 141.179 124.238 140.815C122.272 140.45 119.941 140.305 117.32 140.523C114.698 140.815 111.931 141.47 109.236 142.854C106.542 144.166 104.284 146.06 102.318 147.735C101.298 148.609 100.352 149.411 99.4049 150.139C98.4582 150.867 97.5843 151.523 96.7833 152.106C95.9822 152.689 95.1811 153.199 94.4529 153.49C93.7247 153.854 93.0692 154 92.4867 154.146C91.9041 154.291 91.5399 154.291 91.2486 154.364C91.0302 154.364 90.8845 154.364 90.8845 154.364Z" fill="#333333"/>
<path d="M99.6235 150.066C99.6235 150.066 99.6964 150.358 99.7692 150.795C99.9148 151.232 100.133 151.815 100.643 152.47C101.153 153.053 101.954 153.636 102.973 154C103.993 154.364 105.231 154.364 106.323 153.854C106.469 153.782 106.542 153.782 106.615 153.709L106.542 153.927C106.105 152.835 105.377 151.96 104.503 151.305C103.702 150.649 102.828 150.358 102.027 150.212C100.643 149.848 99.6235 150.139 99.6235 150.066C99.6235 150.066 99.842 149.993 100.279 149.921C100.716 149.848 101.371 149.848 102.172 149.921C102.973 150.066 103.92 150.358 104.794 151.013C105.668 151.669 106.469 152.616 106.979 153.709L107.052 153.854L106.906 153.927C106.833 154 106.687 154.073 106.542 154.073C105.304 154.583 103.993 154.583 102.973 154.146C101.881 153.782 101.08 153.126 100.57 152.47C99.9877 151.815 99.7692 151.159 99.6964 150.649C99.6235 150.285 99.6235 150.066 99.6235 150.066Z" fill="#333333"/>
<path d="M99.6235 150.066C99.6964 149.993 100.716 150.43 101.881 151.159C103.046 151.815 103.993 152.47 103.92 152.543C103.847 152.616 102.828 152.179 101.663 151.45C100.497 150.795 99.6235 150.139 99.6235 150.066Z" fill="#333333"/>
<path d="M106.542 144.384C106.542 144.384 106.615 144.603 106.833 145.04C107.052 145.404 107.416 145.987 108.071 146.424C108.726 146.861 109.673 147.298 110.693 147.371C111.712 147.444 112.95 147.225 113.897 146.497C113.97 146.424 114.115 146.351 114.188 146.278V146.497C113.533 145.55 112.586 144.821 111.639 144.457C110.693 144.02 109.746 143.947 109.018 143.947C107.416 143.947 106.542 144.457 106.542 144.384C106.542 144.384 106.76 144.238 107.124 144.093C107.561 143.947 108.144 143.728 108.945 143.728C109.746 143.655 110.766 143.801 111.712 144.238C112.732 144.675 113.679 145.404 114.407 146.424L114.48 146.569L114.334 146.642C114.261 146.715 114.115 146.788 114.043 146.861C112.95 147.662 111.712 147.881 110.547 147.808C109.382 147.662 108.508 147.225 107.78 146.715C107.124 146.205 106.687 145.622 106.542 145.185C106.542 144.675 106.542 144.384 106.542 144.384Z" fill="#333333"/>
<path d="M106.542 144.384C106.542 144.311 107.634 144.53 109.018 144.894C110.329 145.258 111.421 145.695 111.348 145.768C111.348 145.841 110.256 145.622 108.872 145.258C107.561 144.894 106.542 144.457 106.542 144.384Z" fill="#333333"/>
<path d="M94.4529 153.272C94.4529 153.272 94.5986 153.053 94.8899 152.689C95.1812 152.325 95.4725 151.742 95.6181 150.94C95.7638 150.139 95.7638 149.119 95.3996 148.172C95.0355 147.152 94.3073 146.205 93.2877 145.623C93.2149 145.55 93.0693 145.477 92.9964 145.477L93.2149 145.404C92.6323 146.424 92.341 147.589 92.4139 148.609C92.4139 149.629 92.7051 150.503 92.9964 151.232C93.7247 152.616 94.5257 153.199 94.4529 153.272C94.4529 153.272 94.2345 153.126 93.9432 152.834C93.6519 152.543 93.2149 152.033 92.8508 151.305C92.4867 150.576 92.1954 149.629 92.1226 148.536C92.1226 147.444 92.341 146.278 92.9964 145.185L93.0693 145.04L93.2149 145.113C93.2877 145.185 93.4334 145.258 93.579 145.258C94.7442 145.914 95.5453 147.007 95.8366 148.027C96.2007 149.119 96.1279 150.139 95.9822 150.94C95.7638 151.742 95.3996 152.397 95.1083 152.689C94.6714 153.126 94.4529 153.272 94.4529 153.272Z" fill="#333333"/>
<path d="M94.4529 153.271C94.3801 153.271 94.0888 152.179 93.9431 150.795C93.7246 149.411 93.7246 148.318 93.7975 148.318C93.8703 148.318 94.1616 149.411 94.3072 150.795C94.4529 152.106 94.5257 153.199 94.4529 153.271Z" fill="#333333"/>
<path d="M111.494 141.834C111.494 141.834 111.712 141.762 112.076 141.543C112.441 141.324 112.95 141.033 113.387 140.45C113.824 139.868 114.188 138.993 114.334 138.046C114.407 137.099 114.188 136.007 113.606 135.06C113.533 134.987 113.46 134.914 113.387 134.768L113.606 134.841C112.732 135.424 112.076 136.298 111.639 137.099C111.203 137.973 111.13 138.775 111.057 139.503C111.13 141.033 111.567 141.834 111.494 141.834C111.494 141.834 111.348 141.616 111.203 141.252C111.057 140.887 110.911 140.305 110.838 139.576C110.838 138.848 110.911 137.901 111.348 137.026C111.785 136.152 112.441 135.205 113.387 134.55L113.533 134.477L113.606 134.622C113.679 134.695 113.751 134.768 113.824 134.914C114.48 135.934 114.771 137.099 114.625 138.119C114.48 139.139 114.043 140.013 113.533 140.596C113.023 141.179 112.513 141.543 112.076 141.689C111.712 141.907 111.494 141.907 111.494 141.834Z" fill="#333333"/>
<path d="M111.494 141.835C111.421 141.835 111.639 140.815 112.003 139.576C112.368 138.338 112.805 137.391 112.877 137.464C112.95 137.464 112.732 138.484 112.368 139.722C112.003 140.96 111.567 141.907 111.494 141.835Z" fill="#333333"/>
<path d="M117.392 140.378C117.392 140.378 117.392 140.597 117.32 141.034C117.32 141.471 117.32 142.054 117.684 142.71C117.975 143.365 118.558 144.094 119.286 144.676C120.087 145.259 121.106 145.551 122.272 145.478C122.344 145.478 122.49 145.478 122.563 145.405L122.417 145.623C122.344 144.531 121.908 143.584 121.398 142.782C120.888 141.981 120.16 141.471 119.577 141.107C118.266 140.451 117.32 140.451 117.392 140.378C117.392 140.378 117.611 140.378 118.048 140.378C118.485 140.451 119.067 140.597 119.723 140.888C120.378 141.253 121.106 141.763 121.689 142.564C122.272 143.365 122.709 144.385 122.854 145.551V145.696H122.709C122.563 145.696 122.49 145.769 122.344 145.769C121.106 145.915 120.014 145.478 119.14 144.895C118.339 144.239 117.757 143.438 117.465 142.782C117.174 142.054 117.174 141.398 117.247 140.961C117.247 140.524 117.32 140.378 117.392 140.378Z" fill="#333333"/>
<path d="M117.392 140.378C117.465 140.305 118.193 141.033 119.067 141.907C119.941 142.854 120.597 143.656 120.451 143.729C120.378 143.801 119.65 143.073 118.776 142.199C117.902 141.252 117.247 140.45 117.392 140.378Z" fill="#333333"/>
<path d="M121.616 140.159C121.616 140.086 122.49 140.378 123.655 139.795C124.238 139.503 124.821 138.993 125.33 138.338C125.767 137.609 126.059 136.735 125.913 135.788C125.913 135.715 125.913 135.57 125.84 135.497L126.059 135.642C125.112 135.788 124.311 136.152 123.655 136.662C123 137.172 122.563 137.755 122.272 138.265C121.689 139.358 121.689 140.159 121.616 140.159C121.616 140.159 121.544 139.94 121.616 139.576C121.616 139.212 121.762 138.702 122.053 138.119C122.345 137.536 122.782 136.881 123.437 136.298C124.092 135.788 124.966 135.351 125.986 135.205H126.131V135.351C126.131 135.424 126.204 135.57 126.204 135.642C126.35 136.662 126.059 137.682 125.549 138.483C125.039 139.212 124.384 139.722 123.728 140.013C123.073 140.305 122.563 140.305 122.126 140.305C121.762 140.305 121.616 140.232 121.616 140.159Z" fill="#333333"/>
<path d="M121.616 140.159C121.543 140.086 122.126 139.358 122.927 138.629C123.728 137.828 124.384 137.245 124.456 137.318C124.529 137.391 123.947 138.119 123.146 138.848C122.345 139.649 121.689 140.232 121.616 140.159Z" fill="#333333"/>
<path d="M103.119 146.788C103.119 146.788 103.265 146.569 103.556 146.205C103.847 145.841 104.138 145.258 104.284 144.457C104.43 143.655 104.43 142.636 104.066 141.689C103.702 140.669 102.973 139.722 101.954 139.139C101.881 139.066 101.735 138.993 101.662 138.993L101.881 138.92C101.298 139.94 101.007 141.106 101.08 142.126C101.08 143.146 101.371 144.02 101.662 144.748C102.318 146.132 103.192 146.715 103.119 146.788C103.119 146.788 102.9 146.642 102.609 146.351C102.318 146.059 101.881 145.55 101.517 144.821C101.153 144.093 100.861 143.146 100.789 142.053C100.789 140.96 101.007 139.795 101.662 138.702L101.735 138.556L101.881 138.629C101.954 138.702 102.099 138.702 102.245 138.775C103.41 139.43 104.211 140.523 104.503 141.543C104.867 142.636 104.794 143.655 104.648 144.457C104.503 145.258 104.066 145.914 103.774 146.205C103.337 146.642 103.119 146.788 103.119 146.788Z" fill="#333333"/>
<path d="M103.119 146.788C103.046 146.788 102.755 145.695 102.609 144.311C102.391 142.927 102.391 141.834 102.463 141.834C102.536 141.834 102.828 142.927 102.973 144.311C103.119 145.622 103.192 146.715 103.119 146.788Z" fill="#333333"/>
<path d="M215.996 148.901L169.389 128.066C165.821 126.463 163.345 123.185 162.762 119.324L158.829 92.735C158.757 92.0066 159.194 91.3509 159.922 91.2052C160.577 91.0595 161.233 91.4238 161.451 92.0794L169.17 111.53L223.716 128.139C230.561 130.324 233.183 136.735 230.853 142.709C228.595 148.682 221.822 151.523 215.996 148.901Z" fill="#FFBE9D"/>
<path d="M169.17 111.53C169.17 111.53 169.389 111.603 169.753 111.675C170.117 111.821 170.7 111.967 171.355 112.185C172.739 112.622 174.705 113.205 177.108 114.007C181.987 115.536 188.614 117.649 196.043 119.907C203.471 122.166 210.17 124.132 215.05 125.517C217.453 126.245 219.419 126.755 220.803 127.192C221.458 127.411 221.968 127.556 222.405 127.629C222.769 127.775 222.915 127.775 222.915 127.848C222.915 127.848 222.696 127.848 222.332 127.702C221.968 127.629 221.385 127.483 220.73 127.338C219.346 126.973 217.38 126.464 214.904 125.808C210.025 124.497 203.252 122.53 195.824 120.272C188.396 118.013 181.696 115.901 176.89 114.298C174.487 113.497 172.593 112.841 171.209 112.404C170.554 112.185 170.044 111.967 169.68 111.894C169.316 111.603 169.17 111.53 169.17 111.53Z" fill="#EB996E"/>
<path d="M229.906 145.185C229.906 145.185 229.76 145.185 229.469 145.185C229.178 145.185 228.741 145.185 228.231 145.112C227.721 145.04 227.066 144.967 226.337 144.675C225.609 144.457 224.808 144.02 224.007 143.583C223.206 143.073 222.259 142.563 221.313 141.98C220.366 141.397 219.346 140.742 218.327 140.013C216.215 138.629 213.884 137.026 211.19 136.006C208.496 134.987 205.655 134.622 203.179 134.55C200.631 134.55 198.373 134.987 196.552 135.497C194.732 136.006 193.348 136.662 192.329 137.172C191.819 137.391 191.527 137.609 191.236 137.755C191.018 137.901 190.872 137.973 190.872 137.973C190.872 137.973 191.018 137.901 191.236 137.682C191.455 137.536 191.819 137.318 192.256 137.026C193.202 136.516 194.586 135.788 196.407 135.205C198.227 134.622 200.558 134.185 203.107 134.185C205.655 134.185 208.496 134.55 211.263 135.569C214.03 136.589 216.361 138.192 218.472 139.649C219.492 140.377 220.512 141.033 221.458 141.689C222.405 142.271 223.279 142.854 224.153 143.291C224.954 143.801 225.755 144.165 226.483 144.457C227.211 144.748 227.867 144.821 228.377 144.894C229.25 145.112 229.906 145.112 229.906 145.185Z" fill="#333333"/>
<path d="M221.021 141.907C221.021 141.907 221.094 142.126 221.094 142.636C221.094 143.073 220.948 143.728 220.439 144.457C220.002 145.112 219.273 145.841 218.254 146.351C217.234 146.788 215.996 147.006 214.758 146.642C214.613 146.642 214.54 146.569 214.394 146.497L214.249 146.424L214.321 146.278C214.685 145.112 215.341 144.165 216.142 143.437C216.943 142.708 217.817 142.344 218.545 142.126C219.273 141.907 219.929 141.907 220.366 141.907C220.803 141.834 221.021 141.907 221.021 141.907C221.021 141.98 220.074 141.834 218.618 142.271C217.89 142.49 217.089 142.927 216.36 143.583C215.632 144.238 215.05 145.185 214.685 146.278L214.54 146.059C214.613 146.059 214.758 146.132 214.831 146.132C215.923 146.497 217.161 146.351 218.035 145.914C218.982 145.477 219.638 144.821 220.147 144.238C220.584 143.583 220.803 143 220.876 142.563C221.021 142.199 221.021 141.907 221.021 141.907Z" fill="#333333"/>
<path d="M221.021 141.907C221.094 141.98 220.293 142.708 219.201 143.51C218.108 144.311 217.162 144.894 217.162 144.748C217.089 144.675 217.89 143.947 218.982 143.145C220.002 142.417 220.948 141.834 221.021 141.907Z" fill="#333333"/>
<path d="M213.812 137.172C213.812 137.172 213.812 137.463 213.739 137.901C213.593 138.338 213.302 138.993 212.719 139.503C212.137 140.086 211.263 140.596 210.17 140.814C209.078 141.033 207.84 140.887 206.748 140.305C206.602 140.232 206.529 140.159 206.456 140.086L206.311 140.013L206.384 139.867C206.966 138.775 207.84 138.046 208.787 137.536C209.734 137.026 210.607 136.808 211.408 136.808C212.21 136.808 212.792 136.881 213.229 137.026C213.666 137.026 213.812 137.172 213.812 137.172C213.812 137.245 212.865 136.881 211.408 136.954C210.68 137.026 209.806 137.245 208.932 137.755C208.059 138.265 207.258 138.993 206.675 140.013L206.602 139.795C206.675 139.867 206.821 139.94 206.893 139.94C207.913 140.523 209.078 140.669 210.098 140.45C211.117 140.232 211.918 139.795 212.501 139.285C213.083 138.775 213.448 138.192 213.593 137.828C213.739 137.391 213.812 137.172 213.812 137.172Z" fill="#333333"/>
<path d="M213.812 137.172C213.885 137.245 212.865 137.755 211.627 138.265C210.389 138.775 209.369 139.139 209.297 138.993C209.224 138.921 210.243 138.411 211.481 137.901C212.792 137.391 213.812 137.099 213.812 137.172Z" fill="#333333"/>
<path d="M226.337 144.457C226.337 144.457 226.119 144.384 225.755 144.093C225.391 143.801 224.954 143.291 224.735 142.49C224.517 141.689 224.371 140.742 224.59 139.649C224.808 138.556 225.463 137.463 226.483 136.735C226.556 136.662 226.701 136.589 226.774 136.516L226.92 136.444L226.993 136.589C227.721 137.609 228.085 138.702 228.158 139.722C228.231 140.742 228.012 141.689 227.721 142.417C227.43 143.146 227.066 143.656 226.774 144.02C226.556 144.311 226.337 144.457 226.337 144.457C226.264 144.384 226.993 143.728 227.503 142.344C227.721 141.616 227.939 140.742 227.794 139.795C227.721 138.848 227.357 137.755 226.701 136.808L226.92 136.881C226.847 136.954 226.701 137.026 226.629 137.099C225.682 137.755 225.099 138.775 224.808 139.795C224.59 140.814 224.662 141.761 224.881 142.49C225.099 143.218 225.463 143.728 225.755 144.093C226.119 144.311 226.337 144.457 226.337 144.457Z" fill="#333333"/>
<path d="M226.337 144.457C226.264 144.457 226.192 143.364 226.192 142.053C226.264 140.742 226.337 139.649 226.483 139.649C226.556 139.649 226.629 140.742 226.629 142.053C226.556 143.364 226.41 144.457 226.337 144.457Z" fill="#333333"/>
<path d="M208.787 135.278C208.787 135.278 208.568 135.278 208.131 135.205C207.694 135.132 207.112 134.841 206.602 134.331C206.092 133.748 205.583 133.02 205.291 132.073C205.073 131.126 205.146 129.887 205.728 128.867C205.801 128.795 205.874 128.649 205.874 128.576L205.947 128.43L206.092 128.503C207.112 129.013 207.84 129.815 208.277 130.689C208.787 131.49 208.932 132.364 209.005 133.093C209.078 133.821 208.932 134.404 208.86 134.768C208.932 135.06 208.86 135.278 208.787 135.278C208.714 135.278 209.005 134.404 208.86 133.093C208.787 132.437 208.568 131.636 208.059 130.834C207.622 130.033 206.893 129.305 205.947 128.867L206.165 128.795C206.092 128.868 206.092 128.94 206.02 129.086C205.51 130.033 205.437 131.126 205.583 132C205.801 132.874 206.238 133.675 206.748 134.185C207.185 134.695 207.767 134.987 208.131 135.132C208.568 135.205 208.86 135.205 208.787 135.278Z" fill="#333333"/>
<path d="M208.787 135.278C208.714 135.351 208.204 134.477 207.694 133.311C207.185 132.218 206.893 131.271 206.966 131.199C207.039 131.126 207.549 132 208.059 133.165C208.568 134.258 208.932 135.205 208.787 135.278Z" fill="#333333"/>
<path d="M203.034 134.405C203.034 134.405 203.179 134.623 203.252 134.988C203.325 135.425 203.398 136.007 203.179 136.736C202.961 137.464 202.524 138.266 201.796 138.994C201.067 139.65 199.975 140.16 198.81 140.16C198.664 140.16 198.591 140.16 198.446 140.16H198.3V140.014C198.3 138.921 198.591 137.829 199.101 137.027C199.611 136.226 200.266 135.57 200.849 135.206C201.431 134.842 202.014 134.623 202.378 134.55C202.815 134.405 203.034 134.405 203.034 134.405C203.034 134.478 202.16 134.623 201.067 135.425C200.485 135.789 199.902 136.372 199.465 137.173C199.028 137.974 198.737 138.921 198.737 140.014L198.591 139.796C198.664 139.796 198.81 139.796 198.883 139.796C199.975 139.796 200.922 139.358 201.65 138.703C202.305 138.12 202.742 137.319 203.034 136.663C203.252 136.007 203.252 135.425 203.179 134.988C203.106 134.623 203.034 134.405 203.034 134.405Z" fill="#333333"/>
<path d="M203.034 134.404C203.106 134.477 202.597 135.278 201.868 136.298C201.14 137.245 200.485 138.046 200.412 137.973C200.339 137.901 200.849 137.099 201.577 136.079C202.305 135.06 202.961 134.331 203.034 134.404Z" fill="#333333"/>
<path d="M198.956 134.695C198.956 134.695 198.81 134.841 198.446 134.914C198.082 134.987 197.572 134.987 196.917 134.841C196.261 134.623 195.606 134.258 195.023 133.53C194.441 132.874 194.076 131.927 194.076 130.907C194.076 130.834 194.076 130.689 194.076 130.616V130.47H194.222C195.169 130.47 196.116 130.834 196.771 131.272C197.499 131.709 197.936 132.291 198.3 132.874C198.592 133.384 198.737 133.894 198.81 134.258C198.956 134.477 198.956 134.695 198.956 134.695C198.883 134.695 198.81 133.967 198.155 132.947C197.863 132.437 197.354 131.927 196.698 131.49C196.043 131.053 195.169 130.762 194.295 130.762L194.513 130.616C194.513 130.689 194.513 130.762 194.513 130.907C194.513 131.854 194.805 132.728 195.314 133.311C195.824 133.894 196.48 134.331 197.062 134.55C198.155 134.987 198.956 134.55 198.956 134.695Z" fill="#333333"/>
<path d="M198.956 134.695C198.883 134.768 198.155 134.331 197.354 133.603C196.552 132.947 195.897 132.291 195.97 132.219C196.043 132.146 196.771 132.583 197.572 133.311C198.373 133.967 199.029 134.55 198.956 134.695Z" fill="#333333"/>
<path d="M217.38 139.139C217.38 139.139 217.162 139.066 216.797 138.775C216.433 138.483 215.996 137.973 215.778 137.172C215.559 136.371 215.414 135.424 215.632 134.331C215.851 133.238 216.506 132.146 217.526 131.417C217.599 131.344 217.744 131.271 217.817 131.199L217.963 131.126L218.035 131.271C218.764 132.291 219.128 133.384 219.201 134.404C219.273 135.424 219.055 136.371 218.764 137.099C218.472 137.828 218.108 138.338 217.817 138.702C217.599 138.993 217.38 139.139 217.38 139.139C217.307 139.066 218.035 138.411 218.545 137.026C218.764 136.298 218.982 135.424 218.837 134.477C218.764 133.53 218.4 132.437 217.744 131.49L217.963 131.563C217.89 131.636 217.744 131.709 217.671 131.781C216.725 132.437 216.142 133.457 215.851 134.477C215.632 135.497 215.705 136.444 215.924 137.172C216.142 137.901 216.506 138.411 216.797 138.775C217.162 138.92 217.38 139.066 217.38 139.139Z" fill="#333333"/>
<path d="M217.38 139.139C217.307 139.139 217.234 138.046 217.234 136.735C217.307 135.424 217.38 134.331 217.526 134.331C217.598 134.331 217.671 135.424 217.671 136.735C217.598 138.046 217.453 139.139 217.38 139.139Z" fill="#333333"/>
<path d="M22.1386 248.556C22.1386 248.556 22.2114 248.411 22.2842 248.265C22.357 248.046 22.5027 247.755 22.7212 247.318C23.0853 246.517 23.5951 245.278 23.9592 243.603C24.8331 240.325 25.1244 235.298 23.8864 229.397C23.3038 226.411 22.357 223.205 21.2647 219.854C20.1723 216.43 18.8615 212.861 17.7691 209C16.7496 205.139 15.8757 200.914 16.0213 196.47C16.167 192.027 17.4778 187.656 18.9343 183.212C20.3908 178.841 21.8473 174.47 22.2842 170.172C22.794 165.874 21.8473 161.576 19.881 158.152C17.9876 154.656 15.5844 151.596 13.7638 148.536C11.9432 145.404 10.778 142.272 10.1226 139.285C8.73893 133.311 9.2487 128.285 9.90412 124.934C10.6324 121.583 11.4334 119.834 11.4334 119.834C11.4334 119.834 11.4334 119.98 11.3606 120.199C11.2878 120.417 11.215 120.781 11.0693 121.146C10.778 122.02 10.4867 123.258 10.1226 124.934C9.53999 128.285 9.10305 133.238 10.4867 139.212C11.215 142.126 12.3801 145.331 14.2007 148.391C16.0213 151.45 18.4245 154.437 20.318 158.007C22.357 161.503 23.3038 165.874 22.794 170.318C22.357 174.689 20.8277 179.06 19.4441 183.431C17.9876 187.801 16.6768 192.172 16.5311 196.543C16.3855 200.914 17.1865 205.066 18.2061 208.927C19.2256 212.788 20.5364 216.431 21.6288 219.782C22.7212 223.205 23.6679 226.411 24.2505 229.397C25.4885 235.371 25.1244 240.47 24.1777 243.748C23.7407 245.424 23.2309 246.589 22.794 247.464C22.5755 247.828 22.4299 248.119 22.2842 248.338C22.2114 248.411 22.1386 248.556 22.1386 248.556Z" fill="#333333"/>
<path d="M16.3126 151.523C16.3126 151.523 12.6714 139.868 19.2256 133.02C19.444 132.801 19.881 132.874 19.9538 133.238C20.2451 135.132 20.682 141.033 16.3126 151.523Z" fill="#E8505B"/>
<path d="M18.4975 136.881C18.5703 136.881 18.4246 137.682 18.279 139.066C18.0605 140.523 17.7692 142.272 17.4779 144.238C17.1866 146.133 16.8953 147.881 16.6768 149.411C16.4584 150.722 16.3856 151.523 16.3127 151.523C16.2399 151.523 16.2399 150.722 16.3856 149.338C16.5312 148.027 16.7497 146.205 17.041 144.166C17.4051 142.126 17.6964 140.305 17.9877 139.066C18.2062 137.682 18.4246 136.881 18.4975 136.881Z" fill="#333333"/>
<path d="M20.5371 178.987C20.5371 178.987 22.7947 166.967 31.752 163.98C32.0433 163.907 32.4074 164.199 32.2618 164.49C31.6792 166.384 29.3488 171.775 20.5371 178.987Z" fill="#E8505B"/>
<path d="M29.3482 167.113C29.421 167.185 28.9112 167.841 28.1102 168.934C27.2363 170.099 26.1439 171.556 24.9787 173.086C23.8135 174.616 22.7212 176.073 21.8473 177.238C21.0462 178.331 20.5364 178.987 20.5364 178.914C20.4636 178.914 20.9006 178.185 21.6288 177.02C22.3571 175.927 23.4494 174.397 24.6874 172.795C25.9254 171.192 27.0906 169.735 27.9645 168.715C28.6928 167.695 29.2753 167.113 29.3482 167.113Z" fill="#333333"/>
<path d="M18.1332 209.146C18.1332 209.146 16.7496 196.98 24.4689 191.517C24.7602 191.298 25.1243 191.517 25.1243 191.881C25.1243 193.848 24.4689 199.676 18.1332 209.146Z" fill="#E8505B"/>
<path d="M23.0852 195.232C23.1581 195.232 22.8668 196.033 22.4298 197.272C21.92 198.656 21.3375 200.331 20.6092 202.152C19.9538 203.974 19.3712 205.649 18.8614 207.033C18.4245 208.272 18.1332 209.073 18.0604 209.073C17.9875 209.073 18.1332 208.272 18.5701 206.96C18.9343 205.649 19.5168 203.901 20.2451 202.007C20.9733 200.113 21.6287 198.364 22.1385 197.126C22.6483 195.96 23.0124 195.232 23.0852 195.232Z" fill="#333333"/>
<path d="M24.9057 239.45C24.9057 239.45 23.959 227.285 31.8968 222.113C32.1881 221.967 32.5523 222.113 32.5523 222.477C32.4066 224.444 31.5327 230.272 24.9057 239.45Z" fill="#E8505B"/>
<path d="M30.2948 225.755C30.3676 225.755 30.0763 226.556 29.5665 227.795C28.9839 229.179 28.3285 230.781 27.6003 232.603C26.872 234.424 26.2166 236.027 25.634 237.411C25.1243 238.649 24.833 239.45 24.7601 239.378C24.6873 239.378 24.9058 238.576 25.3427 237.265C25.7797 236.027 26.4351 234.278 27.1633 232.384C27.9644 230.49 28.6926 228.815 29.2752 227.576C29.8578 226.411 30.2948 225.682 30.2948 225.755Z" fill="#333333"/>
<path d="M11.0693 141.252C11.0693 141.252 0.218472 135.57 0 126.172C0 125.808 0.364121 125.662 0.655417 125.808C2.25755 126.901 6.69982 130.762 11.0693 141.252Z" fill="#E8505B"/>
<path d="M2.25761 129.378C2.33044 129.378 2.84021 129.96 3.64127 131.053C4.51516 132.292 5.5347 133.676 6.69989 135.278C7.86507 136.881 8.88461 138.265 9.7585 139.504C10.5596 140.596 11.0693 141.252 10.9965 141.252C10.9237 141.325 10.3411 140.669 9.54003 139.649C8.66614 138.629 7.57378 137.172 6.33577 135.497C5.17058 133.821 4.07822 132.292 3.4228 131.199C2.62173 130.179 2.18479 129.451 2.25761 129.378Z" fill="#333333"/>
<path d="M22.6482 166.311C22.6482 166.311 11.5061 161.358 10.7051 151.887C10.7051 151.523 10.9964 151.305 11.2877 151.523C13.0355 152.543 17.6962 156.04 22.6482 166.311Z" fill="#E8505B"/>
<path d="M13.1812 155.02C13.254 154.947 13.7638 155.603 14.6377 156.623C15.5844 157.788 16.6768 159.172 17.9148 160.629C19.1528 162.159 20.2451 163.47 21.2647 164.636C22.1386 165.656 22.6483 166.311 22.5755 166.311C22.5027 166.384 21.9201 165.801 20.9734 164.854C20.0267 163.907 18.8615 162.523 17.5506 160.921C16.2398 159.318 15.1474 157.861 14.3464 156.768C13.5453 155.748 13.1084 155.02 13.1812 155.02Z" fill="#333333"/>
<path d="M16.2398 194.212C16.2398 194.212 8.5933 184.669 12.1617 175.927C12.3073 175.636 12.6714 175.563 12.8899 175.854C13.9095 177.603 16.4583 182.848 16.2398 194.212Z" fill="#E8505B"/>
<path d="M12.9628 179.861C13.0356 179.861 13.2541 180.662 13.5454 181.974C13.8367 183.431 14.2736 185.179 14.6377 187.073C15.0747 188.967 15.4388 190.715 15.7301 192.172C16.0214 193.484 16.2399 194.285 16.1671 194.285C16.0942 194.285 15.8029 193.556 15.4388 192.245C15.0747 190.934 14.6377 189.186 14.2008 187.146C13.7639 185.179 13.3997 183.358 13.2541 182.047C12.9628 180.662 12.89 179.861 12.9628 179.861Z" fill="#333333"/>
<path d="M23.8136 227.139C23.8136 227.139 12.7443 221.967 12.0889 212.497C12.0889 212.133 12.453 211.914 12.6715 212.133C14.4192 213.152 19.0072 216.795 23.8136 227.139Z" fill="#E8505B"/>
<path d="M14.565 215.629C14.6378 215.556 15.1476 216.212 16.0214 217.232C16.9682 218.398 18.0605 219.782 19.2257 221.311C20.4637 222.841 21.5561 224.225 22.5028 225.391C23.3039 226.411 23.8864 227.066 23.8136 227.139C23.7408 227.212 23.1582 226.629 22.2843 225.609C21.4104 224.59 20.1724 223.205 18.9344 221.603C17.6964 220 16.604 218.543 15.803 217.45C14.9291 216.431 14.4921 215.702 14.565 215.629Z" fill="#333333"/>
<path d="M45.8793 179.06C45.8793 179.06 45.8793 179.133 45.8793 179.351C45.8793 179.57 45.8793 179.788 45.8793 180.153C45.8793 180.881 45.8064 181.901 45.7336 183.139C45.588 185.762 45.3695 189.404 45.151 193.702C44.35 198.146 42.0924 203.027 39.1066 207.762C36.9219 211.258 34.5915 214.464 32.5524 217.451C30.5134 220.437 28.8384 223.133 27.6732 225.537C26.508 227.941 25.7798 230.053 25.3428 231.51C25.1244 232.239 24.9787 232.821 24.9059 233.186C24.8331 233.55 24.7603 233.768 24.7603 233.768C24.7603 233.768 24.7603 233.55 24.8331 233.186C24.9059 232.821 24.9787 232.239 25.1972 231.437C25.5613 229.98 26.2167 227.868 27.3819 225.391C28.5471 222.914 30.2221 220.146 32.2611 217.159C34.2274 214.172 36.5578 210.967 38.7425 207.47C41.7283 202.735 43.9858 197.927 44.7869 193.557C45.0782 189.186 45.3695 185.616 45.5151 182.994C45.588 181.755 45.6608 180.735 45.7336 180.007C45.7336 179.715 45.8064 179.424 45.8064 179.206C45.8793 179.206 45.8793 179.06 45.8793 179.06Z" fill="#333333"/>
<path d="M39.3249 206.888C39.3249 206.888 43.9857 195.596 38.0869 188.239C37.8684 187.947 37.4315 188.02 37.3587 188.384C36.8489 190.206 35.9022 196.033 39.3249 206.888Z" fill="#E8505B"/>
<path d="M38.4511 192.1C38.5239 192.1 38.6696 192.901 38.8152 194.212C38.9609 195.523 39.1793 197.345 39.325 199.384C39.4706 201.424 39.5435 203.245 39.5435 204.629C39.5435 205.941 39.4706 206.815 39.3978 206.815C39.325 206.815 39.2522 206.013 39.1793 204.629C39.1065 203.1 38.9609 201.351 38.8152 199.457C38.6696 197.49 38.5239 195.742 38.4511 194.285C38.3783 192.974 38.3783 192.1 38.4511 192.1Z" fill="#333333"/>
<g opacity="0.3">
<g opacity="0.3">
<g opacity="0.3">
<g opacity="0.3">
<path opacity="0.3" d="M39.3249 206.888C39.3249 206.888 43.9857 195.596 38.0869 188.239C37.8684 187.947 37.4315 188.02 37.3587 188.384C36.8489 190.206 35.9022 196.033 39.3249 206.888Z" fill="#333333"/>
</g>
</g>
</g>
</g>
<path d="M24.7602 234.06C24.7602 234.06 28.547 222.404 22.0657 215.557C21.8472 215.338 21.4103 215.411 21.3374 215.775C20.9733 217.669 20.5364 223.497 24.7602 234.06Z" fill="#E8505B"/>
<path d="M22.721 219.417C22.7939 219.417 23.0123 220.219 23.2308 221.53C23.5221 222.841 23.8134 224.663 24.1775 226.702C24.4688 228.742 24.6873 230.563 24.8329 231.874C24.9058 233.186 24.9058 234.06 24.9058 234.06C24.8329 234.06 24.7601 233.259 24.5416 231.947C24.3232 230.49 24.0319 228.742 23.7406 226.775C23.4493 224.881 23.158 223.133 22.9395 221.603C22.7939 220.292 22.6482 219.49 22.721 219.417Z" fill="#333333"/>
<g opacity="0.3">
<g opacity="0.3">
<g opacity="0.3">
<g opacity="0.3">
<path opacity="0.3" d="M24.7602 234.06C24.7602 234.06 28.547 222.404 22.0657 215.557C21.8472 215.338 21.4103 215.411 21.3374 215.775C20.9733 217.669 20.5364 223.497 24.7602 234.06Z" fill="#333333"/>
</g>
</g>
</g>
</g>
<path d="M45.2966 193.047C45.2966 193.047 55.2735 186.053 54.3268 176.656C54.3268 176.292 53.8899 176.146 53.6714 176.364C52.1421 177.749 48.2096 182.119 45.2966 193.047Z" fill="#E8505B"/>
<g opacity="0.3">
<g opacity="0.3">
<g opacity="0.3">
<g opacity="0.3">
<path opacity="0.3" d="M45.2966 193.047C45.2966 193.047 55.2735 186.053 54.3268 176.656C54.3268 176.292 53.8899 176.146 53.6714 176.364C52.1421 177.749 48.2096 182.119 45.2966 193.047Z" fill="#333333"/>
</g>
</g>
</g>
</g>
<path d="M52.4334 180.152C52.5063 180.152 52.1421 180.954 51.6324 182.119C51.0498 183.358 50.2487 184.96 49.2292 186.781C48.2825 188.603 47.3357 190.205 46.6075 191.298C45.8793 192.391 45.3695 193.119 45.3695 193.046C45.2967 192.974 45.7336 192.318 46.389 191.152C47.1173 189.841 47.9183 188.311 48.865 186.563C49.8118 184.815 50.6128 183.285 51.3411 181.974C51.9965 180.881 52.3606 180.152 52.4334 180.152Z" fill="#333333"/>
<path d="M28.8384 222.55C28.8384 222.55 40.9272 220.656 44.1314 211.768C44.2771 211.477 43.9858 211.113 43.6217 211.259C41.7283 211.768 36.2664 213.954 28.8384 222.55Z" fill="#E8505B"/>
<g opacity="0.3">
<g opacity="0.3">
<g opacity="0.3">
<g opacity="0.3">
<path opacity="0.3" d="M28.8384 222.55C28.8384 222.55 40.9272 220.656 44.1314 211.768C44.2771 211.477 43.9858 211.113 43.6217 211.259C41.7283 211.768 36.2664 213.954 28.8384 222.55Z" fill="#333333"/>
</g>
</g>
</g>
</g>
<path d="M40.9271 214.1C40.9999 214.172 40.3445 214.682 39.325 215.557C38.3054 216.358 36.7761 217.523 35.174 218.689C33.4991 219.855 31.9697 220.874 30.8046 221.603C29.6394 222.331 28.9111 222.696 28.9111 222.623C28.9111 222.55 29.5665 222.113 30.6589 221.312C31.8969 220.437 33.3534 219.417 34.8827 218.325C36.4848 217.232 37.9413 216.139 39.1065 215.338C40.1989 214.537 40.9271 214.1 40.9271 214.1Z" fill="#333333"/>
<path d="M14.4919 244.768L17.9875 267.497L31.8241 267.424L36.4848 244.768H14.4919Z" fill="#4F4F4F"/>
<path d="M34.4458 253.51C34.4458 253.51 34.4458 253.51 34.3001 253.583C34.2273 253.656 34.0816 253.729 33.936 253.801C33.5719 253.947 33.0621 254.166 32.4067 254.239C31.6784 254.311 30.8045 254.311 29.8578 254.02C28.9111 253.729 27.8916 253.073 27.0905 252.053C26.7264 251.543 26.5079 250.888 26.4351 250.159C26.3623 249.431 26.6536 248.629 27.3818 248.192C28.1101 247.755 28.9839 247.901 29.7122 248.411C30.4404 248.848 30.8045 249.649 31.023 250.523C31.2415 251.325 31.2415 252.199 31.1687 253.073C31.0958 253.947 30.9502 254.821 30.5861 255.695C30.222 256.57 29.7122 257.371 28.9839 257.954C28.2557 258.609 27.309 259.046 26.2894 259.046C25.2699 259.119 24.3232 258.755 23.5221 258.245C22.7211 257.735 22.0656 257.08 21.4831 256.351C20.9005 255.623 20.4635 254.748 20.4635 253.874C20.3907 253 20.7548 252.053 21.4102 251.47C22.1385 250.888 23.158 250.96 23.8862 251.325C24.6145 251.689 25.1971 252.417 25.2699 253.146C25.5612 254.676 24.6145 256.133 23.5221 256.715C22.3569 257.371 21.1918 257.371 20.1722 257.225C19.1527 257.007 18.4244 256.642 17.769 256.278C17.1864 255.914 16.7495 255.623 16.4582 255.404C16.1669 255.186 16.0212 255.04 16.0212 255.04C16.0212 255.04 16.1669 255.113 16.4582 255.331C16.7495 255.55 17.1864 255.841 17.8418 256.133C18.4244 256.424 19.2255 256.788 20.1722 257.007C21.1189 257.152 22.2841 257.152 23.3037 256.497C24.3232 255.914 25.1243 254.603 24.9058 253.219C24.7601 252.563 24.3232 251.907 23.6678 251.616C23.0124 251.252 22.2113 251.252 21.5559 251.762C20.9733 252.272 20.682 253.073 20.7548 253.874C20.8276 254.676 21.1918 255.477 21.7015 256.133C22.2113 256.788 22.9395 257.444 23.6678 257.881C24.396 258.318 25.3427 258.682 26.2166 258.609C27.0905 258.537 27.9644 258.172 28.6198 257.59C29.2752 257.007 29.785 256.278 30.1491 255.477C30.4404 254.676 30.6589 253.801 30.6589 253C30.7317 252.126 30.6589 251.325 30.5132 250.523C30.3676 249.722 29.9307 249.066 29.3481 248.629C28.7655 248.192 27.9644 248.119 27.3818 248.411C26.7992 248.775 26.5079 249.431 26.5807 250.086C26.5807 250.742 26.7992 251.325 27.1633 251.835C27.8188 252.854 28.8383 253.437 29.7122 253.801C30.6589 254.093 31.46 254.166 32.1882 254.093C33.7903 253.947 34.4458 253.437 34.4458 253.51Z" fill="#333333"/>
</svg>
