<svg width="38" height="38" viewBox="0 0 38 38" fill="none" xmlns="http://www.w3.org/2000/svg">
<g filter="url(#filter0_d)">
<rect x="4" width="30" height="30" rx="5" fill="#43D190"/>
</g>
<path d="M17.0631 17.2269L16.7653 21.1357C17.1913 21.1357 17.3758 20.9649 17.5971 20.7598L19.5944 18.9783L23.733 21.807C24.492 22.2018 25.0267 21.9939 25.2315 21.1553L27.9481 9.27498L27.9488 9.27428C28.1896 8.22708 27.5431 7.81758 26.8035 8.07448L10.8357 13.7802C9.74588 14.175 9.76238 14.7419 10.6504 14.9988L14.7327 16.1839L24.2152 10.6463C24.6615 10.3705 25.0672 10.5231 24.7335 10.7989L17.0631 17.2269Z" fill="white"/>
<defs>
<filter id="filter0_d" x="0" y="0" width="38" height="38" filterUnits="userSpaceOnUse" color-interpolation-filters="sRGB">
<feFlood flood-opacity="0" result="BackgroundImageFix"/>
<feColorMatrix in="SourceAlpha" type="matrix" values="0 0 0 0 0 0 0 0 0 0 0 0 0 0 0 0 0 0 127 0"/>
<feOffset dy="4"/>
<feGaussianBlur stdDeviation="2"/>
<feColorMatrix type="matrix" values="0 0 0 0 0 0 0 0 0 0 0 0 0 0 0 0 0 0 0.25 0"/>
<feBlend mode="normal" in2="BackgroundImageFix" result="effect1_dropShadow"/>
<feBlend mode="normal" in="SourceGraphic" in2="effect1_dropShadow" result="shape"/>
</filter>
</defs>
</svg>
