<svg width="219" height="98" viewBox="0 0 219 98" fill="none" xmlns="http://www.w3.org/2000/svg">
<path d="M113.15 20.2864V33.7275H110.94V24.5218L106.832 33.7275H105.301L101.173 24.5218V33.7275H98.9641V20.2864H101.348L106.076 30.8265L110.785 20.2864H113.15Z" fill="white"/>
<path d="M131.731 30.9813H126.092L125.123 33.7275H122.817L127.642 20.2671H130.2L135.026 33.7275H132.7L131.731 30.9813ZM131.111 29.1827L128.921 22.936L126.712 29.1827H131.111Z" fill="white"/>
<path d="M152.104 33.7275L146.891 27.7129V33.7275H144.682V20.2864H146.891V26.4171L152.123 20.2864H154.894L149.042 27.0166L154.991 33.7275H152.104Z" fill="white"/>
<path d="M166.712 22.0657V26.011H171.363V27.8096H166.712V31.9289H171.944V33.7275H164.503V20.2671H171.944V22.0657H166.712Z" fill="white"/>
<path d="M197.025 20.2864V33.7275H194.815V20.2864H197.025Z" fill="white"/>
<path d="M216.184 20.2864V22.085H212.599V33.7275H210.39V22.085H206.785V20.2864H216.184Z" fill="white"/>
<path d="M98.9331 42.1241H104.432V49.1876H121.295V42.1241H126.811V69.1835H121.295V53.8793H104.432V69.1835H98.9331V42.1241Z" fill="white"/>
<path d="M132.9 62.7433C132.9 61.7622 133.114 60.8678 133.542 60.0598C133.97 59.2519 134.612 58.5594 135.468 57.9823C136.324 57.3937 137.388 56.9436 138.66 56.632C139.944 56.3088 141.435 56.1472 143.136 56.1472C144.396 56.1472 145.72 56.2395 147.108 56.4242C148.508 56.6089 149.947 56.8916 151.428 57.2725C151.37 56.6262 151.173 56.0318 150.838 55.4893C150.503 54.9353 150.034 54.4621 149.433 54.0697C148.843 53.6657 148.126 53.3541 147.282 53.1348C146.449 52.9155 145.501 52.8059 144.437 52.8059C143.858 52.8059 143.222 52.8405 142.528 52.9098C141.834 52.979 141.117 53.0829 140.377 53.2214C139.637 53.3599 138.903 53.533 138.174 53.7408C137.457 53.9485 136.786 54.1967 136.162 54.4852L134.6 50.2783C135.375 50.0013 136.202 49.7473 137.081 49.5165C137.972 49.2857 138.88 49.0895 139.805 48.9279C140.73 48.7548 141.655 48.622 142.58 48.5297C143.506 48.4374 144.402 48.3912 145.269 48.3912C149.097 48.3912 151.943 49.3665 153.805 51.317C155.667 53.2676 156.598 56.2569 156.598 60.2849V69.1835H151.463V67.2618C150.931 67.5735 150.347 67.8678 149.71 68.1448C149.086 68.4218 148.404 68.6642 147.663 68.8719C146.923 69.0797 146.125 69.2412 145.269 69.3567C144.425 69.4836 143.529 69.5471 142.58 69.5471C140.984 69.5471 139.579 69.374 138.365 69.0277C137.162 68.6815 136.156 68.2025 135.346 67.5908C134.537 66.9791 133.924 66.2635 133.507 65.444C133.103 64.613 132.9 63.7128 132.9 62.7433ZM138.313 62.5701C138.313 62.9049 138.4 63.228 138.573 63.5396C138.747 63.8397 139.024 64.111 139.406 64.3533C139.787 64.5842 140.273 64.7746 140.863 64.9247C141.464 65.0632 142.187 65.1324 143.031 65.1324C143.934 65.1324 144.807 65.0516 145.651 64.89C146.495 64.7284 147.282 64.5149 148.01 64.2495C148.739 63.984 149.398 63.6782 149.988 63.3319C150.578 62.9856 151.069 62.6279 151.463 62.2585V61.3583C150.676 61.139 149.895 60.9543 149.121 60.8043C148.357 60.6542 147.623 60.5388 146.917 60.458C146.223 60.3657 145.564 60.3022 144.94 60.2676C144.327 60.233 143.789 60.2156 143.326 60.2156C142.366 60.2156 141.568 60.2791 140.932 60.4061C140.296 60.533 139.782 60.7062 139.388 60.9255C138.995 61.1332 138.718 61.3814 138.556 61.6699C138.394 61.9584 138.313 62.2585 138.313 62.5701Z" fill="white"/>
<path d="M163.259 40.4621H168.394V50.6765C168.845 50.3648 169.377 50.0705 169.99 49.7935C170.603 49.5165 171.262 49.2741 171.968 49.0664C172.673 48.8586 173.402 48.6971 174.154 48.5816C174.905 48.4547 175.657 48.3912 176.409 48.3912C178.144 48.3912 179.734 48.6451 181.18 49.1529C182.637 49.6608 183.886 50.3764 184.927 51.2997C185.968 52.223 186.777 53.331 187.355 54.6237C187.945 55.9048 188.24 57.3245 188.24 58.8826C188.24 60.51 187.934 61.9815 187.321 63.2973C186.708 64.6015 185.858 65.721 184.771 66.6559C183.695 67.5792 182.411 68.2948 180.919 68.8027C179.439 69.2989 177.831 69.5471 176.097 69.5471C175.356 69.5471 174.622 69.5009 173.893 69.4086C173.176 69.3163 172.482 69.1893 171.812 69.0277C171.152 68.8661 170.528 68.6757 169.938 68.4564C169.36 68.2256 168.845 67.9774 168.394 67.712V69.1835H163.259V40.4621ZM168.394 62.7606C168.915 63.1761 169.464 63.5281 170.042 63.8167C170.62 64.1052 171.21 64.3418 171.812 64.5265C172.413 64.7111 173.02 64.8496 173.633 64.942C174.246 65.0228 174.842 65.0632 175.42 65.0632C176.6 65.0632 177.646 64.9073 178.56 64.5957C179.485 64.2725 180.26 63.834 180.885 63.28C181.521 62.726 182.006 62.0739 182.342 61.3237C182.677 60.5734 182.845 59.7598 182.845 58.8826C182.845 58.0631 182.677 57.2898 182.342 56.5627C182.018 55.8356 181.544 55.2008 180.919 54.6583C180.306 54.1043 179.56 53.6715 178.681 53.3599C177.814 53.0367 176.837 52.8751 175.75 52.8751C175.056 52.8751 174.362 52.9444 173.668 53.0829C172.974 53.2098 172.303 53.3945 171.656 53.6369C171.019 53.8793 170.418 54.1736 169.851 54.5198C169.296 54.8661 168.81 55.2527 168.394 55.6798V62.7606Z" fill="white"/>
<path d="M195.7 45.9674C195.191 45.9674 194.728 45.8982 194.312 45.7597C193.907 45.6097 193.56 45.4134 193.271 45.1711C192.982 44.9172 192.756 44.6286 192.594 44.3054C192.444 43.9707 192.369 43.6187 192.369 43.2494C192.369 42.8685 192.444 42.5165 192.594 42.1933C192.756 41.8586 192.982 41.5701 193.271 41.3277C193.56 41.0853 193.907 40.8949 194.312 40.7564C194.728 40.6063 195.191 40.5313 195.7 40.5313C196.22 40.5313 196.683 40.6063 197.088 40.7564C197.504 40.8949 197.857 41.0853 198.146 41.3277C198.435 41.5701 198.655 41.8586 198.805 42.1933C198.967 42.5165 199.048 42.8685 199.048 43.2494C199.048 43.6187 198.967 43.9707 198.805 44.3054C198.655 44.6286 198.435 44.9172 198.146 45.1711C197.857 45.4134 197.504 45.6097 197.088 45.7597C196.683 45.8982 196.22 45.9674 195.7 45.9674ZM193.132 48.7548H198.267V69.1835H193.132V48.7548Z" fill="white"/>
<path d="M207.947 52.5981H203.003V48.7548H207.947V42.4011H213.082V48.7548H218.026V52.5981H213.082V69.1835H207.947V52.5981Z" fill="white"/>
<g filter="url(#filter0_d)">
<path d="M14 21.2C14 15.0144 19.0144 10 25.2 10H72.8C78.9856 10 84 15.0144 84 21.2V68.8C84 74.9856 78.9856 80 72.8 80H25.2C19.0144 80 14 74.9856 14 68.8V21.2Z" fill="url(#paint0_linear)"/>
<path opacity="0.4" fill-rule="evenodd" clip-rule="evenodd" d="M37.52 23.2533C30.3035 23.2533 24.4534 29.1034 24.4534 36.32V54.8C24.4534 62.0165 30.3035 67.8666 37.52 67.8666H60.2934C67.5099 67.8666 73.36 62.0165 73.36 54.8V42.6632C73.6646 39.6721 69.8322 36.9312 67.0016 40.0086C64.171 43.0861 58.1467 46.8666 56.3734 49.9466C54.6 53.0266 52.36 53.3066 50.68 54.8C49 56.2933 48.8017 58.4468 45.6496 55.92C42.4974 53.3931 34.7113 48.1757 32.4171 44.664C30.976 43.2417 30.976 40.9156 32.4171 39.4933C33.8317 38.0973 36.7588 36.604 38.1734 38L46.2096 45.1754C47.6647 46.6115 53.24 44.7578 54.6934 43.32C60.9454 38.5917 62.9326 36.408 69.4344 31.6806C70.6562 30.4718 73.1469 27.0164 71.96 25.7733C69.5806 23.2811 66.5311 20.5466 62.8134 20.5466L37.52 23.2533Z" fill="white"/>
<path opacity="0.3" fill-rule="evenodd" clip-rule="evenodd" d="M36.3999 21.3867C29.1834 21.3867 23.3333 27.2368 23.3333 34.4533V52.9333C23.3333 60.1499 29.1834 66 36.3999 66H59.1733C66.3898 66 72.2399 60.1499 72.2399 52.9333V40.7966C72.5445 37.8055 68.3143 34.2667 65.8815 38.142C63.4487 42.0174 58.3333 43.32 55.7199 47.52C53.1066 51.72 51.5388 51.2467 49.6533 52.3733C47.7677 53.4999 47.4306 56.5178 43.4933 53.4C39.5559 50.2822 33.5031 46.5322 30.8869 43.0915C29.4457 41.6692 30.3854 39.5643 31.8266 38.142C33.2411 36.746 35.5149 36.746 36.9295 38.142L45.0895 43.3088C46.5446 44.7449 47.5465 49.5179 48.9999 48.08C55.252 43.3518 67.1066 33.8933 68.5999 33.24C70.0933 32.5867 73.2666 28.0133 71.9599 25.7733C70.6533 23.5333 66.2666 20.1733 62.5333 20.1733C58.7999 20.1733 36.3999 21.3867 36.3999 21.3867Z" fill="white"/>
<path fill-rule="evenodd" clip-rule="evenodd" d="M37.7066 20.6401C30.49 20.6401 24.6399 26.4903 24.6399 33.7068V56.4801C24.6399 63.6967 30.49 69.5468 37.7066 69.5468H60.4799C67.6964 69.5468 73.5466 63.6967 73.5466 56.4801V44.3434C73.5466 41.0274 69.546 39.3572 67.1881 41.6888L51.6482 57.0562C50.1932 58.4951 47.8509 58.4945 46.3966 57.0548L33.9708 44.754C32.5338 43.3314 32.5356 41.0091 33.9748 39.5887C35.3911 38.191 37.6685 38.1935 39.0818 39.5943L47.7089 48.1455C48.436 48.8662 49.608 48.8668 50.3358 48.1468L69.6209 29.0674C70.8427 27.8586 71.1189 25.928 69.932 24.6849C67.5526 22.1927 64.1976 20.6401 60.4799 20.6401H37.7066Z" fill="white"/>
</g>
<defs>
<filter id="filter0_d" x="0" y="0" width="98" height="98" filterUnits="userSpaceOnUse" color-interpolation-filters="sRGB">
<feFlood flood-opacity="0" result="BackgroundImageFix"/>
<feColorMatrix in="SourceAlpha" type="matrix" values="0 0 0 0 0 0 0 0 0 0 0 0 0 0 0 0 0 0 127 0"/>
<feOffset dy="4"/>
<feGaussianBlur stdDeviation="7"/>
<feColorMatrix type="matrix" values="0 0 0 0 0 0 0 0 0 0 0 0 0 0 0 0 0 0 0.1 0"/>
<feBlend mode="normal" in2="BackgroundImageFix" result="effect1_dropShadow"/>
<feBlend mode="normal" in="SourceGraphic" in2="effect1_dropShadow" result="shape"/>
</filter>
<linearGradient id="paint0_linear" x1="78.4933" y1="10" x2="18.0133" y2="76.5467" gradientUnits="userSpaceOnUse">
<stop stop-color="#2EEBDA"/>
<stop offset="1" stop-color="#7CF7A3"/>
</linearGradient>
</defs>
</svg>
