<svg width="146" height="50" viewBox="0 0 146 50" fill="none" xmlns="http://www.w3.org/2000/svg">
<path d="M70.8212 7.34731V16.9481H69.2432V10.3726L66.3086 16.9481H65.2151L62.2666 10.3726V16.9481H60.6886V7.34731H62.3912L65.7687 14.876L69.1324 7.34731H70.8212Z" fill="#4F4F4F"/>
<path d="M84.0936 14.9865H80.0655L79.3734 16.9481H77.7262L81.1729 7.3335H83.0001L86.4468 16.9481H84.7858L84.0936 14.9865ZM83.6507 13.7018L82.0865 9.23983L80.5085 13.7018H83.6507Z" fill="#4F4F4F"/>
<path d="M98.6455 16.9481L94.922 12.6519V16.9481H93.344V7.34731H94.922V11.7264L98.6594 7.34731H100.639L96.4585 12.1546L100.708 16.9481H98.6455Z" fill="#4F4F4F"/>
<path d="M109.08 8.6182V11.4363H112.402V12.721H109.08V15.6634H112.817V16.9481H107.502V7.3335H112.817V8.6182H109.08Z" fill="#4F4F4F"/>
<path d="M130.732 7.34731V16.9481H129.154V7.34731H130.732Z" fill="#4F4F4F"/>
<path d="M144.417 7.34731V8.63202H141.856V16.9481H140.278V8.63202H137.704V7.34731H144.417Z" fill="#4F4F4F"/>
<path d="M60.6665 22.9456H64.5946V27.991H76.639V22.9456H80.5794V42.2738H76.639V31.3422H64.5946V42.2738H60.6665V22.9456Z" fill="#4F4F4F"/>
<path d="M84.9288 37.6736C84.9288 36.9729 85.0816 36.334 85.3873 35.7569C85.6929 35.1798 86.1514 34.6852 86.7627 34.273C87.374 33.8525 88.134 33.531 89.0427 33.3084C89.9597 33.0776 91.0253 32.9621 92.2397 32.9621C93.1401 32.9621 94.086 33.0281 95.0773 33.16C96.0769 33.2919 97.1054 33.4939 98.1628 33.7659C98.1214 33.3043 97.981 32.8797 97.7414 32.4922C97.5019 32.0965 97.1673 31.7585 96.7377 31.4782C96.3164 31.1897 95.8043 30.9671 95.2012 30.8104C94.6064 30.6538 93.929 30.5755 93.169 30.5755C92.756 30.5755 92.3016 30.6002 91.806 30.6497C91.3103 30.6992 90.7982 30.7734 90.2695 30.8723C89.7408 30.9712 89.2162 31.0949 88.6958 31.2433C88.1836 31.3917 87.7044 31.5689 87.2584 31.775L86.1431 28.77C86.6966 28.5722 87.2873 28.3908 87.9151 28.2259C88.5512 28.0611 89.1997 27.9209 89.8605 27.8055C90.5214 27.6818 91.1823 27.587 91.8432 27.5211C92.504 27.4551 93.1442 27.4221 93.7638 27.4221C96.4982 27.4221 98.5304 28.1188 99.8604 29.512C101.19 30.9053 101.855 33.0405 101.855 35.9176V42.2738H98.1875V40.9012C97.8075 41.1238 97.3904 41.334 96.936 41.5318C96.4899 41.7297 96.0025 41.9028 95.4738 42.0512C94.9451 42.1996 94.3751 42.315 93.7638 42.3975C93.1608 42.4882 92.5206 42.5335 91.8432 42.5335C90.7032 42.5335 89.6995 42.4098 88.8321 42.1625C87.9729 41.9152 87.2542 41.5731 86.676 41.1361C86.0977 40.6992 85.6599 40.1881 85.3625 39.6027C85.0733 39.0092 84.9288 38.3661 84.9288 37.6736ZM88.7949 37.55C88.7949 37.789 88.8568 38.0199 88.9808 38.2425C89.1047 38.4568 89.3029 38.6505 89.5755 38.8237C89.8482 38.9886 90.1951 39.1246 90.6164 39.2318C91.046 39.3307 91.5623 39.3801 92.1653 39.3801C92.8097 39.3801 93.4334 39.3224 94.0364 39.207C94.6395 39.0916 95.2012 38.9391 95.7217 38.7495C96.2421 38.5599 96.713 38.3414 97.1343 38.0941C97.5556 37.8468 97.9067 37.5912 98.1875 37.3274V36.6843C97.6258 36.5277 97.0682 36.3958 96.5147 36.2886C95.9695 36.1815 95.4449 36.099 94.941 36.0413C94.4453 35.9754 93.9745 35.93 93.5284 35.9053C93.0906 35.8805 92.7064 35.8682 92.376 35.8682C91.6903 35.8682 91.1203 35.9135 90.666 36.0042C90.2116 36.0949 89.844 36.2186 89.5631 36.3752C89.2823 36.5236 89.084 36.7008 88.9684 36.9069C88.8527 37.113 88.7949 37.3274 88.7949 37.55Z" fill="#4F4F4F"/>
<path d="M106.614 21.7585H110.281V29.0545C110.604 28.8319 110.984 28.6217 111.422 28.4238C111.859 28.2259 112.33 28.0528 112.834 27.9044C113.338 27.756 113.858 27.6406 114.395 27.5582C114.932 27.4675 115.469 27.4221 116.006 27.4221C117.245 27.4221 118.381 27.6035 119.414 27.9663C120.455 28.329 121.347 28.8401 122.09 29.4996C122.834 30.1592 123.412 30.9506 123.825 31.8739C124.247 32.789 124.457 33.803 124.457 34.916C124.457 36.0784 124.238 37.1295 123.8 38.0693C123.363 39.0009 122.755 39.8006 121.979 40.4684C121.211 41.1279 120.294 41.639 119.228 42.0018C118.171 42.3563 117.022 42.5335 115.783 42.5335C115.255 42.5335 114.73 42.5005 114.21 42.4346C113.697 42.3686 113.202 42.2779 112.723 42.1625C112.252 42.0471 111.806 41.9111 111.384 41.7544C110.971 41.5896 110.604 41.4123 110.281 41.2227V42.2738H106.614V21.7585ZM110.281 37.686C110.653 37.9828 111.046 38.2342 111.459 38.4403C111.872 38.6464 112.293 38.8154 112.723 38.9473C113.152 39.0792 113.586 39.1782 114.024 39.2441C114.462 39.3018 114.887 39.3307 115.3 39.3307C116.143 39.3307 116.89 39.2194 117.543 38.9968C118.204 38.766 118.757 38.4527 119.203 38.057C119.658 37.6613 120.005 37.1955 120.244 36.6596C120.484 36.1237 120.603 35.5425 120.603 34.916C120.603 34.3307 120.484 33.7783 120.244 33.2589C120.013 32.7396 119.674 32.2861 119.228 31.8987C118.79 31.503 118.257 31.1938 117.63 30.9712C117.01 30.7404 116.312 30.625 115.535 30.625C115.04 30.625 114.544 30.6744 114.048 30.7734C113.553 30.864 113.074 30.9959 112.611 31.1691C112.157 31.3422 111.727 31.5524 111.322 31.7997C110.926 32.0471 110.579 32.3232 110.281 32.6283V37.686Z" fill="#4F4F4F"/>
<path d="M129.785 25.6909C129.422 25.6909 129.092 25.6414 128.794 25.5425C128.505 25.4353 128.257 25.2952 128.051 25.1221C127.844 24.9407 127.683 24.7346 127.567 24.5037C127.46 24.2647 127.406 24.0132 127.406 23.7494C127.406 23.4774 127.46 23.2259 127.567 22.9951C127.683 22.756 127.844 22.5499 128.051 22.3768C128.257 22.2037 128.505 22.0676 128.794 21.9687C129.092 21.8615 129.422 21.8079 129.785 21.8079C130.157 21.8079 130.488 21.8615 130.777 21.9687C131.074 22.0676 131.326 22.2037 131.533 22.3768C131.739 22.5499 131.896 22.756 132.004 22.9951C132.119 23.2259 132.177 23.4774 132.177 23.7494C132.177 24.0132 132.119 24.2647 132.004 24.5037C131.896 24.7346 131.739 24.9407 131.533 25.1221C131.326 25.2952 131.074 25.4353 130.777 25.5425C130.488 25.6414 130.157 25.6909 129.785 25.6909ZM127.952 27.6818H131.619V42.2738H127.952V27.6818Z" fill="#4F4F4F"/>
<path d="M138.534 30.4271H135.002V27.6818H138.534V23.1435H142.202V27.6818H145.733V30.4271H142.202V42.2738H138.534V30.4271Z" fill="#4F4F4F"/>
<path d="M0 8C0 3.58172 3.58172 0 8 0H42C46.4183 0 50 3.58172 50 8V42C50 46.4183 46.4183 50 42 50H8C3.58172 50 0 46.4183 0 42V8Z" fill="url(#paint0_linear)"/>
<path opacity="0.4" fill-rule="evenodd" clip-rule="evenodd" d="M16.7999 9.46654C11.6452 9.46654 7.46655 13.6452 7.46655 18.7999V31.9999C7.46655 37.1545 11.6452 41.3332 16.7999 41.3332H33.0666C38.2212 41.3332 42.3999 37.1545 42.3999 31.9999V23.3308C42.6174 21.1943 39.88 19.2364 37.8582 21.4346C35.8363 23.6328 31.5332 26.3332 30.2666 28.5332C28.9999 30.7332 27.3999 30.9332 26.1999 31.9999C24.9999 33.0665 24.8582 34.6047 22.6067 32.7999C20.3552 30.995 14.7936 27.2683 13.155 24.7599C12.1255 23.744 12.1255 22.0825 13.155 21.0665C14.1653 20.0694 16.2562 19.0027 17.2666 19.9999L23.0067 25.1252C24.0461 26.151 28.0284 24.8269 29.0666 23.7999C33.5323 20.4225 34.9517 18.8627 39.5958 15.486C40.4686 14.6226 42.2476 12.1545 41.3999 11.2665C39.7003 9.48643 37.522 7.5332 34.8666 7.5332L16.7999 9.46654Z" fill="white"/>
<path opacity="0.3" fill-rule="evenodd" clip-rule="evenodd" d="M16.0001 8.13327C10.8454 8.13327 6.66675 12.3119 6.66675 17.4666V30.6666C6.66675 35.8213 10.8454 39.9999 16.0001 39.9999H32.2667C37.4214 39.9999 41.6001 35.8213 41.6001 30.6666V21.9975C41.8176 19.861 38.796 17.3333 37.0584 20.1014C35.3207 22.8695 31.6667 23.7999 29.8001 26.7999C27.9334 29.7999 26.8136 29.4619 25.4667 30.2666C24.1199 31.0713 23.8792 33.227 21.0667 30.9999C18.2543 28.7729 13.9309 26.0944 12.0622 23.6367C11.0328 22.6208 11.704 21.1173 12.7334 20.1014C13.7438 19.1042 15.368 19.1042 16.3783 20.1014L22.2069 23.7919C23.2463 24.8177 23.962 28.227 25.0001 27.1999C29.4658 23.8226 37.9334 17.0666 39.0001 16.5999C40.0667 16.1333 42.3334 12.8666 41.4001 11.2666C40.4667 9.6666 37.3334 7.2666 34.6667 7.2666C32.0001 7.2666 16.0001 8.13327 16.0001 8.13327Z" fill="white"/>
<path fill-rule="evenodd" clip-rule="evenodd" d="M16.9332 7.6001C11.7785 7.6001 7.59985 11.7788 7.59985 16.9334V33.2001C7.59985 38.3548 11.7785 42.5334 16.9332 42.5334H33.1999C38.3545 42.5334 42.5332 38.3548 42.5332 33.2001V24.531C42.5332 22.1624 39.6756 20.9694 37.9915 22.6349L26.8915 33.6116C25.8522 34.6394 24.1792 34.6389 23.1404 33.6106L14.2648 24.8243C13.2383 23.8081 13.2396 22.1493 14.2676 21.1348C15.2793 20.1364 16.906 20.1382 17.9155 21.1388L24.0777 27.2468C24.5971 27.7616 25.4342 27.762 25.9541 27.2477L39.7291 13.6196C40.6019 12.7562 40.7991 11.3771 39.9514 10.4892C38.2518 8.70909 35.8553 7.6001 33.1999 7.6001H16.9332Z" fill="white"/>
<defs>
<linearGradient id="paint0_linear" x1="46.0667" y1="1.84223e-06" x2="2.86667" y2="47.5333" gradientUnits="userSpaceOnUse">
<stop stop-color="#2EEBDA"/>
<stop offset="1" stop-color="#7CF7A3"/>
</linearGradient>
</defs>
</svg>
